<?xml version="1.0" encoding="iso-8859-1"?>
<!-- Generator: Adobe Illustrator 18.0.0, SVG Export Plug-In . SVG Version: 6.00 Build 0)  -->
<!DOCTYPE svg PUBLIC "-//W3C//DTD SVG 1.1//EN" "http://www.w3.org/Graphics/SVG/1.1/DTD/svg11.dtd">
<svg version="1.1" id="Capa_1" xmlns="http://www.w3.org/2000/svg" xmlns:xlink="http://www.w3.org/1999/xlink" x="0px" y="0px"
	 viewBox="0 0 474.18 474.18" style="enable-background:new 0 0 474.18 474.18;" xml:space="preserve">
<path d="M468.665,92.773l-33.453-28.131l-4.532-15.864c-2.54-8.89-9.703-15.757-18.691-17.921l-28.267-6.805
	c-12.338-2.971-25.474,1.496-33.464,11.379c-20.509,25.371-72.23,85.507-109.45,95.928c-33.518,9.385-85.715,11.924-113.845,12.602
	c-16.616,0.4-32.406,5.578-45.944,14.998l-17.598-6.737c-18.029-6.901-38.107-2.166-51.151,12.065
	C1.03,176.546-2.85,194.019,2.141,209.884l7.965,25.319c8.229,26.154,7.682,54.777-1.54,80.596
	c-0.937,2.624-0.342,5.552,1.545,7.602c1.44,1.564,3.45,2.421,5.519,2.42c0.643,0,1.292-0.083,1.93-0.252l31.224-8.315l1.085,6.012
	c1.428,7.909-0.444,16.188-5.135,22.715l-7.944,11.052c-4.748,6.607-7.61,14.386-8.277,22.497l-4.027,49
	c-0.475,5.777,1.505,11.535,5.432,15.797c3.928,4.263,9.504,6.708,15.3,6.708h57.674c6.59,0,12.443-3.695,15.277-9.645
	c2.834-5.948,2.015-12.822-2.137-17.938l-13.644-16.817c-2.731-3.366-1.819-6.864-1.301-8.212c0.519-1.348,2.188-4.555,6.471-5.221
	l18.282-2.843c3.267-0.508,5.815-3.097,6.274-6.371l10.55-75.355l69.773,11.943l3.322,110.285
	c0.342,11.313,9.475,20.174,20.792,20.174h71.406c6.063,0,11.403-3.649,13.605-9.297c2.201-5.642,0.743-11.936-3.713-16.036
	c-10.148-9.336-17.713-21.14-22.482-35.083c-8.017-23.433,18.797-92.67,46.563-149.652c2.537-5.206,5.97-9.861,10.203-13.835
	c23.849-22.388,39.149-52.6,43.085-85.071l2.419-19.954c3.488,1.149,7.803,2.667,12.399,4.513c9.065,3.639,18.753,4.338,28.017,2.02
	c10.213-2.556,20.42-6.853,27.185-10.008c4.817-2.247,8.11-6.732,8.807-11.999C474.74,101.371,472.728,96.19,468.665,92.773z
	 M26.689,307.616c6.279-25.221,5.544-52.063-2.274-76.914l-7.965-25.319c-3.39-10.772-0.755-22.636,6.876-30.96
	c8.859-9.663,22.494-12.877,34.731-8.192l8.93,3.418l-14.322,11.067c-15.439,11.931-22.877,31.27-19.412,50.47l12.858,71.258
	L26.689,307.616z M458.898,105.037c-6.17,2.878-15.426,6.784-24.485,9.051c-6.178,1.546-12.674,1.066-18.787-1.388
	c-12.021-4.827-22.006-7.508-22.425-7.62c-2.097-0.559-4.336-0.182-6.135,1.035c-1.799,1.217-2.982,3.153-3.243,5.309l-3.495,28.831
	c-3.514,28.986-17.172,55.956-38.461,75.94c-5.566,5.226-10.082,11.349-13.421,18.2c-7.587,15.57-22.005,46.348-33.325,77.548
	c-14.728,40.589-19.29,67.913-13.947,83.531c5.469,15.984,14.13,29.622,25.761,40.561H236.55c-3.156,0-5.703-2.472-5.798-5.626
	l-4.66-154.723c-0.123-4.063-3.455-7.274-7.493-7.274c-0.076,0-0.153,0.001-0.229,0.003c-4.141,0.125-7.396,3.582-7.271,7.722
	l0.878,29.142l-67.232-11.508l1.507-10.76c0.574-4.102-2.286-7.893-6.388-8.468c-4.102-0.577-7.893,2.285-8.468,6.388
	l-13.365,95.463l-12.779,1.988c-8.341,1.298-15.132,6.776-18.164,14.654c-3.032,7.878-1.667,16.495,3.651,23.05l13.644,16.817
	c0.632,0.778,0.481,1.537,0.243,2.037s-0.732,1.095-1.735,1.095H45.215c-1.641,0-3.156-0.665-4.267-1.871
	c-1.111-1.207-1.649-2.771-1.516-4.406l4.027-49c0.444-5.397,2.35-10.575,5.509-14.972l7.943-11.051
	c7.05-9.808,9.862-22.25,7.717-34.134l-16.615-92.08c-2.468-13.671,2.829-27.441,13.822-35.937l24.889-19.232
	c11.726-9.061,25.765-14.039,40.599-14.396c28.831-0.695,82.438-3.328,117.528-13.153c22.428-6.28,48.234-27.005,71.258-49.794
	c-2.636,33.319-6.878,69.467-12.284,87.854c-1.503,5.106,0.299,10.489,4.483,13.393c1.827,1.269,3.901,1.9,5.975,1.9
	c2.211,0,4.42-0.718,6.329-2.15c12.816-9.621,26.535-25.244,37.641-42.863c5.156-8.181,17.148-28.731,17.148-42.827
	c0-19.223,5.199-44.24,12.938-50.842c3.151-2.688,3.527-7.422,0.839-10.573c-2.688-3.15-7.421-3.528-10.573-0.838
	c-14.398,12.283-18.203,46.092-18.203,62.253c0,12.188-18.059,44.946-39.409,65.614c6.531-30.503,10.136-78.787,11.364-97.773
	c11.395-12.336,21.566-24.401,29.565-34.297c4.37-5.405,11.548-7.849,18.287-6.227l28.267,6.805
	c3.742,0.901,6.723,3.759,7.779,7.459l2.624,9.185l-4.921,0.352c-4.132,0.295-7.242,3.884-6.946,8.015
	c0.281,3.95,3.573,6.966,7.473,6.966c0.18,0,0.36-0.006,0.542-0.02l11.103-0.793l32.881,27.649c0.077,0.065,0.195,0.164,0.162,0.414
	C459.139,104.925,458.989,104.995,458.898,105.037z"/>
<g>
</g>
<g>
</g>
<g>
</g>
<g>
</g>
<g>
</g>
<g>
</g>
<g>
</g>
<g>
</g>
<g>
</g>
<g>
</g>
<g>
</g>
<g>
</g>
<g>
</g>
<g>
</g>
<g>
</g>
</svg>
