<?xml version="1.0" encoding="iso-8859-1"?>
<!-- Generator: Adobe Illustrator 18.0.0, SVG Export Plug-In . SVG Version: 6.00 Build 0)  -->
<!DOCTYPE svg PUBLIC "-//W3C//DTD SVG 1.1//EN" "http://www.w3.org/Graphics/SVG/1.1/DTD/svg11.dtd">
<svg version="1.1" id="Capa_1" xmlns="http://www.w3.org/2000/svg" xmlns:xlink="http://www.w3.org/1999/xlink" x="0px" y="0px"
	 viewBox="0 0 471.01 471.01" style="enable-background:new 0 0 471.01 471.01;" xml:space="preserve">
<path d="M468.919,115.126l-26.042-35.021l1.322-5.946c0.724-3.253-0.787-6.593-3.707-8.199l-40.659-22.362
	c-15.605-8.583-34.848-5.351-46.791,7.864l-70.847,78.384c-5.655,6.257-12.853,11.038-20.813,13.824
	c-23.476,8.217-47.777,13.091-72.229,14.486c-22.12,1.262-44.403,0.977-66.226-0.847c-1.675-0.14-3.346-0.162-5.006-0.093
	c-4.025-14.279,2.593-30.915,9.31-42.921c8.69-15.533,19.622-27.204,19.728-27.315c2.404-2.543,2.729-6.41,0.785-9.32
	c-1.943-2.908-5.642-4.085-8.91-2.839c-18.06,6.896-33.086,19.164-43.456,35.478c-10.369,16.314-15.099,35.127-13.676,54.406
	l0.954,12.919c-9.672,10.149-19.226,21.14-26.223,29.424c-7.418,8.782-10.729,20.344-9.083,31.722l4.749,32.809
	c2.411,16.66-4.314,33.47-17.553,43.871l-23.284,18.295c-7.989,6.277-12.229,16.438-11.075,26.531l5.676,56.815
	c0.847,8.473,7.906,14.862,16.421,14.862h13.8c7.769,0,14.562-5.518,16.153-13.121l8.035-38.377l21.571-9.418
	c32.653-14.257,57.302-41.994,67.623-76.098l3.105-10.263c2.897-9.578,11.818-15.814,21.683-15.163c9.95,0.655,20.1,3.38,30.168,8.1
	c8.019,3.758,14.968,7.543,21.1,10.883c15.85,8.633,28.947,15.753,46.388,14.101c-7.135,46.546,5.687,92.344,12.768,112.829
	c3.223,9.323,11.646,15.825,21.457,16.563c1.681,0.126,3.334,0.19,4.952,0.19c1.9,0,3.75-0.087,5.535-0.262
	c12.576-1.229,22.06-11.826,22.06-24.649c0-120.549,38.647-245.031,48.997-276.198c0.005,0.001,0.011,0.003,0.016,0.005l6.083,1.685
	c5.388,1.492,9.679,5.7,11.199,10.983c3.021,10.5,9.603,18.321,19.032,22.62c8.707,3.969,17.4,3.889,21.811,3.49
	c2.182-0.198,4.168-1.34,5.437-3.127c1.269-1.786,1.692-4.037,1.16-6.163c-0.09-0.36-0.484-2.457,0.593-8.393
	c1.594-8.77,6.473-16.634,13.741-22.15c0.026-0.02,0.052-0.039,0.077-0.058C471.445,126.442,472.384,119.787,468.919,115.126z
	 M392.605,56.742l3.301,1.815l-4.881,14.951l-13.568-19.324C382.501,53.314,387.832,54.117,392.605,56.742z M108.038,118.345
	c0.469-0.736,0.948-1.463,1.438-2.179c-6.299,13.835-10.168,29.625-6.187,44.481c-2.292,1.02-4.495,2.249-6.573,3.691l-0.054-0.738
	C95.479,147.564,99.413,131.915,108.038,118.345z M438.25,149.49c-0.345,1.903-0.599,3.653-0.762,5.268
	c-6.502-0.878-14.946-4.216-18.098-15.164c-2.952-10.258-11.232-18.416-21.609-21.29l-6.083-1.685
	c-6.386-1.768-11.69-6.487-14.19-12.623c-1.562-3.836-5.94-5.68-9.774-4.116c-3.837,1.563-5.68,5.939-4.116,9.775
	c2.294,5.631,5.988,10.549,10.604,14.362c-9.341,27.78-50.54,157.468-50.54,283.251c0,5.067-3.662,9.246-8.52,9.721
	c-2.448,0.239-5.107,0.253-7.9,0.043c-3.841-0.289-7.141-2.843-8.406-6.506c-25.188-72.868-10.334-121.335-2.778-138.791
	c1.646-3.801-0.103-8.216-3.903-9.862c-3.803-1.647-8.218,0.103-9.862,3.904c-3.013,6.961-5.386,14.059-7.222,21.204
	c-15.251,3.115-25.295-2.346-42.393-11.658c-6.318-3.441-13.479-7.342-21.907-11.292c-11.768-5.516-23.728-8.707-35.549-9.486
	c-16.864-1.106-32.095,9.492-37.026,25.787l-3.105,10.263c-9.046,29.89-30.648,54.2-59.268,66.695l-25.118,10.967
	c-2.226,0.972-3.843,2.96-4.34,5.336l-8.828,42.166c-0.145,0.692-0.764,1.194-1.472,1.194h-13.8c-0.775,0-1.418-0.582-1.495-1.354
	l-5.682-56.874c-0.004-0.041-0.009-0.082-0.014-0.123c-0.579-4.968,1.504-9.974,5.437-13.064l23.284-18.295
	c17.444-13.707,26.308-35.86,23.131-57.814l-4.749-32.809c-1.032-7.136,1.044-14.387,5.696-19.895
	c8.933-10.575,22.101-25.643,34.109-37.375c5.236-5.116,12.406-7.703,19.677-7.094c22.521,1.882,45.509,2.176,68.329,0.875
	c25.851-1.475,51.532-6.624,76.33-15.304c10.322-3.613,19.654-9.811,26.987-17.924l70.847-78.383
	c0.021-0.023,0.043-0.042,0.064-0.065l23.13,32.943c1.416,2.018,3.717,3.19,6.137,3.19c0.367,0,0.738-0.027,1.109-0.083
	c2.809-0.419,5.14-2.39,6.021-5.09l8.651-26.501l17.021,9.362l-4.712,0.554c-4.114,0.484-7.057,4.211-6.572,8.325
	c0.448,3.816,3.688,6.624,7.438,6.624c0.293,0,0.589-0.017,0.886-0.052l8.037-0.946l23.036,30.979
	C445.954,128.332,440.267,138.388,438.25,149.49z"/>
<g>
</g>
<g>
</g>
<g>
</g>
<g>
</g>
<g>
</g>
<g>
</g>
<g>
</g>
<g>
</g>
<g>
</g>
<g>
</g>
<g>
</g>
<g>
</g>
<g>
</g>
<g>
</g>
<g>
</g>
</svg>
