<?xml version="1.0" encoding="iso-8859-1"?>
<!-- Generator: Adobe Illustrator 18.0.0, SVG Export Plug-In . SVG Version: 6.00 Build 0)  -->
<!DOCTYPE svg PUBLIC "-//W3C//DTD SVG 1.1//EN" "http://www.w3.org/Graphics/SVG/1.1/DTD/svg11.dtd">
<svg version="1.1" id="Capa_1" xmlns="http://www.w3.org/2000/svg" xmlns:xlink="http://www.w3.org/1999/xlink" x="0px" y="0px"
	 viewBox="0 0 466.225 466.225" style="enable-background:new 0 0 466.225 466.225;" xml:space="preserve">
<path d="M463.86,91.568c-2.486-3.93-6.563-6.479-11.186-6.993l-11.909-1.323c-0.496-8.402-4.773-16.218-11.653-21.156
	l-29.688-21.307c-5.9-4.234-12.858-6.473-20.12-6.473c-10.633,0-20.852,5.027-27.336,13.449
	c-14.67,19.053-41.28,54.676-54.673,79.183c-4.723,8.64-12.375,15.096-21.548,18.178c-12.942,4.349-19.061,4.544-19.029,4.545
	c-0.223,0-0.445,0.01-0.667,0.03l-133.068,11.881c-11.471,1.024-22.19,4.765-31.46,10.646
	c-22.287,1.584-41.854,16.535-49.138,37.808c-9.135,26.679-22.461,62.013-34.073,78.839c-1.878,2.722-1.752,6.354,0.311,8.938
	c1.455,1.823,3.631,2.822,5.864,2.822c0.934,0,1.878-0.175,2.784-0.537c6.868-2.747,15.59-11.492,23.914-21.51l-5.352,17.34
	L3.796,338.643c-0.924,1.232-1.447,2.72-1.496,4.26l-2.291,71.474c-0.149,4.639,1.547,9.029,4.775,12.362
	c3.229,3.334,7.562,5.17,12.203,5.17H45.74c2.205,0,4.298-0.97,5.723-2.652c1.425-1.682,2.038-3.906,1.675-6.081l-0.747-4.481
	c-1.736-10.416-8.854-19.126-18.521-22.995l4.831-29.953c0.942-5.839,4.062-11.016,8.783-14.577l70.483-53.151
	c8.677-6.543,15.476-15.08,19.9-24.901l21.968,0.317c27.454,0.396,55.013,6.962,79.696,18.987
	c14.708,7.166,31.065,10.931,47.425,10.931c0.618,0,1.238-0.005,1.856-0.016l11.521-0.201l-0.992,76.355
	c-0.091,7.042,1.583,14.065,4.84,20.31l11.435,21.917c3.279,6.285,9.72,10.189,16.809,10.189h33.687c2.247,0,4.375-1.007,5.8-2.745
	c1.425-1.738,1.995-4.022,1.555-6.226c-2.385-11.927-10.32-22.085-21.285-27.301c-3.288-13.693-4.479-27.744-3.54-41.821
	l4.54-68.093l20.243-41.498c7.196-14.753,9.998-31.098,8.135-47.375l13.931-47.973c3.008,0.536,6.097,0.734,9.214,0.526
	c0.043-0.003,0.087-0.006,0.13-0.01l25.023-2.107c13.033-1.098,24.209-9.796,28.473-22.161l7.054-20.457
	C466.903,100.274,466.346,95.498,463.86,91.568z M386.341,50.636c-2.593,8.446-8.015,22.107-12.222,31.58
	c-0.368-1.036-0.739-2.22-1.104-3.572c-2.09-7.734-2.018-16.006,0.209-23.923l1.352-4.807c1.536-0.388,3.123-0.596,4.729-0.596
	C381.741,49.316,384.114,49.773,386.341,50.636z M43.288,251.073c4.905-12.333,9.462-25.006,13.288-36.178
	c2.209-6.452,5.963-12.106,10.758-16.605c-2.115,3.953-3.881,8.148-5.241,12.554l-7.096,22.992
	C51.585,239.156,47.552,245.117,43.288,251.073z M451.206,99.781l-7.054,20.457c-2.329,6.753-8.433,11.503-15.551,12.103
	l-24.953,2.101c-8.275,0.536-16.261-3.421-20.86-10.32l-11.997-17.995c-2.297-3.446-6.953-4.378-10.4-2.08
	c-3.447,2.297-4.378,6.954-2.08,10.4l11.997,17.995c2.964,4.447,6.792,8.135,11.161,10.939l-14.743,50.768
	c-0.29,1-0.369,2.05-0.231,3.083c1.849,13.868-0.416,27.844-6.549,40.418l-20.888,42.819c-0.426,0.873-0.678,1.82-0.743,2.789
	l-4.637,69.561c-1.125,16.883,0.514,33.732,4.874,50.081c0.579,2.17,2.099,3.966,4.144,4.896l2.681,1.218
	c3.864,1.756,7.133,4.508,9.523,7.896h-22.471c-1.48,0-2.825-0.815-3.51-2.127l-11.435-21.917c-2.114-4.051-3.2-8.607-3.14-13.177
	l1.03-79.284c0.29-22.356-5.296-44.503-16.154-64.047c-2.011-3.62-6.576-4.925-10.199-2.914c-3.621,2.012-4.925,6.578-2.914,10.199
	c7.629,13.733,12.3,28.922,13.766,44.501l-11.32,0.197c-14.628,0.248-29.302-2.996-42.45-9.402
	c-26.651-12.983-56.407-20.073-86.049-20.5l-16.197-0.234c5.388-11.95,13.766-25.212,26.455-33.894
	c3.418-2.339,4.293-7.006,1.955-10.425c-2.34-3.419-7.008-4.294-10.425-1.955c-19.678,13.464-30.48,35.233-36.076,51.124
	c-3.23,9.173-9.049,17.123-16.828,22.989l-70.483,53.151c-7.828,5.903-12.999,14.484-14.56,24.164l-5.873,36.415
	c-0.61,3.785,1.732,7.421,5.431,8.43l3.232,0.881c4.197,1.145,7.636,4.044,9.528,7.825H16.988c-0.696,0-1.16-0.329-1.428-0.605
	c-0.267-0.276-0.581-0.75-0.559-1.446l2.215-69.108l31.398-41.865c0.518-0.69,0.912-1.464,1.167-2.288l26.645-86.329
	c6.646-21.533,25.444-36.742,47.89-38.746l132.834-11.86c1.937-0.068,9.471-0.646,23.373-5.317
	c12.764-4.288,23.395-13.238,29.934-25.203c10.929-19.998,31.313-48.093,46.047-67.59c-0.053,5.407,0.622,10.793,2.03,16.006
	c2.996,11.081,7.576,17.807,14.004,20.562c0.958,0.411,1.961,0.607,2.952,0.607c2.445,0,4.814-1.199,6.242-3.338
	c3.433-5.146,12.587-26.411,17.587-41.211l21.048,15.106c2.743,1.968,4.575,4.925,5.196,8.188h-7.876c-4.142,0-7.5,3.358-7.5,7.5
	s3.358,7.5,7.5,7.5l33.332,2.013c0.051,0.005,0.108,0.012,0.166,0.104S451.222,99.733,451.206,99.781z"/>
<g>
</g>
<g>
</g>
<g>
</g>
<g>
</g>
<g>
</g>
<g>
</g>
<g>
</g>
<g>
</g>
<g>
</g>
<g>
</g>
<g>
</g>
<g>
</g>
<g>
</g>
<g>
</g>
<g>
</g>
</svg>
