<?xml version="1.0" encoding="iso-8859-1"?>
<!-- Generator: Adobe Illustrator 18.0.0, SVG Export Plug-In . SVG Version: 6.00 Build 0)  -->
<!DOCTYPE svg PUBLIC "-//W3C//DTD SVG 1.1//EN" "http://www.w3.org/Graphics/SVG/1.1/DTD/svg11.dtd">
<svg version="1.1" id="Capa_1" xmlns="http://www.w3.org/2000/svg" xmlns:xlink="http://www.w3.org/1999/xlink" x="0px" y="0px"
	 viewBox="0 0 476.001 476.001" style="enable-background:new 0 0 476.001 476.001;" xml:space="preserve">
<path d="M475.024,170.531c-1.634-4.563-5.165-8.182-9.685-9.928l-33.007-12.753l-16.421-16.421
	c-5.761-5.761-13.729-8.767-21.859-8.249l-26.098,1.666c-9.981,0.637-18.987,6.578-23.501,15.503l-31.316,61.921
	c-3.442,6.806-10.313,10.962-17.942,10.925c-70.135-0.618-189.508-1.409-200.994,0.232c-1.191,0.17-3.302,0.474-6.805,2.091
	l-4.881-7.208c-11.442-16.873-11.367-38.624,0.191-55.411l41.089-59.661c3.661-5.323,4.067-12.181,1.061-17.899
	c-3.006-5.715-8.884-9.266-15.34-9.266c-2.781,0-5.564,0.685-8.05,1.981c-2.484,1.297-4.641,3.206-6.238,5.523l-44.223,64.226
	C33.15,163.723,33.027,197.3,50.69,223.345l8.971,13.234c-1.01,0.959-2.038,1.943-3.103,2.984
	c-7.997,7.813-13.708,17.665-16.515,28.492l-8.274,31.917c-0.999,3.852-3.381,7.173-6.709,9.354L3.39,323.523
	c-2.239,1.467-3.527,4.017-3.378,6.689l3.303,59.46c0.631,11.358,10.036,20.254,21.411,20.254h11.703
	c4.564,0,8.859-2.01,11.784-5.514c2.924-3.504,4.133-8.089,3.317-12.58c-1.361-7.486-6.057-13.709-12.436-17.18l8.833-18.927
	l15.562-2.541c12.791-2.088,24.483-7.551,34.092-15.636c28.266-5.344,72.231,6.194,111.125,16.408
	c27.381,7.191,53.372,14.003,73.674,15.263c0.747,4.017,1.614,8.018,2.609,11.995l3.153,12.612c2.37,9.479,10.849,16.1,20.62,16.1
	h20.269c4.572,0,8.877-2.228,11.518-5.96c2.64-3.732,3.308-8.534,1.787-12.845c-2.515-7.125-7.864-13.041-14.695-16.263
	c0.461-2.118,1.007-4.213,1.617-6.288c16.536-3.594,31.53-12.47,42.621-25.365c11.813-13.734,18.458-31.163,18.846-49.241
	c2.905-0.213,5.609-1.436,7.689-3.516c9.792-9.792,14.506-23.299,12.934-37.057l-4.846-42.4l15.948,5.944
	c15.784,5.882,33.253-0.49,41.542-15.154l9.853-17.432C476.227,180.132,476.658,175.094,475.024,170.531z M63.105,214.927
	c-14.168-20.892-14.07-47.824,0.253-68.616l44.222-64.225c0.213-0.31,0.499-0.564,0.823-0.733c0.356-0.186,0.73-0.28,1.111-0.28
	c1.225,0,1.819,0.782,2.063,1.248c0.246,0.467,0.554,1.403-0.14,2.413l-41.087,59.658c-15.09,21.917-15.189,50.311-0.255,72.333
	l4.622,6.827c-1.187,0.907-2.433,1.892-3.751,2.974L63.105,214.927z M460.784,176.971l-9.853,17.432
	c-4.637,8.205-14.413,11.772-23.245,8.479l-23.098-8.609l-1.124-9.835c-1.54-13.473-6.152-26.673-13.34-38.173
	c-2.195-3.512-6.822-4.58-10.335-2.385s-4.58,6.822-2.385,10.335c6.011,9.618,9.87,20.658,11.157,31.926l7.881,68.956
	c0.942,8.238-1.491,16.34-6.719,22.642l-19.222-19.222c-2.712-2.712-4.136-6.463-3.906-10.292l5.489-91.484
	c0.249-4.135-2.902-7.688-7.037-7.936c-4.135-0.245-7.688,2.903-7.936,7.037l-5.489,91.484c-0.487,8.108,2.528,16.053,8.272,21.796
	l15.865,15.865v7.307c0,15.086-5.418,29.694-15.255,41.131c-6.513,7.572-14.695,13.422-23.805,17.176
	c2.598-4.757,5.621-9.292,9.048-13.535l4.51-5.584c2.603-3.222,2.101-7.944-1.122-10.547c-3.222-2.603-7.944-2.102-10.547,1.122
	l-4.51,5.584c-11.74,14.535-19.446,31.978-22.287,50.443c-0.509,3.306,1.233,6.548,4.27,7.95l5.083,2.346
	c2.887,1.333,5.223,3.679,6.559,6.545H308.76c-2.875,0-5.371-1.948-6.068-4.738l-3.153-12.612
	c-4.691-18.765-6.418-38.066-5.131-57.369c0.275-4.133-2.852-7.707-6.985-7.982c-4.132-0.27-7.707,2.852-7.982,6.985
	c-0.776,11.636-0.535,23.272,0.706,34.807c-18.401-1.648-42.407-7.943-67.632-14.568c-35.184-9.24-71.337-18.733-100.662-18.27
	c0.629-0.997,1.244-2.004,1.828-3.038l7.28-12.905c2.035-3.608,0.76-8.182-2.847-10.217c-3.608-2.035-8.182-0.76-10.217,2.847
	l-7.28,12.905c-8.353,14.807-22.767,24.871-39.545,27.61l-19.473,3.179c-2.447,0.399-4.539,1.983-5.588,4.23l-14.123,30.262
	c-1.041,2.23-0.921,4.83,0.32,6.955c1.242,2.125,3.447,3.506,5.901,3.695c4.325,0.333,7.887,3.545,8.663,7.813
	c0.01,0.056,0.029,0.16-0.075,0.285c-0.104,0.125-0.21,0.125-0.268,0.125H24.726c-3.418,0-6.244-2.673-6.434-6.086L15.228,333.7
	l18.052-11.827c6.452-4.228,11.072-10.668,13.009-18.136l8.274-31.917c2.122-8.181,6.436-15.625,12.478-21.527
	c20.35-19.88,27.962-21.828,29.281-22.016c7.449-1.064,83.602-1.096,198.74-0.083c13.329,0.136,25.425-7.221,31.46-19.154
	l31.316-61.921c2.126-4.204,6.369-7.003,11.071-7.303l26.098-1.666c3.831-0.24,7.583,1.171,10.297,3.886l11.074,11.073l-2.631,1.754
	c-3.447,2.297-4.378,6.954-2.08,10.4c1.445,2.168,3.823,3.341,6.247,3.341c1.43,0,2.875-0.408,4.153-1.261l7.007-4.671
	l30.859,11.923c0.588,0.227,0.852,0.666,0.969,0.993C461.02,175.916,461.095,176.422,460.784,176.971z"/>
<g>
</g>
<g>
</g>
<g>
</g>
<g>
</g>
<g>
</g>
<g>
</g>
<g>
</g>
<g>
</g>
<g>
</g>
<g>
</g>
<g>
</g>
<g>
</g>
<g>
</g>
<g>
</g>
<g>
</g>
</svg>
