<?xml version="1.0" encoding="iso-8859-1"?>
<!-- Generator: Adobe Illustrator 18.0.0, SVG Export Plug-In . SVG Version: 6.00 Build 0)  -->
<!DOCTYPE svg PUBLIC "-//W3C//DTD SVG 1.1//EN" "http://www.w3.org/Graphics/SVG/1.1/DTD/svg11.dtd">
<svg version="1.1" id="Capa_1" xmlns="http://www.w3.org/2000/svg" xmlns:xlink="http://www.w3.org/1999/xlink" x="0px" y="0px"
	 viewBox="0 0 479.222 479.222" style="enable-background:new 0 0 479.222 479.222;" xml:space="preserve">
<path d="M476.55,121.376c-2.74-3.888-7.216-6.21-11.973-6.21h-25.021l-7.528-10.423c-7.496-10.379-19.615-16.575-32.417-16.575
	h-10.518c-11.631,0-22.661,5.049-30.264,13.851l-68.295,79.078c-3.757,4.35-8.924,7.396-14.549,8.575
	c-53.415,11.2-107.893,12.966-161.922,5.247c-3.195-0.457-5.583-3.13-5.679-6.356l-0.308-10.462
	c-0.49-16.673,5.057-32.965,15.62-45.875c15.588-19.052,22.051-43.878,17.734-68.112l-1.311-7.358
	c-0.467-2.618-2.285-4.794-4.779-5.718c-2.495-0.924-5.292-0.457-7.351,1.226c-1.737,1.42-42.666,35.303-52.096,80.882
	c-4.594,22.207-6.983,54.719,7.724,83.495c1.918,3.754,2,8.198,0.225,12.194c-8.875,19.97-14.52,41.082-16.794,62.794
	l-50.452,47.569c-1.08,1.019-1.834,2.335-2.166,3.782l-13.988,61.04c-1.114,4.862-0.102,9.987,2.777,14.061s7.373,6.738,12.329,7.31
	l27.832,3.211c0.291,0.033,0.58,0.05,0.866,0.05c3.4,0,6.428-2.312,7.27-5.681c3.357-13.428-1.968-27.307-13.292-35.05l6.066-18.199
	l56.027-24.012c10.285-4.408,19.732-10.422,28.079-17.874l26.738-23.874l29.085,12.756c31.129,13.653,64.79,18.323,98.152,13.731
	l2.82,31.956c1.436,16.263,5.237,32.194,11.3,47.35c3.133,7.834,10.61,12.896,19.047,12.896h28.687c4.142,0,7.5-3.358,7.5-7.5v-1.45
	c0-13.935-9.155-25.942-21.897-30.073l4.796-50.844c1.068-11.322,7.577-21.49,17.411-27.2l7.27-4.221
	c14.874-8.636,24.151-24.054,24.815-41.24l1.498-38.74l11.412,0.804c0.807,0.057,1.608,0.085,2.405,0.085
	c12.092,0,22.958-6.47,28.749-17.285c4.384-8.187,5.064-17.409,2.237-25.776l14.875-3.476c12.593-2.943,22.708-11.97,27.058-24.149
	l6.017-16.847C479.971,130.26,479.29,125.264,476.55,121.376z M369.131,259.544c-0.465,12.022-6.954,22.807-17.358,28.848
	l-7.27,4.221c-14.014,8.137-23.29,22.628-24.813,38.763l-5.431,57.573c-0.19,2.016,0.443,4.023,1.755,5.565
	c1.312,1.542,3.192,2.488,5.212,2.623c6.567,0.438,12.06,4.7,14.351,10.515h-20.04c-2.268,0-4.278-1.361-5.12-3.467
	c-5.518-13.795-8.979-28.296-10.285-43.098l-6.934-78.588c-0.365-4.127-4.009-7.174-8.13-6.812c-4.126,0.364-7.176,4.004-6.812,8.13
	l2.794,31.665c-30.857,4.379-62.012,0.128-90.806-12.501l-33.498-14.692c-2.69-1.179-5.818-0.681-8.008,1.274l-30.333,27.083
	c-7.133,6.369-15.208,11.509-23.998,15.276L35.286,357.26c-1.969,0.844-3.483,2.49-4.161,4.522l-9,26.999
	c-1.102,3.305,0.218,6.933,3.185,8.759l3.698,2.276c4.736,2.914,7.72,7.727,8.364,12.993l-20.104-2.32
	c-0.99-0.115-1.552-0.718-1.799-1.067c-0.247-0.349-0.628-1.08-0.405-2.052l13.479-58.82l50.84-47.935
	c1.332-1.256,2.158-2.955,2.324-4.778c1.917-21.077,7.246-41.57,15.841-60.91c3.624-8.153,3.414-17.306-0.575-25.112
	c-12.723-24.893-10.498-53.78-6.392-73.63c5.636-27.239,24.913-50.553,36.929-62.896c1.45,17.78-4.013,35.49-15.424,49.438
	c-12.851,15.707-19.6,35.529-19.003,55.814l0.308,10.462c0.31,10.54,8.112,19.273,18.551,20.764
	c55.762,7.966,111.991,6.144,167.121-5.416c8.824-1.85,16.93-6.627,22.823-13.451l68.295-79.078c4.75-5.5,11.644-8.655,18.911-8.655
	h10.518c8,0,15.573,3.872,20.257,10.358l3.044,4.215l-9.761,2.092c-4.05,0.868-6.63,4.855-5.762,8.905
	c0.754,3.521,3.865,5.93,7.326,5.93c0.521,0,1.049-0.054,1.579-0.168l9.073-1.944c-2.127,10.744-2.495,21.813-1.084,32.688l-2,0.467
	l-30.145-39.011c-3.468-4.489-9.099-6.679-14.686-5.717c-5.591,0.963-10.161,4.909-11.929,10.3l-15.68,47.825
	c-3.083,9.402-1.685,19.505,3.835,27.717c4.131,6.146,10.115,10.552,17.002,12.673L369.131,259.544z M414.961,197.907
	c-3.395,6.339-9.7,9.82-16.877,9.317l-19.135-1.348c-5.227-0.368-9.9-3.073-12.823-7.421c-2.923-4.348-3.663-9.697-2.03-14.675
	l15.68-47.825c0.034-0.104,0.053-0.161,0.22-0.19c0.033-0.006,0.061-0.008,0.085-0.008c0.098,0,0.132,0.044,0.186,0.114
	l33.092,42.825C417.757,184.386,418.355,191.568,414.961,197.907z M458.228,146.542c-2.628,7.357-8.738,12.811-16.345,14.588
	l-2.918,0.682c-1.183-10.583-0.389-21.351,2.338-31.646h22.772L458.228,146.542z"/>
<g>
</g>
<g>
</g>
<g>
</g>
<g>
</g>
<g>
</g>
<g>
</g>
<g>
</g>
<g>
</g>
<g>
</g>
<g>
</g>
<g>
</g>
<g>
</g>
<g>
</g>
<g>
</g>
<g>
</g>
</svg>
