<?xml version="1.0" encoding="iso-8859-1"?>
<!-- Generator: Adobe Illustrator 18.0.0, SVG Export Plug-In . SVG Version: 6.00 Build 0)  -->
<!DOCTYPE svg PUBLIC "-//W3C//DTD SVG 1.1//EN" "http://www.w3.org/Graphics/SVG/1.1/DTD/svg11.dtd">
<svg version="1.1" id="Capa_1" xmlns="http://www.w3.org/2000/svg" xmlns:xlink="http://www.w3.org/1999/xlink" x="0px" y="0px"
	 viewBox="0 0 481.281 481.281" style="enable-background:new 0 0 481.281 481.281;" xml:space="preserve">
<g>
	<path d="M387.645,116.969l5.509-54.286c0.418-4.121-2.583-7.801-6.704-8.219c-4.124-0.416-7.801,2.584-8.219,6.705l-5.067,49.924
		c-0.372-0.017-0.747-0.028-1.123-0.028c-1.691,0-3.34,0.182-4.931,0.521l-6.679-33.605c-0.807-4.063-4.76-6.704-8.818-5.894
		c-4.063,0.807-6.702,4.755-5.894,8.818l7.783,39.16c-3.188,4.029-5.098,9.112-5.098,14.637c0,13.033,10.604,23.637,23.637,23.637
		s23.636-10.604,23.636-23.637C395.677,127.644,392.565,121.304,387.645,116.969z M372.041,143.337
		c-4.762,0-8.637-3.875-8.637-8.637s3.875-8.636,8.637-8.636s8.636,3.874,8.636,8.636S376.803,143.337,372.041,143.337z"/>
	<path d="M412.619,69.555c-1.97,0-3.9,0.8-5.3,2.2c-1.4,1.39-2.2,3.33-2.2,5.3c0,1.97,0.8,3.91,2.2,5.3c1.4,1.4,3.33,2.2,5.3,2.2
		c1.98,0,3.91-0.8,5.31-2.2c1.39-1.39,2.19-3.33,2.19-5.3c0-1.97-0.8-3.91-2.19-5.3C416.529,70.355,414.599,69.555,412.619,69.555z"
		/>
	<path d="M477.915,82.377c-12.427-18.163-29.821-32.017-50.303-40.066c-20.481-8.05-42.654-9.744-64.122-4.902
		c-13.233,2.985-24.581,10.9-31.954,22.288c-7.365,11.376-9.956,24.968-7.295,38.273c6.09,30.443,6.828,47.298,5.93,56.598
		c-11.78,1.075-43.069,2.146-88.473-9.522c-43.989-11.305-89.411-5.939-128.008,15.093c-3.609,1.112-18.539,6.041-34.924,16.155
		c-24.914,15.379-41.231,35.512-47.187,58.221c-6.654,25.368-15.207,40.817-21.655,49.654c-1.944,2.664-3.697,4.728-5.15,6.28
		c-2.368,2.532-2.726,6.338-0.837,9.246c2.649,4.078,8.418,4.616,11.753,1.077c2.091-2.219,4.528-5.112,7.15-8.806
		c9.66-13.612,17.482-31.661,23.248-53.646c3.458-13.186,10.834-24.045,19.609-32.844c-2.925,5.881-4.917,11.929-5.901,18.075
		c-0.008,0.052-0.016,0.104-0.023,0.155c-5.645,40.719-13.711,86.735-17.439,93.259c-2.221,3.886-11.837,13.165-32.167,27.549
		c-6.718,4.753-10.51,12.505-10.143,20.738c0.651,14.583,2.003,41.677,3.751,59.28c1.14,11.481,10.273,20.6,21.719,21.682
		c1.675,0.158,3.328,0.271,4.914,0.338c0.305,0.013,0.609,0.019,0.913,0.019c5.818,0,11.447-2.32,15.562-6.445
		c4.311-4.321,6.629-10.297,6.36-16.397l-0.889-20.149c-0.529-12.001,4.918-23.434,14.573-30.582l43.064-31.884
		c17.747-13.14,29.519-32.371,33.149-54.151l2.032-12.189c1.829-10.971,9.458-20.148,19.91-23.949
		c11.514-4.188,24.42-1.17,32.879,7.686c6.027,6.311,22.432,22.428,44.534,35.765c19.116,11.536,37.333,17.994,54.27,19.253
		c2.629,38.082,11.89,81.704,18.237,108.239c3.271,13.676,15.379,23.228,29.443,23.228h25.131c4.502,0,8.651-2.256,11.099-6.035
		c2.447-3.779,2.809-8.488,0.967-12.596c-4.748-10.591-13.215-19.158-23.64-24.081c-1.047-16.452-2.872-75.322,20.631-115.548
		c21.3-36.456,23.574-75.892,24.933-99.454c0.227-3.938,0.423-7.339,0.675-10.301c2.13-25.034,13.638-35.531,20.307-39.561
		c1.3-0.785,2.819-1.247,4.394-1.334c19.149-1.063,36.543-11.475,46.528-27.85l2.993-4.909
		C482.411,96.856,482.195,88.632,477.915,82.377z M465.657,95.518l-2.993,4.909c-7.415,12.16-20.332,19.892-34.553,20.682
		c-4.014,0.223-7.928,1.423-11.318,3.472c-9.113,5.505-24.803,19.467-27.498,51.127c-0.269,3.166-0.48,6.83-0.704,10.71
		c-1.364,23.655-3.425,59.403-22.909,92.75c-29.863,51.112-22.588,125.898-22.264,129.057c0.297,2.892,2.239,5.353,4.983,6.313
		c7.785,2.724,14.326,8.282,18.3,15.457h-22.257c-7.096,0-13.205-4.818-14.854-11.717c-6.633-27.73-21.661-96.75-17.963-138.65
		c0.364-4.126-2.686-7.766-6.812-8.13c-4.123-0.355-7.766,2.686-8.13,6.812c-0.552,6.255-0.728,13.008-0.599,20.094
		c-31.927-3.253-66.384-28.379-87.277-50.253c-12.57-13.161-31.746-17.645-48.853-11.422c-15.529,5.646-26.863,19.28-29.58,35.579
		l-2.032,12.189c-2.987,17.923-12.675,33.749-27.279,44.562l-43.064,31.884c-13.669,10.12-21.383,26.307-20.633,43.299l0.889,20.149
		c0.085,1.942-0.623,3.768-1.994,5.142c-1.391,1.394-3.251,2.119-5.23,2.033c-1.326-0.055-2.716-0.151-4.129-0.284
		c-4.319-0.409-7.769-3.87-8.202-8.231c-1.713-17.25-3.049-44.035-3.692-58.467c-0.139-3.108,1.29-6.034,3.821-7.824
		c20.096-14.219,32.386-25.104,36.527-32.352c7.023-12.292,17.25-84.059,19.262-98.561c3.098-19.153,19.277-37.679,45.567-52.173
		c35.396-19.514,77.225-24.521,117.777-14.099c61.432,15.788,98.514,9.41,100.063,9.132c2.958-0.533,5.311-2.78,5.98-5.709
		c3.021-13.217,1.319-36.084-5.059-67.969c-3.939-19.694,8.289-38.576,27.84-42.986c18.523-4.18,37.66-2.716,55.335,4.23
		c17.675,6.946,32.686,18.902,43.41,34.576C466.489,92.242,466.537,94.075,465.657,95.518z"/>
</g>
<g>
</g>
<g>
</g>
<g>
</g>
<g>
</g>
<g>
</g>
<g>
</g>
<g>
</g>
<g>
</g>
<g>
</g>
<g>
</g>
<g>
</g>
<g>
</g>
<g>
</g>
<g>
</g>
<g>
</g>
</svg>
