<?xml version="1.0" encoding="iso-8859-1"?>
<!-- Generator: Adobe Illustrator 18.0.0, SVG Export Plug-In . SVG Version: 6.00 Build 0)  -->
<!DOCTYPE svg PUBLIC "-//W3C//DTD SVG 1.1//EN" "http://www.w3.org/Graphics/SVG/1.1/DTD/svg11.dtd">
<svg version="1.1" id="Capa_1" xmlns="http://www.w3.org/2000/svg" xmlns:xlink="http://www.w3.org/1999/xlink" x="0px" y="0px"
	 viewBox="0 0 471.726 471.726" style="enable-background:new 0 0 471.726 471.726;" xml:space="preserve">
<path d="M470.75,99.522c-1.454-3.763-4.432-6.783-8.183-8.29l-24.709-9.878l-2.399-7.199c-4.921-14.765-18.138-24.929-33.664-25.894
	l-16.057-1.011c-9.662-0.587-19.079,3.973-24.573,11.931l-29.241,42.291c-13.112,18.969-33.664,31.986-56.386,35.714
	c-24.769,4.069-62.257,7.285-100.185-0.506c-26.179-5.378-49.885-0.718-70.458,13.855c-1.077,0.763-2.127,1.55-3.163,2.349
	c-31.07,17.632-54.494,45.94-65.988,79.782L0.823,335.484c-2.545,7.495,0.985,15.626,8.211,18.916
	c4.813,2.19,12.433,4.768,21.635,4.768c4.183,0,8.694-0.536,13.415-1.88l6.97,38.353c1.253,6.881,5.288,13.083,11.027,16.988
	l0.586,0.405c5.472,3.729,11.448,6.609,17.773,8.563c6.333,1.944,12.892,2.93,19.491,2.93c5.046,0,9.585-2.999,11.563-7.64
	c1.979-4.642,1-9.993-2.498-13.638l-15.687-16.314c-1.936-5.543-8.374-28.604,12.031-43.907
	c16.72-12.54,32.889-30.273,44.362-48.654c5.73-9.179,10.241-18.443,13.523-27.64l9.119,5.911
	c28.738,18.626,62.417,28.483,96.483,28.483c2.587,0,5.177-0.07,7.768-0.185l-0.617,2.29c-1.939,7.205-1.729,14.758,0.61,21.844
	l26.704,80.897c3.663,11.097,13.976,18.553,25.662,18.553h28.112c3.743,0,7.192-1.706,9.463-4.68
	c2.272-2.974,3.01-6.751,2.026-10.363c-2.021-7.41-6.682-13.794-13.124-17.977l-9.434-6.125l13.395-85.726
	c25.791-13.394,45.382-36.707,54.055-64.539l4.4-14.118c7.757-24.875,7.587-51.121-0.489-75.897l-0.265-0.813l4.959-0.115
	c20.072-0.468,37.987-11.976,46.749-30.026l1.464-3.008C472.028,107.517,472.202,103.283,470.75,99.522z M15.248,340.748
	c-0.187-0.085-0.28-0.27-0.222-0.439L49.946,237.49c2.837-8.352,6.5-16.317,10.877-23.822c-1.243,4.073-2.038,7.605-2.411,10.346
	c-1.583,11.61,2.839,20.65,6.741,28.626c4.749,9.707,8.851,18.09,3.678,31.728c-9.012,23.759-20.893,49.197-24.589,56.985
	C32.481,346.338,22.071,343.853,15.248,340.748z M455.316,107.591c-6.301,12.979-19.178,21.251-33.607,21.587l-20.696-0.105
	c5.838-7.913,8.823-17.737,8.185-27.738l-1.87-29.287c-0.264-4.134-3.825-7.273-7.963-7.007c-4.133,0.264-7.271,3.829-7.007,7.963
	l1.87,29.286c0.555,8.692-3.131,17.182-9.859,22.712l-9.538,7.838l2.491-33.778c0.305-4.131-2.797-7.727-6.928-8.031
	c-4.14-0.317-7.727,2.797-8.031,6.928l-2.809,38.086c-0.004,0.05-0.007,0.101-0.01,0.151c-0.279,5.224,2.557,10.125,7.226,12.485
	c1.884,0.952,3.923,1.419,5.953,1.419c2.999,0,5.975-1.021,8.385-3.002l4.536-3.729l15.616,0.73l1.842,5.65
	c7.107,21.802,7.256,44.895,0.431,66.784l-4.4,14.12c-6.328,20.305-19.39,37.825-36.725,49.74l2.845-18.21
	c0.639-4.092-2.16-7.928-6.252-8.568c-4.087-0.637-7.928,2.16-8.568,6.252l-20,128c-0.457,2.921,0.846,5.838,3.326,7.448
	l13.509,8.771c2.149,1.395,3.917,3.262,5.185,5.438h-23.494c-5.2,0-9.788-3.317-11.418-8.255l-26.704-80.897
	c-1.418-4.296-1.546-8.875-0.37-13.244l11.619-43.155c1.077-4-1.292-8.115-5.292-9.192c-3.997-1.077-8.115,1.292-9.192,5.292
	l-6.893,25.602c-35.162,2.6-70.558-6.41-100.202-25.623l-13.003-8.428c1.944-9.298,2.578-18.438,1.812-27.252
	c-0.358-4.126-3.985-7.181-8.122-6.822c-4.126,0.359-7.181,3.995-6.822,8.122c3.468,39.88-27.649,82.566-58.028,105.35
	c-25.864,19.398-22.04,49.646-16.404,62.929c0.357,0.841,0.865,1.61,1.498,2.269l12.445,12.943c-3.053-0.363-6.073-1-9.026-1.908
	c-4.882-1.507-9.504-3.735-13.702-6.596l-0.592-0.408c-2.48-1.688-4.212-4.35-4.749-7.3l-8.157-44.884
	c3.641-7.666,15.899-33.866,25.2-58.386c7.477-19.711,0.986-32.979-4.229-43.639c-3.531-7.217-6.319-12.917-5.353-20.008
	c1.642-12.042,14.067-44.689,40.291-63.265c17.047-12.076,36.82-15.913,58.769-11.402c40.172,8.251,79.619,4.888,105.634,0.614
	c26.716-4.383,50.88-19.687,66.294-41.986l29.243-42.293c2.528-3.659,6.865-5.759,11.297-5.486l16.056,1.01
	c9.396,0.583,17.392,6.733,20.37,15.666l1.443,4.33l-1.182,0.591c-3.705,1.852-5.207,6.357-3.354,10.062
	c1.314,2.628,3.962,4.147,6.714,4.147c1.127,0,2.271-0.255,3.348-0.793l3.988-1.994l24.395,9.753L455.316,107.591z"/>
<g>
</g>
<g>
</g>
<g>
</g>
<g>
</g>
<g>
</g>
<g>
</g>
<g>
</g>
<g>
</g>
<g>
</g>
<g>
</g>
<g>
</g>
<g>
</g>
<g>
</g>
<g>
</g>
<g>
</g>
</svg>
