<?xml version="1.0" encoding="iso-8859-1"?>
<!-- Generator: Adobe Illustrator 18.0.0, SVG Export Plug-In . SVG Version: 6.00 Build 0)  -->
<!DOCTYPE svg PUBLIC "-//W3C//DTD SVG 1.1//EN" "http://www.w3.org/Graphics/SVG/1.1/DTD/svg11.dtd">
<svg version="1.1" id="Capa_1" xmlns="http://www.w3.org/2000/svg" xmlns:xlink="http://www.w3.org/1999/xlink" x="0px" y="0px"
	 viewBox="0 0 474.969 474.969" style="enable-background:new 0 0 474.969 474.969;" xml:space="preserve">
<path d="M471.326,122.867c-2.948-3.689-7.344-5.959-12.059-6.229l-20.175-1.153l-1.83-8.784
	c-1.989-9.549-10.804-16.24-20.558-15.552l-26.258,1.843c-16.471,1.155-30.274,12.091-35.168,27.859l-11.183,36.033
	c-6.783,3.893-28.244,14.987-52.475,14.987c-11.173,0-26.656-3.912-43.049-8.053c-28.607-7.227-61.031-15.418-86.184-7.033
	c-9.015,3.005-17.259,6.713-24.631,10.969l-23.864,9.576c-34.979,14.035-74.423,5.513-100.488-21.71
	c-2.038-2.127-5.133-2.865-7.909-1.887c-2.778,0.979-4.726,3.493-4.98,6.427c-0.48,5.544-4.071,54.635,17.439,70.614
	c9.642,7.162,20.875,10.759,33.271,10.758c9.393,0,19.455-2.066,29.99-6.211c6.406-2.52,12.169-5.487,16.942-8.264
	c0.082,1.316,0.199,2.634,0.394,3.953c2.462,16.623,6,33.566,8.535,44.853c1.534,6.831,1.043,13.912-1.419,20.478
	c-3.572,9.525-4.215,19.792-1.858,29.689l10.672,44.821c1.825,7.665,8.602,13.018,16.481,13.018h17.18
	c4.648,0,8.835-2.578,10.929-6.728s1.677-9.049-1.085-12.788L147.9,350.708l3.362-21.52c0.632-4.047,2.416-7.796,5.156-10.841
	l17.345-19.271c4.39-4.878,8.072-10.366,10.957-16.244c5.377-2.639,21.33-9.276,36.16-3.626c5.347,2.037,12.624,5.471,21.05,9.447
	c23.264,10.979,51.604,24.348,72.848,24.915l5.672,32.362c1.45,8.277,4.378,16.128,8.704,23.338l0.971,1.618
	c4.805,8.007,13.59,12.982,22.929,12.982h19.469c4.748,0,8.976-2.658,11.032-6.938s1.492-9.241-1.474-12.949l-12.328-15.408
	l8.639-46.895l0.458-0.259c0.083-0.047,0.164-0.095,0.245-0.145c27.222-16.752,44.96-45.777,47.453-77.683l3.059-41.963
	c0.254-0.043,0.508-0.08,0.762-0.127l10.244-1.906c16.583-3.084,29.586-16.335,32.359-32.972l1.77-10.624
	C475.52,131.343,474.274,126.556,471.326,122.867z M26.9,218.732c-8.324-6.184-11.434-25.039-11.857-41.591
	c12.385,9.438,26.696,16.051,42.114,19.382c16.673,3.602,33.748,3.161,50.05-1.198c-2.503,3.825-4.505,7.781-6.003,11.821
	C93.189,213.099,54.73,239.407,26.9,218.732z M382.32,280.355l1.252-6.799c0.75-4.074-1.943-7.984-6.018-8.735
	c-4.067-0.75-7.984,1.943-8.734,6.017l-14.44,78.386c-0.395,2.14,0.16,4.345,1.52,6.044l10.88,13.599h-13.727
	c-4.1,0-7.957-2.184-10.067-5.701l-0.971-1.618c-3.374-5.624-5.659-11.75-6.79-18.208L319.637,254.4
	c-0.715-4.08-4.607-6.81-8.683-6.092c-4.08,0.715-6.808,4.602-6.093,8.682l7.26,41.423c-17.889-1.664-43.985-13.979-63.79-23.325
	c-8.706-4.108-16.225-7.657-22.112-9.899c-12.826-4.885-25.764-3.338-35.406-0.631c0.405-2.137,0.723-4.292,0.927-6.46l3.176-33.671
	c0.389-4.124-2.639-7.782-6.762-8.171c-4.127-0.391-7.783,2.639-8.171,6.763l-3.176,33.671
	c-1.127,11.945-6.168,23.435-14.194,32.353l-17.345,19.271c-4.692,5.213-7.744,11.631-8.827,18.56l-3.846,24.615
	c-0.31,1.981,0.187,4.003,1.379,5.616l8.695,11.764h-11.708c-0.903,0-1.68-0.614-1.89-1.493l-10.672-44.821
	c-1.662-6.983-1.209-14.227,1.312-20.948c3.49-9.306,4.185-19.345,2.01-29.031c-2.479-11.04-5.938-27.595-8.333-43.764
	c-3.368-22.731,18.229-45.958,53.742-57.795c20.991-6.998,51.154,0.623,77.767,7.346c17.323,4.376,33.685,8.51,46.723,8.51
	c33.819,0,61.723-17.991,62.895-18.756c1.46-0.955,2.541-2.388,3.059-4.054l0.557-1.793l0.8,3.364
	c0.916,3.854,3.4,7.217,6.815,9.226c2.261,1.33,4.842,2.014,7.435,2.014c1.324,0,2.652-0.179,3.941-0.542l13.565-3.815l12.982,5.811
	c3.513,1.572,7.17,2.672,10.897,3.306l-2.977,40.832C409.834,244.955,399.139,265.776,382.32,280.355z M459.947,133.535
	l-1.771,10.625c-1.739,10.44-9.899,18.755-20.306,20.69l-10.245,1.906c-6.051,1.125-12.214,0.392-17.827-2.122l-2.943-1.317
	c1.051-1.968,1.665-4.195,1.724-6.551l0.899-35.997c0.104-4.141-3.17-7.582-7.311-7.685c-4.169-0.098-7.582,3.169-7.686,7.31
	l-0.893,35.722l-20.155,5.669l-6.573-27.65l2.743-8.839c3.046-9.815,11.639-16.623,21.892-17.342l26.259-1.843
	c2.279-0.162,4.355,1.408,4.822,3.649l1.287,6.176l-2.965,0.27c-4.125,0.375-7.165,4.023-6.79,8.148
	c0.354,3.895,3.624,6.822,7.46,6.822c0.228,0,0.457-0.01,0.688-0.031l10.793-0.981l25.362,1.449
	c0.608,0.035,0.986,0.355,1.197,0.618C459.818,132.495,460.047,132.934,459.947,133.535z"/>
<g>
</g>
<g>
</g>
<g>
</g>
<g>
</g>
<g>
</g>
<g>
</g>
<g>
</g>
<g>
</g>
<g>
</g>
<g>
</g>
<g>
</g>
<g>
</g>
<g>
</g>
<g>
</g>
<g>
</g>
</svg>
