<?xml version="1.0" encoding="iso-8859-1"?>
<!-- Generator: Adobe Illustrator 18.0.0, SVG Export Plug-In . SVG Version: 6.00 Build 0)  -->
<!DOCTYPE svg PUBLIC "-//W3C//DTD SVG 1.1//EN" "http://www.w3.org/Graphics/SVG/1.1/DTD/svg11.dtd">
<svg version="1.1" id="Capa_1" xmlns="http://www.w3.org/2000/svg" xmlns:xlink="http://www.w3.org/1999/xlink" x="0px" y="0px"
	 viewBox="0 0 473.357 473.357" style="enable-background:new 0 0 473.357 473.357;" xml:space="preserve">
<path d="M460.715,103.672l-16.506-2.001c18.903-9.968,28.546-31.852,22.623-52.855c-5.508-19.524-22.835-32.915-43.116-33.32
	l-33.957-0.679c-27.58-0.547-54.453,8.791-75.735,26.304c-21.282,17.514-35.626,42.109-40.389,69.257l-2.686,15.308
	c-4.357,24.832-21.831,44.427-44.206,52.634c-13.583-24.383-36.596-41.739-64.063-48.042l-7.533-1.729
	c-29.788-6.837-61.375,1.018-84.491,21.011c-16.192,14.005-20.208,37.645-9.547,56.211l7.002,12.194
	c-6.087,11.343-9.378,24.131-9.378,37.317v31.397c0,20.411-10.922,39.531-28.503,49.899c-19.823,11.691-31.373,33.229-30.142,56.21
	l0.508,9.483c1.561,29.135,24.672,52.837,53.756,55.133l1.494,0.118c0.922,0.073,1.841,0.109,2.756,0.109
	c9.479,0,18.489-3.87,25.056-10.847c32.176-34.187,58.692-72.407,79.202-114.067c15.088,3.674,55.594,12.495,96.691,12.495
	c7.506,0,15.03-0.318,22.426-0.993c-4.105,28.608-4.177,57.845-0.104,86.351c2.28,15.958,16.155,27.993,32.276,27.993h23.794
	c19.258,0,35.146-15.064,36.173-34.295l4.543-85.184c14.135-9.696,25.176-23.046,32.064-38.823
	c7.424-17.004,9.492-35.612,5.979-53.811c-6.502-33.697-8.894-51.386-9.592-60.674c11.017-0.148,22.13-1.879,33.025-5.307
	c19.87-6.254,33.221-24.452,33.221-45.283v-17.25C473.357,110.678,467.922,104.545,460.715,103.672z M74.118,198.299
	c-7.092-12.352-4.421-28.079,6.352-37.396c19.514-16.877,46.175-23.508,71.323-17.736l7.533,1.729
	c21.901,5.026,40.467,18.337,52.181,37.099c-5.029,0.614-10.189,0.69-15.415,0.14l-46.815-4.928
	c-22.703-3.376-45.688,3.267-63.09,18.239c-3.143,2.704-6.04,5.632-8.685,8.745L74.118,198.299z M458.357,135.187
	c0,14.249-9.132,26.697-22.724,30.975c-27.632,8.697-56.89,4.938-80.901-9.523c5.475-1.93,10.299-5.373,13.984-10.075
	c5.247-6.697,7.474-15.024,6.271-23.446l-4.289-30.023c-0.586-4.102-4.394-6.952-8.485-6.364c-4.101,0.586-6.95,4.385-6.364,8.485
	l4.289,30.024c0.62,4.337-0.526,8.625-3.229,12.073s-6.591,5.588-10.95,6.023c-8.449,0.855-16.058-5.067-17.329-13.459
	l-4.409-29.101c-0.62-4.096-4.457-6.915-8.538-6.292c-4.096,0.621-6.913,4.444-6.292,8.539l4.409,29.101
	c1.028,6.784,4.192,12.729,8.714,17.245c0.579,0.838,1.127,1.544,1.585,2.012c18.623,19.028,42.612,30.554,67.927,33.597
	c0.744,12.326,4.081,33.908,9.949,64.315c5.937,30.759-7.959,62.604-34.577,79.241c-2.073,1.295-3.385,3.52-3.515,5.96
	l-4.745,88.975c-0.602,11.268-9.911,20.094-21.194,20.094H314.15c-8.704,0-16.196-6.498-17.427-15.114
	c-5.938-41.565-2.615-84.768,9.61-124.938l2.512-8.255c1.206-3.963-1.029-8.153-4.991-9.358c-3.966-1.204-8.154,1.029-9.358,4.992
	l-2.512,8.255c-2.99,9.822-5.466,19.818-7.439,29.924c-0.23-0.078-0.469-0.11-0.719-0.083c-43.47,4.697-94.395-5.512-114.406-10.152
	c5.03-11.122,9.648-22.474,13.839-34.05c1.41-3.895-0.604-8.195-4.499-9.605c-3.896-1.409-8.195,0.604-9.605,4.499
	c-21.233,58.645-53.674,111.408-96.42,156.827c-4.067,4.321-9.792,6.529-15.707,6.065l-1.494-0.118
	c-21.621-1.707-38.8-19.326-39.96-40.983l-0.508-9.483c-0.931-17.371,7.799-33.65,22.784-42.487
	c22.133-13.053,35.883-37.124,35.883-62.82V255.28c0-18.641,8.104-36.305,22.235-48.462c14.131-12.159,32.806-17.537,51.239-14.753
	c0.111,0.017,0.222,0.031,0.334,0.043l46.979,4.945c43.573,4.583,83.631-25.625,91.202-68.776l2.686-15.308
	c4.146-23.623,16.627-45.026,35.146-60.266c18.52-15.24,41.97-23.356,65.903-22.889l33.958,0.679
	c13.632,0.272,25.277,9.272,28.979,22.395c4.281,15.178-3.532,31.041-18.174,36.897l-20.922,8.369h-9.284
	c-4.143,0-7.5,3.358-7.5,7.5s3.357,7.5,7.5,7.5h10.276l44.065,5.342V135.187z"/>
<g>
</g>
<g>
</g>
<g>
</g>
<g>
</g>
<g>
</g>
<g>
</g>
<g>
</g>
<g>
</g>
<g>
</g>
<g>
</g>
<g>
</g>
<g>
</g>
<g>
</g>
<g>
</g>
<g>
</g>
</svg>
