<?xml version="1.0" encoding="iso-8859-1"?>
<!-- Generator: Adobe Illustrator 18.0.0, SVG Export Plug-In . SVG Version: 6.00 Build 0)  -->
<!DOCTYPE svg PUBLIC "-//W3C//DTD SVG 1.1//EN" "http://www.w3.org/Graphics/SVG/1.1/DTD/svg11.dtd">
<svg version="1.1" id="Capa_1" xmlns="http://www.w3.org/2000/svg" xmlns:xlink="http://www.w3.org/1999/xlink" x="0px" y="0px"
	 viewBox="0 0 481.903 481.903" style="enable-background:new 0 0 481.903 481.903;" xml:space="preserve">
<path d="M480.418,79.336c-1.193-1.603-2.977-2.663-4.955-2.946l-13.949-1.993c1.013-8.628-2.442-17.208-9.261-22.726l-10.725-8.682
	c-17.1-13.844-40.794-14.802-58.958-2.391L367.393,50.97c-14.638,10.002-26.912,23.487-35.497,38.996l-18.184,32.846l-175.801,50.36
	c-6.741,1.931-13.007,5.022-18.571,9.069l-27.58,17.063c-12.419,7.684-16.857,23.326-10.322,36.386l3.837,7.669
	c-2.22,10.942-2.961,22.215-2.148,33.6c1.302,18.232-7.612,35.423-23.264,44.864L24.24,343.311c-1.664,1.003-2.873,2.613-3.373,4.49
	L0.253,425.102c-0.555,2.081-0.188,4.301,1.006,6.093l10.307,15.46c1.391,2.086,3.732,3.34,6.24,3.34h27.829
	c2.513,0,4.858-1.258,6.248-3.351c1.39-2.093,1.639-4.743,0.664-7.059l-8.246-19.583c-0.516-1.226-1.349-2.292-2.412-3.09
	l-3.953-2.965l11.619-35.689l3.485-1.221c51.251-17.964,92.474-56.221,114.498-104.993c0.026-0.053,0.455-1.047,0.65-1.488
	c0.007-0.013,0.009-0.02,0.016-0.033v0c0.035-0.067,0.068-0.135,0.101-0.204c6.21-11.515,23.57-10.155,30.771-9.03
	c25.389,3.959,81.75,17.521,105.321,23.298c1.253,24.799-0.86,57.576-10.464,99.547c-0.317,1.387-0.234,2.835,0.241,4.177
	l17.521,49.473c1.064,3.007,3.906,4.996,7.066,4.996c0.139,0,0.279-0.004,0.419-0.011l37.105-2.061
	c2.3-0.128,4.412-1.305,5.731-3.192s1.698-4.277,1.027-6.48l-7.215-23.706c-1.015-3.336-4.204-5.531-7.674-5.3l-8.122,0.542
	c-0.304-5.247-0.518-13.312-0.02-23.658c0.85-17.658,4.002-45.772,14.2-79.428c1.834-6.052,5.064-11.803,9.34-16.631
	c11.438-12.915,27.18-31.809,38.371-45.385c11.868-14.396,15.043-34.151,8.282-51.566c-1.896-4.867-2.858-9.992-2.858-15.231
	c0-11.779,4.986-23.094,13.682-31.045l7.745-7.084h12.047c19.614,0,35.962-14.079,38.872-33.476l2.121-14.139
	C482.117,82.951,481.612,80.939,480.418,79.336z M406.014,47.238c4.167,10.418,2.363,30.992-1.537,43.97
	c-6.105-9.652-12.022-24.62-15.886-36.555l2.443-1.669C395.65,49.828,400.781,47.928,406.014,47.238z M464.865,96.841
	c-1.8,11.995-11.909,20.701-24.038,20.701h-41.664c-4.143,0-7.5,3.358-7.5,7.5c0,4.142,3.357,7.5,7.5,7.5h7.814
	c-9.347,10.417-14.623,24.025-14.623,38.129c0,7.111,1.306,14.068,3.879,20.669c4.796,12.354,2.544,26.373-5.877,36.587
	c-11.114,13.483-26.733,32.231-38.025,44.981c-5.699,6.434-10.01,14.119-12.467,22.226
	c-20.553,67.832-14.366,114.496-14.093,116.449c0.545,3.893,4.005,6.705,7.927,6.444l9.521-0.635l2.699,8.868l-21.954,1.22
	l-14.922-42.131c27.378-121.93-6.423-170.911-7.884-172.947c-2.415-3.366-7.099-4.136-10.466-1.722
	c-3.365,2.415-4.137,7.1-1.722,10.466c0.179,0.25,10.076,14.614,14.091,47.671c-28.201-6.879-77.554-18.589-101.668-22.349
	c-9.234-1.442-17.463-1.215-24.587,0.659c0.253-0.849,0.52-1.692,0.762-2.546c1.126-3.986-1.191-8.13-5.178-9.257
	c-3.983-1.128-8.13,1.191-9.257,5.178c-16.116,57.028-59.126,102.777-115.051,122.38l-6.987,2.449
	c-2.207,0.773-3.927,2.532-4.651,4.756l-14.43,44.32c-0.994,3.051,0.064,6.396,2.631,8.322l6.621,4.966l3.075,7.301h-12.52
	l-6.201-9.302l18.96-71.102l33.031-19.923c20.506-12.369,32.185-34.891,30.479-58.777c-1.662-23.265,4.012-46.005,16.408-65.761
	l2.171-3.459c5.825-9.284,14.836-16.06,25.374-19.078l178.791-51.216c1.914-0.548,3.532-1.835,4.496-3.577l19.689-35.567
	c7.43-13.422,18.042-25.096,30.693-33.775c5.02,14.743,14.449,38.293,26.005,47.457c1.333,1.057,2.978,1.624,4.66,1.624
	c0.328,0,0.657-0.021,0.985-0.065c2.016-0.267,3.837-1.341,5.045-2.976c8.065-10.907,13.797-40.269,9.622-60.522
	c3.564,1.287,6.969,3.172,10.062,5.675l10.725,8.682c2.984,2.416,4.398,6.26,3.69,10.035l-1.12,5.976
	c-0.376,2.01,0.084,4.088,1.276,5.75c1.191,1.663,3.01,2.766,5.035,3.056l14.168,2.024L464.865,96.841z"/>
<g>
</g>
<g>
</g>
<g>
</g>
<g>
</g>
<g>
</g>
<g>
</g>
<g>
</g>
<g>
</g>
<g>
</g>
<g>
</g>
<g>
</g>
<g>
</g>
<g>
</g>
<g>
</g>
<g>
</g>
</svg>
