<?xml version="1.0" encoding="iso-8859-1"?>
<!-- Generator: Adobe Illustrator 18.0.0, SVG Export Plug-In . SVG Version: 6.00 Build 0)  -->
<!DOCTYPE svg PUBLIC "-//W3C//DTD SVG 1.1//EN" "http://www.w3.org/Graphics/SVG/1.1/DTD/svg11.dtd">
<svg version="1.1" id="Capa_1" xmlns="http://www.w3.org/2000/svg" xmlns:xlink="http://www.w3.org/1999/xlink" x="0px" y="0px"
	 viewBox="0 0 482.741 482.741" style="enable-background:new 0 0 482.741 482.741;" xml:space="preserve">
<g>
	<path d="M463.213,124.676l-5.563-21.845c-3.788-14.874-17.153-25.262-32.502-25.262h-40.136c-7.802,0-15.483,2.084-22.214,6.028
		l-77.755,45.554c-20.683,12.117-45.032,16.263-68.56,11.672l-49.462-9.651c-23.566-4.599-47.589-1.806-69.471,8.077
		c-1.501,0.678-2.978,1.397-4.444,2.136l-5.025-2.658c-13.009-6.882-28.742-4.513-39.148,5.893l-7.862,7.862
		c-6.705,6.705-10.244,15.98-9.708,25.448c0.42,7.423,3.324,14.439,8.131,19.973c-5.919,13.467-9.221,27.992-9.671,42.839
		l-0.704,23.233c-0.114,3.75-1.354,7.325-3.587,10.339l-18.555,25.05c-5.304,7.162-7.712,15.987-6.779,24.85l5.864,55.709
		c1.515,14.396,13.574,25.252,28.05,25.252h24.418c4.559,0,8.806-2.254,11.362-6.029c2.556-3.775,3.071-8.556,1.378-12.788
		c-3.556-8.89-10.995-15.302-19.936-17.622v-18.005c0-9.741,4.21-19.001,11.551-25.404l51.61-45.021l42.593,29.906
		c14.192,9.965,31.151,15.282,48.399,15.282c2.33,0,4.666-0.097,7-0.293l44.736-3.752l13.185,56.621
		c3.717,15.958,17.756,27.104,34.142,27.104h25.974c4.864,0,9.263-2.49,11.766-6.661c2.503-4.171,2.63-9.224,0.341-13.517
		l-0.837-1.57c-4.385-8.221-12.286-13.789-21.292-15.257l4.006-62.49c26.155-16.94,46.943-40.736,60.177-68.994l2.382-5.086
		c8.035,2.353,16.649,1.81,24.495-1.702l39.764-17.805c19.084-8.545,31.416-27.578,31.416-48.488v-16.486
		C482.741,135.685,474.23,126.204,463.213,124.676z M389.395,92.569l-3.375,36.626c-0.221,2.397-1.919,3.478-2.639,3.831
		c-0.72,0.353-2.614,1.036-4.645-0.257c-6.919-4.403-10.487-12.765-8.879-20.807l3.375-16.872c3.698-1.647,7.711-2.521,11.779-2.521
		H389.395z M46.338,177.081c-0.299-5.283,1.597-10.252,5.338-13.994l7.862-7.862c4.877-4.877,11.878-6.53,18.269-4.574
		c-11.206,8.039-20.929,18.048-28.663,29.639c-0.543,0.813-1.062,1.639-1.583,2.464C46.866,180.973,46.45,179.067,46.338,177.081z
		 M467.741,163.603c0,15.006-8.85,28.665-22.545,34.797l-39.764,17.805c-5.883,2.634-12.515,2.398-18.195-0.649
		c-5.68-3.047-9.545-8.441-10.605-14.799l-4.457-26.739c-0.681-4.086-4.551-6.846-8.631-6.165c-4.086,0.681-6.846,4.545-6.165,8.631
		l4.457,26.739c1.404,8.425,5.669,15.861,12.006,21.245l-2.742,5.854c-10.411,22.23-25.965,41.42-45.363,56.175l1.742-27.171
		c0.265-4.134-2.872-7.699-7.005-7.964c-4.135-0.263-7.7,2.871-7.965,7.005l-7.464,116.436c-0.132,2.068,0.597,4.099,2.015,5.611
		c1.417,1.512,3.398,2.369,5.47,2.369h3.191c5.266,0,10.086,2.823,12.667,7.391h-23.838c-9.374,0-17.406-6.376-19.532-15.506
		L264.603,287c-0.939-4.034-4.968-6.543-9.006-5.604c-4.034,0.939-6.543,4.971-5.604,9.005l3.791,16.281l-42.552,3.568
		c-16.117,1.353-32.288-3.022-45.527-12.318l-42.611-29.918l20.289-52.752c1.487-3.866-0.442-8.206-4.308-9.692
		c-3.866-1.487-8.206,0.441-9.692,4.308l-21.723,56.481l-54.638,47.662c-10.607,9.253-16.69,22.633-16.69,36.708v24.552
		c0,4.142,3.358,7.5,7.5,7.5c5.328,0,10.115,2.846,12.669,7.391H34.111c-6.777,0-12.423-5.083-13.132-11.823l-5.864-55.709
		c-0.539-5.118,0.852-10.215,3.915-14.351l18.555-25.049c4.063-5.484,6.32-11.99,6.527-18.813l0.704-23.234
		c0.569-18.773,6.38-36.955,16.806-52.578c10.425-15.623,24.984-27.967,42.102-35.698c19.032-8.595,39.926-11.025,60.424-7.025
		l49.462,9.651c27.116,5.291,55.178,0.514,79.015-13.452l63.331-37.103l-0.806,4.031c-2.814,14.07,3.429,28.699,15.535,36.404
		c3.245,2.065,6.907,3.108,10.588,3.108c2.963,0,5.938-0.676,8.717-2.039c6.232-3.057,10.333-9.009,10.969-15.921l3.501-38.003
		h20.689c8.484,0,15.872,5.742,17.966,13.964l6.947,27.28c0.846,3.323,3.839,5.649,7.268,5.649h2.758
		c4.221,0,7.655,3.434,7.655,7.655V163.603z"/>
	<path d="M436.908,136.403h-9.435c-4.142,0-7.5,3.358-7.5,7.5s3.358,7.5,7.5,7.5h9.435c4.142,0,7.5-3.358,7.5-7.5
		S441.05,136.403,436.908,136.403z"/>
</g>
<g>
</g>
<g>
</g>
<g>
</g>
<g>
</g>
<g>
</g>
<g>
</g>
<g>
</g>
<g>
</g>
<g>
</g>
<g>
</g>
<g>
</g>
<g>
</g>
<g>
</g>
<g>
</g>
<g>
</g>
</svg>
