<?xml version="1.0" encoding="iso-8859-1"?>
<!-- Generator: Adobe Illustrator 18.0.0, SVG Export Plug-In . SVG Version: 6.00 Build 0)  -->
<!DOCTYPE svg PUBLIC "-//W3C//DTD SVG 1.1//EN" "http://www.w3.org/Graphics/SVG/1.1/DTD/svg11.dtd">
<svg version="1.1" id="Capa_1" xmlns="http://www.w3.org/2000/svg" xmlns:xlink="http://www.w3.org/1999/xlink" x="0px" y="0px"
	 viewBox="0 0 478.792 478.792" style="enable-background:new 0 0 478.792 478.792;" xml:space="preserve">
<g>
	<path d="M477.616,145.643l-6.679-10.479c-18.572-29.145-50.551-46.901-84.769-47.567l-0.894-28.632c-0.1-3.2-2.22-5.983-5.278-6.93
		c-3.058-0.946-6.38,0.152-8.271,2.736c-0.882,1.206-19.101,26.384-20.749,49.835l-51.244,50.986
		c-7.646,7.608-16.434,13.875-26.119,18.625c-14.951,7.334-31.646,10.775-48.278,9.959l-74.038-3.647
		c-18.354-0.908-36.097,3.472-51.443,12.142c-22.646-30.449-53.18-56.798-88.719-76.478c-3.624-2.007-8.187-0.695-10.194,2.928
		c-2.007,3.624-0.696,8.188,2.928,10.194c33.464,18.532,62.204,43.243,83.539,71.753c-8.968,7.15-16.719,15.982-22.752,26.249
		l-3.895,6.628c-9.023,15.356-12.253,33.466-9.095,50.995l3.806,21.124c3.599,19.975-6.073,39.703-24.067,49.091
		c-2.541,1.325-4.104,3.982-4.028,6.847l1.256,47.75c0.256,9.722,8.074,17.337,17.799,17.337h15.282
		c6.105,0,11.072-4.967,11.072-11.073c0-8.306-4.468-15.979-11.548-20.122c-2.112-6.25-0.25-13.223,4.901-17.589
		c11.046-9.362,27.018-22.979,40.375-34.689c6.837-5.993,12.307-13.495,16.259-22.297c3.329-7.416,8.109-13.548,13.076-18.471
		c59.498,21.951,131.72,24.883,154.447,25.246l5.5,81.003c0.685,10.089,9.143,17.993,19.255,17.993h18.627
		c3.515,0,6.559-2.441,7.321-5.873l1.795-8.079c1.385-6.231-1.354-12.704-6.697-16.081l4.543-84.363
		c2.787-2.019,6.477-4.527,9.17-6.264c19.648-12.643,31.17-33.966,30.821-57.045c-0.386-24.667,7.594-47.429,15.17-58.136
		c9.005-12.708,25.018-18.236,39.852-13.757c0.035,0.011,0.07,0.021,0.106,0.031l0.475,0.147
		c12.55,3.865,26.354-1.097,33.578-12.073l7.75-11.81C479.182,151.321,479.203,148.133,477.616,145.643z M457.277,157.361
		c-3.576,5.433-10.415,7.889-16.68,5.96l-0.16-0.049c-0.163-0.051-0.329-0.103-0.494-0.151
		c-20.999-6.321-43.652,1.494-56.384,19.462c-9.241,13.061-18.368,38.855-17.926,67.036c0.218,14.424-5.584,27.972-15.867,37.828
		l4.358-8.555c5.226-10.26,6.362-22.008,3.199-33.079l-6.549-22.923c-1.138-3.982-5.291-6.29-9.272-5.151
		c-3.982,1.138-6.289,5.289-5.151,9.272l6.549,22.923c2.118,7.413,1.357,15.279-2.142,22.149l-10.897,21.39
		c-2.38,4.672-3.73,9.695-4.012,14.93l-4.779,88.759c-0.278,5.164,2.475,10.101,7.016,12.578c0.051,0.028,0.079,0.088,0.066,0.146
		l-0.49,2.206h-12.611c-2.253,0-4.137-1.761-4.29-4.009l-6.797-100.104c-0.639-9.41-4.411-18.502-10.622-25.6l-13.324-15.229
		c-2.729-3.117-7.466-3.433-10.583-0.706c-3.117,2.728-3.433,7.466-0.706,10.583l13.325,15.228
		c4.061,4.641,6.527,10.585,6.945,16.738l0.275,4.052c-22.002-0.483-85.552-3.439-139.482-21.221
		c4.709-2.968,8.055-4.433,8.145-4.471c3.805-1.617,5.584-6.009,3.976-9.82c-1.611-3.815-6.011-5.604-9.827-3.992
		c-1.225,0.517-30.14,12.993-42.998,41.634c-3.063,6.824-7.256,12.598-12.462,17.162c-13.28,11.641-29.183,25.2-40.186,34.525
		c-11.026,9.345-14.212,24.903-7.748,37.833c0.761,1.522,2.018,2.74,3.563,3.454l0.705,0.326c1.665,0.769,2.994,2.055,3.833,3.614
		H46.431c-1.532,0-2.764-1.2-2.804-2.731l-1.139-43.272c21.164-13.19,32.23-37.791,27.746-62.682l-3.806-21.124
		c-2.523-14.002,0.057-28.469,7.265-40.735l3.895-6.628c15.147-25.777,43.109-40.868,72.971-39.406l74.038,3.647
		c19.166,0.946,38.397-3.024,55.623-11.474c11.158-5.473,21.282-12.693,30.092-21.459l46.146-45.914
		c0.732,0.238,1.505,0.372,2.301,0.371c0.41,0,0.825-0.034,1.242-0.103c4.086-0.681,6.846-4.545,6.165-8.631
		c-1.264-7.582,1.291-16.971,4.955-25.617l0.68,21.762c0.129,4.14,3.604,7.421,7.731,7.262c4.14-0.129,7.391-3.59,7.262-7.73
		l-0.156-5.01c28.947,0.82,55.923,15.928,71.651,40.609l4.073,6.39L457.277,157.361z"/>
	<path d="M414.272,109.485h-6.843c-4.142,0-7.5,3.358-7.5,7.5s3.358,7.5,7.5,7.5h6.843c4.142,0,7.5-3.358,7.5-7.5
		S418.414,109.485,414.272,109.485z"/>
</g>
<g>
</g>
<g>
</g>
<g>
</g>
<g>
</g>
<g>
</g>
<g>
</g>
<g>
</g>
<g>
</g>
<g>
</g>
<g>
</g>
<g>
</g>
<g>
</g>
<g>
</g>
<g>
</g>
<g>
</g>
</svg>
