<?xml version="1.0" encoding="iso-8859-1"?>
<!-- Generator: Adobe Illustrator 18.0.0, SVG Export Plug-In . SVG Version: 6.00 Build 0)  -->
<!DOCTYPE svg PUBLIC "-//W3C//DTD SVG 1.1//EN" "http://www.w3.org/Graphics/SVG/1.1/DTD/svg11.dtd">
<svg version="1.1" id="Capa_1" xmlns="http://www.w3.org/2000/svg" xmlns:xlink="http://www.w3.org/1999/xlink" x="0px" y="0px"
	 viewBox="0 0 470.133 470.133" style="enable-background:new 0 0 470.133 470.133;" xml:space="preserve">
<g>
	<path d="M385.781,67.197c-0.242-3.392-2.736-6.197-6.077-6.833c-0.372-0.071-9.243-1.723-19.221-0.451
		c-14.643,1.869-24.555,8.944-28.668,20.458c-4.016,11.247-1.704,22.776,6.687,33.342c5.854,7.371,12.788,11.748,13.081,11.93
		c1.208,0.755,2.587,1.14,3.975,1.14c0.931,0,1.864-0.173,2.753-0.523c2.213-0.874,3.881-2.745,4.494-5.044l6.064-22.744
		c1.067-4.002-1.313-8.112-5.314-9.179c-4.003-1.069-8.113,1.312-9.18,5.314l-2.994,11.229c-4.4-4.984-8.373-12.205-5.438-20.42
		c3.746-10.491,17.462-11.339,25.323-10.914l1.071,14.991c0.295,4.132,3.883,7.247,8.015,6.946c4.132-0.295,7.242-3.884,6.946-8.016
		L385.781,67.197z"/>
	<path d="M468.279,120.553c-2.015-3.834-5.407-6.641-9.553-7.902l-21.965-6.685l-0.273-2.459
		c-2.618-23.561-16.84-43.956-38.042-54.557c-13.231-6.616-28.544-8.855-43.117-6.305c-27.871,4.878-51.092,23.347-62.116,49.405
		l-9.592,22.672l-20.258,0.042c-17.604,0.036-34.521,5.166-49.123,14.865l-12.607-1.859c0.654-13.897-4.155-28.569-14.523-41.899
		c-11.186-14.382-29.407-23.299-52.694-25.786c-20.257-2.162-42.773,0.74-63.418,8.172c-18.288,6.583-29.612,21.97-32.749,44.497
		c-1.672,12.008-0.548,22.929,0.173,27.914l-25.439,45.792c-17.526,31.545-17.291,70.606,0.613,101.938l19.706,34.485
		l-20.553,46.242c-2.206,4.963-2.28,10.689-0.203,15.711l12.396,29.957c3.449,8.335,11.507,13.721,20.527,13.721H72.23
		c3.758,0,7.227-1.709,9.516-4.689s3.047-6.771,2.079-10.402c-2.725-10.217-8.433-19.172-16.374-25.872l34.938-46.583
		c4.447-5.93,7.545-12.616,9.206-19.873c1.697-7.413,3.473-14.148,5.288-20.242c8.221-1.705,28.355-4.621,46.29,2.765
		c6.979,2.874,13.35,6.196,19.51,9.409c14.997,7.821,30.474,15.883,54.603,17.484l9.314,49.437c0.354,1.879,1.412,3.552,2.959,4.677
		l15.199,11.054l8.836,17.671c4.676,9.354,14.077,15.164,24.535,15.164h33.82c4.44,0,8.486-2.255,10.82-6.033
		c2.335-3.777,2.543-8.404,0.557-12.375c-5.43-10.859-14.646-19.463-25.744-24.196l17.145-64.622
		c27.537-16.794,46.09-44.509,51.089-76.515c0.192-1.234,0.381-2.44,0.563-3.609c28.644-5.014,41.179-22.59,46.659-36.924
		c3.313-8.664,4.406-17.056,4.702-23.056c0.706,0.052,1.421,0.106,2.153,0.162c0.192,0.015,0.384,0.022,0.575,0.022
		c1.402,0,2.78-0.393,3.976-1.14c8.186-5.117,16.572-21.037,24.926-47.318C470.681,128.777,470.294,124.389,468.279,120.553z
		 M455.073,128.366c-6.625,20.843-13.005,33.429-17.043,37.799c-17.844-1.297-27.467-1.313-27.889-1.313
		c-4.142,0-7.498,3.356-7.499,7.498c-0.001,4.142,3.355,7.5,7.497,7.502c0.066,0,4.44,0.01,12.623,0.407
		c-0.225,4.865-1.102,11.932-3.911,19.074c-5.954,15.135-18.018,24.263-35.877,27.185c-7.98-9.634-32.284-37.771-59.209-57.066
		c-3.121-2.237-7.508-1.994-10.103,0.836c-3.109,3.39-2.478,8.61,1.146,11.199c25.854,18.467,50.057,46.69,57.087,55.183
		c-0.284,1.835-0.585,3.767-0.9,5.789c-4.455,28.526-21.386,53.101-46.45,67.423c-1.743,0.996-3.014,2.648-3.528,4.588
		l-19.711,74.295c-1.033,3.893,1.193,7.907,5.044,9.092l1.857,0.572c8.183,2.518,15.237,7.924,19.827,15.084h-29.905
		c-4.709,0-9.013-2.66-11.119-6.872l-9.653-19.307c-0.537-1.075-1.325-2.005-2.297-2.711l-14.271-10.379l-19.16-101.694
		c-0.768-4.071-4.693-6.746-8.759-5.981c-4.07,0.767-6.749,4.688-5.981,8.759l7.517,39.9c-18.688-1.897-30.923-8.271-44.787-15.501
		c-6.455-3.366-13.13-6.847-20.735-9.979c-16.843-6.936-34.743-6.504-46.57-4.994c6.783-17.633,13.585-26.721,18.523-27.87
		c2.367-0.551,4.365-2.157,5.036-4.493c1.892-6.592-3.686-11.397-9.069-9.958c-10.218,2.725-19.115,13.74-27.2,33.676
		c-5.877,14.49-10.112,30.641-12.63,41.639c-1.189,5.196-3.405,9.98-6.585,14.22l-39.529,52.706c-1.786,2.381-2.04,5.665-0.425,8.38
		c0.669,1.124,1.673,2.005,2.79,2.686c6.844,4.173,12.022,10.388,14.879,17.775H45.468c-2.93,0-5.547-1.75-6.668-4.457
		l-12.395-29.956c-0.514-1.242-0.496-2.657,0.05-3.884l22.095-49.713c0.97-2.181,0.843-4.694-0.342-6.767l-21.59-37.782
		c-15.317-26.806-15.519-60.223-0.524-87.211l26.708-48.075c0.864-1.556,1.146-3.368,0.798-5.113
		c-0.094-0.467-8.982-46.861,22.478-58.187c18.283-6.582,38.967-9.269,56.744-7.37c13.349,1.425,31.549,6.066,42.448,20.08
		c15.57,20.02,15.194,42.729-0.958,57.854c-4.287,4.014-10.064,4.899-15.457,2.369c-1.372-0.644-2.756-1.572-3.989-2.765
		c0.183,0.013,0.365,0.024,0.547,0.024c3.036,0,5.895-1.857,7.023-4.869c1.454-3.878-0.511-8.201-4.389-9.656
		c0,0-17.995-6.819-25.136-8.709c-18.594-4.922-52.142-9.771-69.654,12.402c-2.402,3.042-2.296,7.503,0.483,10.205
		c3.262,3.172,8.453,2.737,11.168-0.755c13.079-16.814,45.008-10.643,60.95-5.38c1.099,9.944,7.27,18.692,16.624,23.082
		c10.988,5.156,23.282,3.241,32.081-4.999c6.688-6.262,11.416-13.542,14.192-21.375l10.079,1.486
		c6.248,0.921,11.178,5.895,11.869,12.172c0.009,0.084,0.018,0.169,0.027,0.254c0.387,3.868,3.647,6.754,7.454,6.754
		c0.249,0,0.502-0.012,0.755-0.038c4.122-0.413,7.129-4.088,6.717-8.209c-0.738-7.377-3.313-12.829-6.432-16.745
		c10.505-5.5,22.141-8.395,34.168-8.419l25.218-0.052c3.007-0.006,5.72-1.808,6.892-4.577l11.524-27.239
		c9.031-21.348,28.056-36.478,50.889-40.474c11.433-2,23.442-0.243,33.822,4.946c16.632,8.316,27.788,24.315,29.842,42.797
		l0.275,2.472l-16.736,9.563c-3.377,1.93-4.939,6.113-3.355,9.664c1.273,2.854,4.027,4.471,6.869,4.471
		c1.262,0,2.541-0.319,3.714-0.99l18.417-10.524l23.596,7.181c0.357,0.108,0.546,0.348,0.642,0.529
		C455.096,127.713,455.187,128.006,455.073,128.366z"/>
</g>
<g>
</g>
<g>
</g>
<g>
</g>
<g>
</g>
<g>
</g>
<g>
</g>
<g>
</g>
<g>
</g>
<g>
</g>
<g>
</g>
<g>
</g>
<g>
</g>
<g>
</g>
<g>
</g>
<g>
</g>
</svg>
