<?xml version="1.0" encoding="iso-8859-1"?>
<!-- Generator: Adobe Illustrator 18.0.0, SVG Export Plug-In . SVG Version: 6.00 Build 0)  -->
<!DOCTYPE svg PUBLIC "-//W3C//DTD SVG 1.1//EN" "http://www.w3.org/Graphics/SVG/1.1/DTD/svg11.dtd">
<svg version="1.1" id="Capa_1" xmlns="http://www.w3.org/2000/svg" xmlns:xlink="http://www.w3.org/1999/xlink" x="0px" y="0px"
	 viewBox="0 0 485.042 485.042" style="enable-background:new 0 0 485.042 485.042;" xml:space="preserve">
<g>
	<path d="M484.931,135.111c-0.521-3.647-2.819-6.765-6.142-8.337c-28.036-13.306-47.888-28.655-50.575-39.106
		c-3.442-13.363-18.077-24.672-37.849-29.578l-3.77-13.464c-0.773-2.761-3.053-4.839-5.872-5.355
		c-2.821-0.516-5.688,0.621-7.389,2.928l-10.179,13.813c-0.03,0.04-0.055,0.083-0.085,0.123
		c-11.862,1.367-21.897,5.765-29.185,12.854c-1.225,1.191-2.688,3.278-8.967,12.482c-7.295,10.693-29.496,43.233-35.689,46.518
		c-2.237,0.959-3.87,2.943-4.38,5.323c-0.51,2.38,0.167,4.859,1.815,6.649l7.813,8.49c-20.493,3.997-64.113,9.81-110.372-0.763
		c-20.899-4.769-42.506-3.66-62.484,3.21c-5.479,1.886-10.689,3.982-15.642,6.273l-1.392-0.815
		c-18.27-10.696-41.381-9.909-58.881,2.005c-15.682,10.677-24.682,28.372-24.075,47.333l1.85,57.811
		c0.783,24.458-5.914,48.192-19.365,68.635l-2.883,4.381c-1.323,2.011-1.601,4.535-0.746,6.785c0.854,2.25,2.737,3.954,5.061,4.58
		l22.393,6.031l-9.85,60.115c-1.67,9.002,3.305,17.912,11.862,21.214l19.828,7.657c1.632,0.62,3.317,0.934,5.008,0.934
		c7.716,0,13.994-6.286,13.994-14.013c0-6.718-2.972-13.012-8.145-17.261l-2.044-1.685l5.215-18.846
		c2.952-10.658,7.06-21.96,15.144-24.979c52.826-19.726,70.382-53.426,78.397-89.272c14.76,0.438,45.901,3.561,77.138,20.46
		c24.53,13.274,43.334,19.585,52.377,22.17c0.271,7.464,1.264,14.915,3.005,22.245l19.779,83.26
		c1.699,7.151,7.434,12.802,14.608,14.396l23.901,5.312c0.815,0.181,1.636,0.27,2.451,0.27c2.519,0,4.976-0.852,6.989-2.467
		c2.666-2.138,4.194-5.324,4.194-8.74c0-5.971-2.19-11.704-6.166-16.144c-2.072-2.313-4.913-5.646-7.326-9.053
		c-4.051-32.159-1.788-61.359,1.907-83.706c9.691-3.129,19.421-7.917,28.988-14.29c23.346-15.55,40.194-39.16,47.443-66.482
		c7.2-27.138,4.468-56.086-7.694-81.512c-1.119-2.341-1.958-4.195-2.586-5.654c5.254,0.054,14.949,0.958,30.766,3.96
		c7.907,1.493,15.881-0.703,21.886-6.021l12.34-10.924C484.116,142.41,485.453,138.765,484.931,135.111z M38.474,263.026
		l-1.85-57.811c-0.442-13.803,6.109-26.683,17.525-34.455c10.512-7.158,23.805-8.783,35.606-4.76
		c-12.842,8.173-23.316,18.07-31.278,29.633c-17.334,25.175-23.103,58.455-17.145,98.916c0.011,0.074,0.022,0.146,0.036,0.22
		l4.436,24.97l-5.202,3.621c-5.302,3.684-8.988,9.375-10.205,15.685l-11.027-2.97C32.71,314.037,39.302,288.891,38.474,263.026z
		 M357.041,271.962c-3.855-1.517-8.209,0.38-9.725,4.235c-0.973,2.472-23.693,61.41-13.653,137.037
		c0.15,1.135,0.56,2.221,1.194,3.174c3.075,4.612,6.917,9.149,9.599,12.143c0.302,0.337,0.576,0.693,0.822,1.066l-17.765-3.948
		c-1.605-0.357-2.889-1.621-3.269-3.221l-19.779-83.26c-4.188-17.627-3.466-36.061,2.088-53.309l3.406-10.579
		c1.27-3.943-0.897-8.168-4.84-9.438c-3.94-1.269-8.168,0.897-9.438,4.84l-3.406,10.579c-2.483,7.709-4.116,15.625-4.916,23.612
		c-9.203-2.887-25.346-8.813-45.732-19.845c-32.269-17.457-64.498-21.403-81.44-22.167c0.575-3.545,1.093-7.095,1.577-10.639
		c0.561-4.104-2.312-7.885-6.416-8.446c-4.103-0.556-7.885,2.312-8.446,6.416c-5.725,41.901-15.631,81.292-73.196,102.789
		c-14.399,5.377-20.391,20.724-24.353,35.029l-6.514,23.54c-0.79,2.854,0.174,5.904,2.458,7.788l5.811,4.79
		c1.305,1.071,2.182,2.539,2.52,4.163l-18.272-7.057c-1.821-0.703-2.877-2.599-2.511-4.509c0.013-0.066,0.025-0.133,0.036-0.199
		l12.187-74.381c0.424-2.609,1.916-4.974,4.097-6.489l9.146-6.365c2.402-1.671,3.612-4.587,3.101-7.468l-5.256-29.586
		c-9.678-65.95,13.333-107.549,70.346-127.173c17.329-5.959,36.094-6.918,54.264-2.771c58.6,13.392,111.964,2.299,126.343-1.239
		c6.368,5.04,22.827,19.002,37.504,39.39c23.844,33.122,31.867,66.777,23.879,100.082c-4.96,3.142-9.936,5.794-14.894,7.938
		c3.774-16.626,7.587-26.565,7.68-26.802C362.79,277.827,360.893,273.477,357.041,271.962z M412.144,241.166
		c-4.619,17.412-13.726,33.073-26.231,45.526c2.856-31.822-7.021-64.287-29.127-94.994c-18.364-25.509-39.021-41.461-43.005-44.422
		l-10.659-11.583c6.421-6.567,16.28-19.52,34.188-45.768c3.087-4.524,6.275-9.198,7.202-10.345
		c3.612-3.451,7.973-5.592,12.293-6.912c-0.459,4.932,0.176,9.979,1.979,14.787l0.69,1.842c1.919,5.119,1.398,10.738-1.429,15.416
		c-9.058,14.989-4.348,34.74,10.5,44.028l4.796,3l6.942,5.68c3.18,2.602,7.139,3.995,11.188,3.995c0.98,0,1.967-0.082,2.948-0.248
		l6.656-1.125c0.923,2.503,2.31,5.685,4.34,9.929C416.042,192.186,418.43,217.47,412.144,241.166z M459.069,144.555
		c-2.509,2.222-5.844,3.139-9.15,2.513c-7.097-1.347-17.4-3.109-26.181-3.854c-4.148-0.352-10.279-0.869-15.345,0.38l-16.474,2.786
		c-0.759,0.126-1.538-0.078-2.136-0.566l-7.312-5.982c-0.245-0.201-0.503-0.386-0.771-0.554l-5.199-3.252
		c-7.943-4.969-10.463-15.535-5.617-23.553c5.216-8.63,6.177-18.997,2.636-28.44l-0.69-1.843
		c-2.182-5.817-1.284-12.276,2.402-17.278l1.063-1.442l5.095,18.196c1.117,3.988,5.251,6.317,9.245,5.2
		c3.988-1.117,6.316-5.256,5.2-9.245l-0.618-2.208c9.749,3.976,16.914,9.949,18.472,15.993c4.896,19.041,33.336,36.29,53.184,46.242
		L459.069,144.555z"/>
	<path d="M414.167,105.877l-3.425,0.761c-4.044,0.899-6.593,4.905-5.694,8.949c0.777,3.496,3.876,5.874,7.314,5.874
		c0.539,0,1.086-0.059,1.634-0.18l3.425-0.761c4.044-0.899,6.593-4.905,5.694-8.949S418.211,104.981,414.167,105.877z"/>
</g>
<g>
</g>
<g>
</g>
<g>
</g>
<g>
</g>
<g>
</g>
<g>
</g>
<g>
</g>
<g>
</g>
<g>
</g>
<g>
</g>
<g>
</g>
<g>
</g>
<g>
</g>
<g>
</g>
<g>
</g>
</svg>
