<?xml version="1.0" encoding="iso-8859-1"?>
<!-- Generator: Adobe Illustrator 18.0.0, SVG Export Plug-In . SVG Version: 6.00 Build 0)  -->
<!DOCTYPE svg PUBLIC "-//W3C//DTD SVG 1.1//EN" "http://www.w3.org/Graphics/SVG/1.1/DTD/svg11.dtd">
<svg version="1.1" id="Capa_1" xmlns="http://www.w3.org/2000/svg" xmlns:xlink="http://www.w3.org/1999/xlink" x="0px" y="0px"
	 viewBox="0 0 482.877 482.877" style="enable-background:new 0 0 482.877 482.877;" xml:space="preserve">
<path d="M482.129,131.242c-1.095-2.264-3.251-3.828-5.743-4.167l-40.38-5.484c-5.216-0.708-9.409-4.465-10.686-9.57
	c-0.505-2.019-1.825-3.737-3.646-4.744c-1.438-0.795-35.549-19.273-64.302-1.112c-24.159,15.259-47.777,59.42-53.016,69.635
	c-12.724,7.195-44.204,21.931-64.441,18.637c-23.125-3.765-109.376-13.822-145.386-17.971c-15.872-1.83-31.65,0.467-45.629,6.64
	c-9.684,4.276-17.493,9.807-23.356,16.523c-2.502,2.124-11.011,9.85-17.507,21.787c-10.209,18.761-10.702,38.929-1.428,58.325
	c3.833,8.015,5.485,15.922,4.912,23.502c-0.313,4.13,2.782,7.732,6.913,8.044c0.192,0.015,0.384,0.022,0.573,0.022
	c3.885,0,7.173-2.997,7.471-6.935c0.773-10.229-1.358-20.694-6.336-31.105c-4.223-8.832-5.504-17.035-5.026-24.405
	c2.373,12.689,7.608,28.475,17.356,48.053c2.213,4.445,1.489,9.701-1.844,13.391l-9.485,10.501c-2.263,2.504-2.571,6.214-0.758,9.06
	c5.215,8.184,18.643,32.591,18.161,47.051c-0.067,2.031,0.692,4.003,2.105,5.464s3.358,2.286,5.391,2.286h30.681
	c4.341,0,8.392-1.72,11.406-4.844c3.014-3.124,4.588-7.233,4.433-11.571c-0.347-9.674-8.2-17.252-17.88-17.252h-2.112l-8.865-16.838
	c-1.907-4.388-0.867-9.514,2.619-12.811c8.838-8.361,16.746-17.628,23.623-27.604c13.586,1.115,57.455,5.545,93.566,18.48
	c9.263,3.318,17.072,6.24,23.963,8.818c23.501,8.792,35.758,13.377,52.418,13.637c1.789,15.149,4.865,28.89,6.929,37.072
	c1.917,7.603,8.734,12.913,16.58,12.913h24.141c8.688,0,15.937-6.514,16.861-15.151c1.008-9.409-5.545-18.003-14.919-19.565
	c-2.188-0.365-4.21-0.783-6.053-1.25c-0.234-4.468,0.328-10.621,1.24-16.752c35.703-12.65,63.223-41.846,73.706-78.283
	l11.459-39.834c8.819-6.343,15.743-14.897,20.115-24.893l3.256-7.441c1.378-3.15,4.591-5.162,8.047-5.001l8.047,0.372
	c17.794,0.82,34.543-8.201,43.641-23.551l8.884-14.992C483.111,136.167,483.223,133.505,482.129,131.242z M460.041,145.675
	c-6.262,10.567-17.76,16.779-30.045,16.214l-8.047-0.372c-9.601-0.438-18.63,5.174-22.48,13.973l-3.256,7.441
	c-2.287,5.228-5.51,9.924-9.486,13.909c0.8-4.254,0.501-8.72-1.005-12.975c-2.449-6.917-5.318-13.015-7.623-17.915
	c-1.287-2.737-2.399-5.1-3.055-6.804c-1.548-4.023,1.424-10.042,2.593-11.842c2.273-3.443,1.337-8.081-2.1-10.372
	c-3.445-2.298-8.103-1.366-10.4,2.08c-0.903,1.354-8.688,13.575-4.093,25.52c0.851,2.211,2.07,4.803,3.481,7.804
	c2.164,4.6,4.856,10.323,7.057,16.536c1.265,3.572,0.485,7.361-2.084,10.134c-2.511,2.709-6.136,3.751-9.689,2.789
	c-4.705-1.273-20.021-6.605-19.602-21.748c0.115-4.141-3.148-7.59-7.289-7.705c-4.154-0.104-7.59,3.148-7.705,7.289
	c-0.481,17.35,11.272,31.39,30.677,36.643c2.148,0.582,4.328,0.865,6.487,0.865c4.12,0,8.161-1.038,11.767-2.999l-10.179,35.385
	c-8.281,28.785-28.752,52.389-55.673,64.787c0.513-1.829,1-3.293,1.42-4.224c1.926-2.223,2.438-5.473,1.041-8.268
	c-1.854-3.706-6.356-5.208-10.063-3.355c-2.309,1.154-5.798,2.898-9.943,25.789c-1.485,8.199-3.627,23.28-1.29,32.162
	c0.63,2.394,2.399,4.322,4.73,5.154c3.64,1.3,7.958,2.371,12.835,3.184c1.548,0.258,2.632,1.651,2.47,3.171
	c-0.107,0.997-0.944,1.749-1.947,1.749h-24.141c-0.964,0-1.801-0.649-2.035-1.58c-3.274-12.982-13.26-57.238-4.285-81.667
	c1.429-3.888-0.565-8.198-4.454-9.626c-3.893-1.43-8.198,0.566-9.626,4.454c-4.043,11.007-4.979,24.724-4.361,38.386
	c-13.482-0.506-24.336-4.567-45.909-12.638c-6.937-2.595-14.799-5.536-24.16-8.89c-32.805-11.751-70.533-16.725-89.608-18.619
	c12.035-20.163,12.366-24.135,12.553-26.365c0.344-4.127-2.724-7.753-6.852-8.097c-4.075-0.34-7.657,2.642-8.082,6.687
	c-0.165,0.724-1.687,5.884-14.556,26.77c-7.22,11.716-15.972,22.473-26.013,31.972c-8.184,7.741-10.551,19.833-5.89,30.088
	c0.061,0.132,0.124,0.263,0.191,0.391l11.089,21.061c1.298,2.463,3.853,4.006,6.637,4.006h6.64c1.564,0,2.834,1.225,2.89,2.789
	c0.009,0.239-0.071,0.447-0.237,0.619c-0.166,0.172-0.372,0.26-0.611,0.26h-23.66c-2.289-15.989-11.947-34.201-17.047-42.949
	l5.743-6.359c7.497-8.299,9.122-20.127,4.141-30.131c-15.614-31.36-21.074-57.386-14.979-71.404
	c4.065-9.352,12.153-16.754,24.037-22.001c11.541-5.096,24.633-6.983,37.854-5.46c28.014,3.228,121.239,14.056,144.692,17.874
	c2.779,0.453,5.656,0.659,8.599,0.659c29.869-0.001,66.097-21.285,67.77-22.279c1.247-0.74,2.253-1.827,2.896-3.127
	c0.251-0.508,25.369-50.966,48.613-65.647c17.443-11.015,39.219-2.937,46.519,0.343c0.069,0.175,0.151,0.343,0.224,0.516
	l-6.646,2.42c-3.893,1.417-5.899,5.721-4.482,9.613c1.109,3.046,3.984,4.936,7.049,4.936c0.852,0,1.718-0.146,2.564-0.455
	l11.604-4.225c3.45,2.313,7.448,3.871,11.774,4.458l29.17,3.962L460.041,145.675z"/>
<g>
</g>
<g>
</g>
<g>
</g>
<g>
</g>
<g>
</g>
<g>
</g>
<g>
</g>
<g>
</g>
<g>
</g>
<g>
</g>
<g>
</g>
<g>
</g>
<g>
</g>
<g>
</g>
<g>
</g>
</svg>
