<?xml version="1.0" encoding="iso-8859-1"?>
<!-- Generator: Adobe Illustrator 18.0.0, SVG Export Plug-In . SVG Version: 6.00 Build 0)  -->
<!DOCTYPE svg PUBLIC "-//W3C//DTD SVG 1.1//EN" "http://www.w3.org/Graphics/SVG/1.1/DTD/svg11.dtd">
<svg version="1.1" id="Capa_1" xmlns="http://www.w3.org/2000/svg" xmlns:xlink="http://www.w3.org/1999/xlink" x="0px" y="0px"
	 viewBox="0 0 483.982 483.982" style="enable-background:new 0 0 483.982 483.982;" xml:space="preserve">
<g>
	<path d="M483.727,126.273c-0.708-3.294-2.818-6.093-5.791-7.678l-23.58-12.576l-4.962-11.577c-0.156-0.364-0.341-0.715-0.552-1.05
		c-0.438-0.693-11.014-17.028-36.395-21.417c-8.925-1.543-18.234,1.203-24.903,7.346c-16.926,15.593-41.789,36.907-55.102,48.224
		c-5.976,5.08-13.229,8.415-20.976,9.644l-18.617,2.955c-17.818,2.829-35.793,3.365-53.422,1.596
		c-84.273-8.458-117.034,7.752-129.675,22.839c-3.8,4.536-7.41,10.341-9.926,17.622c-27.017,18.385-63.433,15.452-87.14-7.225
		c-2.994-2.864-7.741-2.758-10.604,0.236c-2.863,2.993-2.757,7.741,0.236,10.604c16.196,15.492,37.271,23.41,58.458,23.41
		c12.137,0,24.306-2.614,35.618-7.877c-0.451,13.102,2.394,29.247,10.826,48.998c5.672,13.284,5.119,28.389-1.518,41.441
		l-13.645,26.834c-2.733,5.376-3.906,11.386-3.394,17.393l2.172,48.199c0.434,9.639,7.343,17.706,16.802,19.618l12.093,2.443
		c4.092,0.825,8.3-0.44,11.255-3.389c2.956-2.95,4.231-7.155,3.413-11.25l-0.756-3.78c-0.9-4.5-3.499-8.379-7.316-10.924
		c-2.837-1.892-4.33-5.291-3.801-8.661l3.958-25.231c1.404-8.955,4.972-17.557,10.317-24.877l22.808-31.237
		c9.676-13.252,16.356-28.766,19.353-44.9c8.552-0.998,22.667-1.462,31.012,2.988c8.598,4.585,30.405,14.357,52.319,21.059
		c16.857,5.154,30.774,7.727,41.951,7.727c4.168,0,7.936-0.376,11.352-1.091l-1.593,87.552c-0.011,0.617,0.054,1.234,0.194,1.835
		l6.627,28.497c2.773,11.927,12.849,20.454,25.071,21.218l9.505,0.594c0.287,0.018,0.572,0.027,0.857,0.027
		c3.862,0,7.489-1.641,10.055-4.579c2.755-3.155,3.865-7.319,3.043-11.427l-1.055-5.274c-1.376-6.878-5.764-12.623-12.037-15.759
		c-2.827-1.414-4.489-4.473-4.137-7.613l10.647-94.94l2.264-3.807c12.616-21.218,19.486-45.378,19.939-70.032l37.7-48.471
		l26.907,4.484c9.323,1.553,18.697-2.126,24.474-9.602l7.541-9.759C483.658,132.986,484.434,129.567,483.727,126.273z
		 M462.188,136.239c-2.394,3.097-6.279,4.623-10.139,3.978l-31.316-5.219c-2.716-0.454-5.462,0.62-7.153,2.793l-42,54
		c-1.024,1.316-1.58,2.937-1.58,4.604c0,22.857-6.175,45.323-17.856,64.97l-3.09,5.197c-0.545,0.916-0.888,1.938-1.007,2.997
		l-3.546,31.618c-0.649-0.181-1.32-0.282-1.997-0.282c-1.98,0-3.91,0.8-5.31,2.2c-1.39,1.39-2.19,3.32-2.19,5.3s0.8,3.91,2.19,5.3
		c1.4,1.4,3.33,2.2,5.31,2.2c0.117,0,0.232-0.012,0.348-0.018l-5.633,50.228c-1.05,9.364,3.907,18.487,12.335,22.701
		c2.104,1.052,3.575,2.979,4.037,5.285l0.642,3.208l-7.404-0.462c-5.556-0.347-10.135-4.223-11.396-9.645l-6.417-27.592
		l1.585-87.143c0.292-16.104-5.613-31.443-16.629-43.193c-2.833-3.023-7.58-3.176-10.601-0.342
		c-3.022,2.833-3.175,7.58-0.342,10.601c4.956,5.287,8.532,11.539,10.579,18.297c-22.52,5.818-76.752-15.471-96.578-26.044
		c-7.389-3.941-17.44-5.748-29.86-5.375c-1.926,0.058-3.751,0.167-5.444,0.3l2.156-11.978c0.734-4.077-1.976-7.976-6.053-8.71
		c-4.073-0.738-7.976,1.976-8.71,6.053l-4.809,26.715c-2.542,14.121-8.358,27.71-16.818,39.298l-22.808,31.236
		c-6.746,9.239-11.249,20.097-13.021,31.398l-3.958,25.23c-1.433,9.13,2.611,18.341,10.3,23.466
		c0.477,0.318,0.815,0.823,0.927,1.386l0.003,0.014l-8.328-1.683c-2.695-0.544-4.664-2.843-4.788-5.589l-2.179-48.36
		c-0.005-0.114-0.013-0.228-0.023-0.341c-0.295-3.251,0.331-6.508,1.81-9.417l13.645-26.834c8.654-17.021,9.362-36.75,1.942-54.129
		c-16.354-38.306-8.899-59.342,0.236-70.245c14.37-17.152,56.898-23.548,116.679-17.548c7.029,0.706,14.107,1.068,21.207,1.091
		c0.276,1.48,0.992,2.874,2.059,3.941c1.4,1.4,3.33,2.2,5.31,2.2c1.97,0,3.9-0.8,5.3-2.2c1.182-1.174,1.929-2.74,2.136-4.385
		c7.093-0.447,14.189-1.231,21.26-2.354l18.617-2.955c10.466-1.661,20.266-6.167,28.339-13.03
		c13.399-11.389,38.433-32.851,55.55-48.621c1.443-1.329,3.146-2.313,4.965-2.954l-4.324,36.383c-0.036,0.299-0.119,1-1.108,1.19
		c-0.986,0.192-1.327-0.43-1.471-0.696l-5.677-10.458c-1.976-3.641-6.53-4.99-10.169-3.013c-3.641,1.976-4.989,6.529-3.013,10.169
		l5.677,10.458c2.943,5.422,8.323,8.581,14.248,8.581c1.063,0,2.144-0.102,3.231-0.31c7.147-1.371,12.319-6.926,13.178-14.152
		l4.377-36.828c11.23,3.814,16.781,10.325,18.173,12.172H435.5c-4.142,0-7.5,3.358-7.5,7.5s3.358,7.5,7.5,7.5h7.032
		c0.653,0.865,1.469,1.601,2.438,2.118l22.166,11.822L462.188,136.239z"/>
	<path d="M167.843,174.913c0.104-0.497,0.161-1.005,0.161-1.517c0-1.97-0.8-3.91-2.2-5.3c-1.4-1.4-3.33-2.2-5.3-2.2
		c-1.98,0-3.91,0.8-5.31,2.2c-1.39,1.39-2.19,3.32-2.19,5.3c0,1.97,0.8,3.91,2.19,5.3c0.171,0.171,0.351,0.333,0.537,0.486
		c-0.464,0.975-0.731,2.062-0.731,3.213c0,4.142,3.358,7.5,7.5,7.5h5c4.142,0,7.5-3.358,7.5-7.5
		C175,178.369,171.825,175.093,167.843,174.913z"/>
	<path d="M268.504,175.896c-1.98,0-3.91,0.8-5.31,2.2c-1.39,1.39-2.19,3.33-2.19,5.3c0,1.97,0.8,3.91,2.19,5.3
		c1.4,1.4,3.33,2.2,5.31,2.2c1.97,0,3.9-0.8,5.3-2.2c1.4-1.39,2.2-3.33,2.2-5.3c0-1.98-0.8-3.91-2.2-5.3
		C272.404,176.696,270.474,175.896,268.504,175.896z"/>
	<path d="M188.504,159.896c-1.98,0-3.91,0.8-5.31,2.19c-1.39,1.4-2.19,3.34-2.19,5.31c0,1.97,0.8,3.91,2.19,5.3
		c1.4,1.4,3.33,2.2,5.31,2.2c1.97,0,3.9-0.8,5.3-2.2c1.4-1.39,2.2-3.33,2.2-5.3c0-1.97-0.8-3.91-2.2-5.31
		C192.404,160.696,190.474,159.896,188.504,159.896z"/>
	<path d="M126.804,201.696c1.39-1.39,2.2-3.33,2.2-5.3c0-1.98-0.81-3.91-2.2-5.3c-1.4-1.4-3.33-2.2-5.3-2.2
		c-1.98,0-3.91,0.8-5.31,2.2c-1.39,1.39-2.19,3.33-2.19,5.3c0,1.97,0.8,3.91,2.19,5.3c1.4,1.4,3.33,2.2,5.31,2.2
		C123.474,203.896,125.404,203.096,126.804,201.696z"/>
	<path d="M150.504,229.896c-1.98,0-3.91,0.8-5.31,2.2c-1.39,1.39-2.2,3.32-2.2,5.3c0,1.97,0.81,3.91,2.2,5.3
		c1.4,1.4,3.33,2.2,5.31,2.2c1.97,0,3.9-0.8,5.3-2.2c1.4-1.39,2.2-3.33,2.2-5.3c0-1.98-0.8-3.91-2.2-5.3
		C154.404,230.696,152.474,229.896,150.504,229.896z"/>
	<path d="M130.931,228.537c-2.131-3.552-6.738-4.704-10.29-2.572c-3.552,2.131-4.704,6.738-2.572,10.29l3,5
		c1.406,2.344,3.89,3.642,6.438,3.642c1.313,0,2.644-0.345,3.852-1.07c3.552-2.131,4.704-6.738,2.572-10.29L130.931,228.537z"/>
	<path d="M222.482,182.761c0.006-0.122,0.018-0.242,0.018-0.366c0-4.142-3.358-7.5-7.5-7.5h-4.5c-4.142,0-7.5,3.358-7.5,7.5
		s3.358,7.5,7.5,7.5h1.029c0.122,1.802,0.893,3.528,2.165,4.801c1.4,1.4,3.33,2.2,5.31,2.2c1.97,0,3.9-0.8,5.3-2.2
		c1.4-1.39,2.2-3.33,2.2-5.3c0-1.97-0.8-3.91-2.2-5.3C223.766,183.558,223.148,183.111,222.482,182.761z"/>
	<path d="M299.504,174.896c-1.98,0-3.91,0.8-5.31,2.2c-1.39,1.39-2.19,3.33-2.19,5.3c0,1.97,0.8,3.91,2.19,5.3
		c1.4,1.4,3.33,2.2,5.31,2.2c1.97,0,3.9-0.8,5.3-2.2c1.39-1.39,2.2-3.33,2.2-5.3c0-1.98-0.81-3.91-2.2-5.3
		C303.404,175.696,301.474,174.896,299.504,174.896z"/>
	<path d="M357.5,165.972c0-0.025,0.004-0.051,0.004-0.076c0-1.97-0.8-3.91-2.2-5.3c-1.4-1.4-3.33-2.2-5.3-2.2
		c-1.98,0-3.91,0.8-5.31,2.2c-1.39,1.39-2.19,3.32-2.19,5.3c0,1.97,0.8,3.91,2.19,5.3c1.163,1.163,2.694,1.904,4.314,2.124
		c0,0.025-0.004,0.05-0.004,0.076c0,1.97,0.8,3.91,2.19,5.3c1.4,1.4,3.33,2.2,5.31,2.2c1.97,0,3.9-0.8,5.3-2.2
		c1.4-1.4,2.2-3.33,2.2-5.3c0-1.97-0.8-3.91-2.2-5.3C360.642,166.934,359.113,166.194,357.5,165.972z"/>
	<path d="M326.246,156.433l-5-0.5c-4.122-0.418-7.797,2.595-8.209,6.717c-0.412,4.122,2.595,7.797,6.717,8.209l5,0.5
		c0.253,0.025,0.505,0.038,0.755,0.038c3.806,0,7.067-2.886,7.454-6.754C333.375,160.52,330.368,156.845,326.246,156.433z"/>
	<path d="M353.733,209.998c-4.083-0.682-7.95,2.079-8.631,6.165l-1,6c-0.681,4.085,2.079,7.95,6.165,8.631
		c0.417,0.07,0.832,0.103,1.242,0.103c3.6,0,6.778-2.6,7.389-6.268l1-6C360.579,214.543,357.819,210.679,353.733,209.998z"/>
	<path d="M285.004,204.896c-1.98,0-3.91,0.8-5.31,2.2c-1.39,1.39-2.19,3.33-2.19,5.3c0,1.97,0.8,3.91,2.19,5.3
		c1.4,1.4,3.33,2.2,5.31,2.2c1.97,0,3.9-0.8,5.3-2.2c1.4-1.39,2.2-3.33,2.2-5.3c0-1.98-0.8-3.91-2.2-5.3
		C288.904,205.696,286.974,204.896,285.004,204.896z"/>
	<path d="M268.359,231.793l-3.5-2.5c-3.37-2.407-8.055-1.626-10.462,1.744c-2.408,3.371-1.627,8.055,1.744,10.462l3.5,2.5
		c1.321,0.944,2.844,1.397,4.353,1.397c2.34,0,4.646-1.092,6.109-3.141C272.511,238.884,271.73,234.2,268.359,231.793z"/>
	<path d="M389.504,142.896c-1.98,0-3.91,0.8-5.31,2.2c-1.39,1.39-2.19,3.32-2.19,5.3c0,1.97,0.8,3.91,2.19,5.3
		c1.4,1.4,3.33,2.2,5.31,2.2c1.97,0,3.9-0.8,5.3-2.2c1.4-1.39,2.2-3.33,2.2-5.3c0-1.98-0.8-3.91-2.2-5.3
		C393.404,143.696,391.474,142.896,389.504,142.896z"/>
</g>
<g>
</g>
<g>
</g>
<g>
</g>
<g>
</g>
<g>
</g>
<g>
</g>
<g>
</g>
<g>
</g>
<g>
</g>
<g>
</g>
<g>
</g>
<g>
</g>
<g>
</g>
<g>
</g>
<g>
</g>
</svg>
