<?xml version="1.0" encoding="iso-8859-1"?>
<!-- Generator: Adobe Illustrator 18.0.0, SVG Export Plug-In . SVG Version: 6.00 Build 0)  -->
<!DOCTYPE svg PUBLIC "-//W3C//DTD SVG 1.1//EN" "http://www.w3.org/Graphics/SVG/1.1/DTD/svg11.dtd">
<svg version="1.1" id="Capa_1" xmlns="http://www.w3.org/2000/svg" xmlns:xlink="http://www.w3.org/1999/xlink" x="0px" y="0px"
	 viewBox="0 0 472.75 472.75" style="enable-background:new 0 0 472.75 472.75;" xml:space="preserve">
<path d="M472.435,110.386c-0.911-4.415-3.709-8.174-7.678-10.312l-29.435-15.858c-2.684-1.446-4.784-3.801-5.916-6.631
	c-3.267-8.163-9.375-14.864-17.201-18.868c-0.098-0.05-0.196-0.098-0.296-0.144l-20.138-9.212c1.844-8.36,2.839-18.461,1.534-29.801
	c-0.387-3.355-2.968-6.039-6.306-6.555c-3.345-0.515-6.608,1.263-7.99,4.345c-3.312,7.391-14.983,22.724-32.023,42.069
	c-7.866,8.931-15.033,18.68-21.3,28.977l-23.112,37.97c-8.71,14.307-22.314,24.937-38.308,29.93
	c-97.106,30.321-140.744,34.347-158.135,34.031c-5.777-0.101-11.398,0.872-16.631,2.782l-5.811-8.009
	c-2.433-3.354-7.124-4.097-10.475-1.667c-3.353,2.433-4.099,7.123-1.666,10.475l4.845,6.679c-2.143,1.761-4.144,3.72-5.956,5.888
	c-13.089,15.661-19.238,38.599-18.276,68.176c0.186,5.726-0.408,11.494-1.767,17.146c-3.784,15.755-12.048,36.715-44.646,72.72
	c-1.208,1.333-1.896,3.057-1.938,4.855c-0.47,19.753-2.561,52.107-3.765,69.635c-0.368,5.368,1.526,10.701,5.198,14.634
	c3.673,3.934,8.866,6.189,14.248,6.189h12.291c8.186,0,14.846-6.66,14.846-14.845c0-8.6-4.624-16.619-12.065-20.927
	c-0.067-0.039-0.104-0.115-0.092-0.192l4.819-30.365c0.404-2.546,1.851-4.85,3.97-6.319l30.896-21.432
	c26.387-18.304,48.214-41.506,64.875-68.96l0.003-0.006c7.596-12.512,22.24-18.536,36.443-14.989l108.28,27.046l4.817,88.01
	c0.64,11.683,2.944,23.203,6.853,34.238l1.926,5.438c3.499,9.879,12.893,16.518,23.374,16.518h3.684
	c7.698,0,14.33-5.228,16.127-12.712c1.108-4.614,0.363-9.39-2.094-13.438c-0.614-1.017-1.44-1.927-2.527-2.786
	c-7.188-5.67-11.983-12.908-13.873-20.941l-0.119-0.501c-0.242-1.032-0.288-2.087-0.136-3.135l15.98-109.756
	c26.151-21.57,32.083-46.69,32.379-64.194c0.481-28.476,3.522-55.449,9.038-80.171c1.835-8.226,3.369-15.365,4.587-21.351
	c15.931,7.532,36.498,11.127,52.26,12.841c12.88,1.398,25.378-3.836,33.433-14.008C472.262,119.359,473.345,114.801,472.435,110.386
	z M457.704,113.582c-4.834,6.104-12.331,9.248-20.052,8.407c-24.689-2.684-44.217-8.28-54.985-15.758
	c-2.095-1.456-4.79-1.746-7.15-0.768c-2.359,0.978-4.058,3.09-4.509,5.603c-1.285,7.162-3.46,17.618-6.464,31.08
	c-5.735,25.709-8.896,53.696-9.396,83.184c-0.247,14.614-4.857,27.781-13.727,39.346l5.714-39.247
	c0.597-4.099-2.242-7.906-6.341-8.502c-4.094-0.593-7.905,2.242-8.503,6.341l-25.349,174.106c-0.425,2.919-0.297,5.856,0.38,8.738
	l0.119,0.502c2.606,11.08,8.982,20.984,18.459,28.694c0.126,0.403,0.193,0.924,0.049,1.524c-0.172,0.715-0.806,1.215-1.541,1.215
	h-3.684c-4.142,0-7.853-2.623-9.235-6.526l-1.925-5.437c-3.431-9.686-5.453-19.796-6.014-30.05l-6.56-119.849
	c-0.227-4.136-3.743-7.316-7.899-7.079c-4.136,0.227-7.305,3.763-7.079,7.898l0.885,16.164l-103.787-25.924
	c-7.39-1.846-14.863-1.902-21.918-0.383l5.732-9.445c2.148-3.542,1.02-8.154-2.521-10.303c-3.539-2.149-8.153-1.021-10.303,2.521
	l-23.895,39.376c-15.563,25.646-35.952,47.319-60.6,64.417l-30.896,21.432c-5.463,3.79-9.194,9.729-10.235,16.293l-4.819,30.364
	c-0.979,6.16,1.99,12.398,7.39,15.525c2.781,1.61,4.526,4.585,4.581,7.792H19.491c-1.698,0-2.787-0.894-3.284-1.427
	c-0.497-0.532-1.313-1.678-1.197-3.369c1.158-16.857,3.131-47.352,3.722-67.522c33.325-37.271,42.099-59.934,46.249-77.212
	c1.671-6.957,2.402-14.068,2.173-21.136c-0.827-25.421,4.289-45.501,14.794-58.071c5.771-6.904,14.73-10.943,23.92-10.769
	c0.705,0.012,1.413,0.018,2.137,0.018c43.011-0.002,118.892-21.665,160.732-34.729c19.476-6.081,36.043-19.025,46.649-36.449
	l23.112-37.971c5.813-9.55,12.455-18.587,19.743-26.861c7.298-8.285,13.511-15.679,18.618-22.158
	c-2.731,11.575-7.269,18.743-7.442,19.014c-2.277,3.448-1.336,8.091,2.108,10.379c3.449,2.293,8.104,1.354,10.397-2.096
	c0.247-0.373,2.729-4.182,5.369-10.667l18.217,8.333c1.094,0.57,2.126,1.233,3.095,1.973c-3.678,0.758-6.286,4.165-5.949,7.997
	c0.343,3.903,3.616,6.844,7.462,6.844c0.22,0,0.442-0.01,0.666-0.029l7.416-0.652c2.531,3.795,5.95,6.962,10.008,9.148
	l29.435,15.858c0.039,0.021,0.083,0.045,0.102,0.137C457.763,113.508,457.733,113.545,457.704,113.582z"/>
<g>
</g>
<g>
</g>
<g>
</g>
<g>
</g>
<g>
</g>
<g>
</g>
<g>
</g>
<g>
</g>
<g>
</g>
<g>
</g>
<g>
</g>
<g>
</g>
<g>
</g>
<g>
</g>
<g>
</g>
</svg>
