<?xml version="1.0" encoding="iso-8859-1"?>
<!-- Generator: Adobe Illustrator 18.0.0, SVG Export Plug-In . SVG Version: 6.00 Build 0)  -->
<!DOCTYPE svg PUBLIC "-//W3C//DTD SVG 1.1//EN" "http://www.w3.org/Graphics/SVG/1.1/DTD/svg11.dtd">
<svg version="1.1" id="Capa_1" xmlns="http://www.w3.org/2000/svg" xmlns:xlink="http://www.w3.org/1999/xlink" x="0px" y="0px"
	 viewBox="0 0 480.068 480.068" style="enable-background:new 0 0 480.068 480.068;" xml:space="preserve">
<g>
	<path d="M477.612,105.111l-4.962-11.694c-2.031-4.789-6.704-7.883-11.905-7.883h-3.617c-3.515-18.205-19.57-32-38.786-32h-28.624
		c-0.035,0-0.071,0-0.104,0h-11.312c-6.783,0-13.476,2.284-18.845,6.432L343.755,72.1c-3.256,2.516-3.877,7.184-1.393,10.464
		l0.125,0.164l-30.869,20.491c-11.077,7.353-23.02,13.406-35.495,17.993c-30.131,11.078-62.355,12.207-93.188,3.262
		c-50.12-14.538-104.333-2.482-143.536,31.432c-2.136,1.848-9.383,9.656-10.537,11.28c-15.237,21.448-23.145,47.428-22.362,73.809
		c0.382,12.868,0.571,24.292,0.562,33.954c-0.008,8.409,5.47,15.418,13.631,17.442c1.506,0.373,3.011,0.554,4.487,0.554
		c1.732,0,3.422-0.261,5.036-0.74l0.551,3.854c0.423,2.958-0.456,5.951-2.411,8.211l-18.336,21.202
		c-6.587,7.616-10.145,17.356-10.018,27.426l0.839,66.233c0.052,4.105,3.394,7.405,7.499,7.405h36c2.089,0,4.083-0.871,5.503-2.404
		c1.419-1.533,2.135-3.588,1.975-5.671l-1-13c-0.257-3.349-2.712-6.119-6.005-6.779c-0.074-0.015-5.87-1.184-12.405-3.023
		c3.872-31.376,18.521-51.909,20.556-54.631l11.378-11.094c19.271-18.789,34.34-42.083,43.577-67.364l5.172-14.155
		c17.281-13.526,26.069-10.877,68.223,15.948c36.035,22.931,77.255,25.917,94.005,26.099l1.036,22.569
		c1.684,36.694,8.014,73.101,18.817,108.21c0.968,3.147,3.875,5.294,7.168,5.294h30c3.104,0,5.886-1.911,7-4.808l5-13
		c1.334-3.469-0.073-7.393-3.31-9.222l-19.813-11.198c-3.251-23.168-2.556-46.531,2.075-69.503l8.563-42.488l2.61-2.254
		c12.81-11.063,21.282-26.37,23.857-43.1c1.402-9.114,5.067-17.83,10.599-25.205l12.22-16.292
		c9.609-12.812,22.001-23.544,36.032-31.274c3.827,2.39,8.223,3.622,12.649,3.621c4.467,0,8.963-1.25,12.928-3.816l23.252-15.045
		C478.579,134.813,483.461,118.9,477.612,105.111z M368.627,71.836c2.757-2.129,6.191-3.302,9.674-3.302h3.442l-1.549,27.927
		c-0.073,1.306-0.794,2.472-1.929,3.12c-1.667,0.954-3.8,0.517-4.96-1.014l-14.501-19.14L368.627,71.836z M24.304,277.831
		c-1.023-0.254-2.243-0.957-2.241-2.868c0.01-9.815-0.182-21.394-0.567-34.414c-0.342-11.515,1.228-22.935,4.518-33.828
		c-1.498,22.997-0.86,46.086,1.938,69.036c-0.094,0.18-0.194,0.371-0.3,0.572C26.707,278.123,25.149,278.041,24.304,277.831z
		 M457.857,130.356l-23.253,15.046c-3.557,2.302-8.248,1.752-11.177-1.31l-12.666-13.242c-2.917-3.048-7.787-3.102-10.768-0.074
		c-2.882,2.926-2.693,7.702,0.146,10.67l5.703,5.963c-14.201,8.526-26.764,19.81-36.698,33.056l-12.805,17.073
		c-6.859,9.145-11.098,19.91-12.849,31.206c-0.916,5.906-2.77,11.584-5.437,16.84l3.591-17.816c0.754-3.74-1.261-7.614-4.877-8.832
		c-4.372-1.472-8.896,1.242-9.778,5.617l-18.399,91.288c-5.22,25.9-5.777,52.266-1.656,78.364c0.356,2.26,1.726,4.233,3.718,5.359
		l17.368,9.817l-0.829,2.154h-19.271c-9.464-32.261-15.037-65.602-16.578-99.192l-1.369-29.838
		c-0.809-17.639-7.518-34.793-18.893-48.301c-2.732-3.242-7.619-3.592-10.787-0.715c-3.035,2.757-3.086,7.495-0.462,10.646
		c7.452,8.948,12.402,19.831,14.324,31.28c-15.907-0.354-53.045-3.509-84.785-23.707c-32.451-20.65-49.943-30.599-68.482-24.623
		l11.501-31.476c1.421-3.891-0.58-8.197-4.471-9.618c-3.893-1.423-8.197,0.58-9.619,4.47l-24.467,66.961
		c-8.47,23.182-22.287,44.542-39.958,61.771l-11.766,11.471c-0.221,0.215-0.429,0.444-0.621,0.685
		c-0.876,1.095-21.483,27.289-24.622,69.117c-0.258,3.431,1.826,6.59,5.091,7.678c4.073,1.358,8.299,2.513,11.806,3.39H15.746
		l-0.745-58.827c-0.08-6.397,2.181-12.585,6.365-17.424l18.336-21.202c4.794-5.543,6.951-12.89,5.915-20.145l-1.813-12.689
		c-6.146-47.596-2.939-82.733-0.467-99.509c1.067-7.242,4.829-13.834,10.571-18.374c34.938-27.624,81.584-37.034,124.846-24.484
		c33.928,9.842,69.386,8.6,102.543-3.59c13.572-4.99,26.564-11.575,38.614-19.574l31.649-21.009l9.498,12.537
		c5.669,7.483,15.995,10.045,24.253,5.58c5.795-3.134,9.493-8.974,9.857-15.531l1.596-28.759h21.574
		c13.553,0,24.57,11.061,24.5,24.629c-0.021,4.093,3.417,7.371,7.51,7.371h9.024l4.428,10.435
		C466.794,118.018,464.286,126.196,457.857,130.356z"/>
	<path d="M426.969,81.919l-12,4c-3.93,1.31-6.053,5.557-4.743,9.487c1.048,3.143,3.974,5.13,7.114,5.13
		c0.786,0,1.586-0.125,2.373-0.387l12-4c3.93-1.31,6.053-5.557,4.743-9.487C435.146,82.733,430.901,80.609,426.969,81.919z"/>
</g>
<g>
</g>
<g>
</g>
<g>
</g>
<g>
</g>
<g>
</g>
<g>
</g>
<g>
</g>
<g>
</g>
<g>
</g>
<g>
</g>
<g>
</g>
<g>
</g>
<g>
</g>
<g>
</g>
<g>
</g>
</svg>
