<?xml version="1.0" encoding="iso-8859-1"?>
<!-- Generator: Adobe Illustrator 18.0.0, SVG Export Plug-In . SVG Version: 6.00 Build 0)  -->
<!DOCTYPE svg PUBLIC "-//W3C//DTD SVG 1.1//EN" "http://www.w3.org/Graphics/SVG/1.1/DTD/svg11.dtd">
<svg version="1.1" id="Capa_1" xmlns="http://www.w3.org/2000/svg" xmlns:xlink="http://www.w3.org/1999/xlink" x="0px" y="0px"
	 viewBox="0 0 471.545 471.545" style="enable-background:new 0 0 471.545 471.545;" xml:space="preserve">
<g>
	<path d="M471.502,93.293l-0.234-5.15c-0.402-8.896-7.691-16.098-16.593-16.395l-33.805-1.127l-5.683-10.553
		c-3.334-6.193-10.036-9.997-17.055-9.668l-18.694,0.85c-24.999,1.137-46.26,19.178-51.701,43.873
		c-3.609,16.377-11.441,30.422-23.279,41.745c-0.166,0.159-0.354,0.359-0.505,0.534c-0.282,0.325-29.083,32.496-102.646,33.465
		c-4.633,0.061-10.273-0.131-16.802-0.354c-29.789-1.014-76.146-2.592-108.697,19.091l-24.941-5.263
		c-10.031-2.118-19.978,3.291-23.655,12.856c-3.493,9.081-0.298,19.222,7.771,24.66l11.439,7.711
		c-0.498,2.109-0.891,4.252-1.166,6.424l-6.384,50.49l-27.31,31.622c-8.989,10.408-13.028,24.185-11.083,37.798l6.297,44.078
		c1.725,12.076,12.225,21.183,24.424,21.183h16.789c7.425,0,13.465-6.041,13.465-13.465v-16.595
		c18.205-1.332,35.787-8.157,50.101-19.584c7.765-6.198,14.414-13.64,19.737-21.931c14.908,4.39,31.27,5.905,46.743,5.905
		c22.231,0,42.596-3.118,54.115-5.297c0.194,7.202,1.564,14.374,4.116,21.179c5.192,13.845,15.049,25.635,27.755,33.198
		l17.47,10.398c6.806,4.051,14.589,6.192,22.509,6.192h22.564c6.156,0,11.722-3.416,14.524-8.913
		c2.771-5.438,2.276-11.871-1.293-16.789c-4.02-5.536-8.587-9.729-13.606-12.498c-5.37-11.223-7.69-26.842-6.91-45.92l11.947-10.296
		c19.036-16.417,30.867-39.227,33.313-64.225l1.966-20.067l22.387-13.608c16.71-10.157,23.714-30.764,16.654-49l-12.6-32.551
		c2.49-6.518,8.928-10.732,16.062-10.224l8.698,0.621c11.474,0.817,22.861-1.677,32.938-7.219
		C464.213,123.011,472.205,108.764,471.502,93.293z M43.367,209.419c-2.237-1.508-3.123-4.319-2.154-6.836
		c1.02-2.652,3.779-4.153,6.559-3.564l13.609,2.872c-1.401,1.522-2.756,3.109-4.055,4.776c-2.07,2.657-3.901,5.491-5.482,8.467
		L43.367,209.419z M321.43,315.387l-0.156,0.135c0.027-0.194,0.048-0.381,0.075-0.575c3.385-23.836,9.494-43.123,9.555-43.314
		c1.262-3.945-0.913-8.165-4.857-9.427c-3.945-1.261-8.166,0.912-9.43,4.857c-0.992,3.099-22.53,71.582-6.691,115.774l-17.273,3.048
		c-4.079,0.72-6.802,4.61-6.082,8.689c0.642,3.639,3.806,6.198,7.377,6.198c0.433,0,0.871-0.038,1.313-0.116l24.168-4.265
		c2.897,1.711,5.659,4.344,8.229,7.882c0.106,0.146,0.389,0.535,0.067,1.164c-0.168,0.331-0.507,0.726-1.16,0.726h-22.564
		c-5.22,0-10.351-1.412-14.837-4.082l-17.47-10.398c-20.386-12.135-29.47-36.357-22.091-58.904l13.835-42.274
		c1.288-3.937-0.858-8.173-4.795-9.461c-3.943-1.288-8.172,0.859-9.461,4.795l-13.835,42.274c-0.699,2.135-1.27,4.303-1.741,6.49
		c-14.536,2.963-59.677,10.73-95.133,1.419c2.105-4.945,3.789-10.08,4.988-15.355l8.79-38.676c0.918-4.039-1.612-8.058-5.651-8.976
		c-4.037-0.92-8.057,1.612-8.976,5.651l-8.79,38.676c-3.794,16.695-13.253,31.772-26.634,42.454
		c-13.381,10.681-30.18,16.563-47.301,16.563H30.424c-4.142,0-7.5,3.358-7.5,7.5s3.358,7.5,7.5,7.5h16.03v14.804H31.199
		c-4.782,0-8.898-3.57-9.574-8.304l-6.297-44.079c-1.332-9.318,1.434-18.748,7.586-25.872l47.696-55.227
		c2.708-3.135,2.361-7.871-0.774-10.579c-3.137-2.708-7.871-2.361-10.579,0.774l-2.673,3.095l3.553-28.099
		c1.028-8.131,4.147-15.735,9.02-21.99c26.022-33.406,79.47-31.585,114.836-30.379c6.719,0.229,12.523,0.429,17.511,0.361
		c77.771-1.025,109.979-34.39,113.558-38.385c2.868-2.761,5.524-5.664,7.989-8.69l-1.456,82.362
		c-0.178,10.011,4.9,18.964,13.584,23.95c4.241,2.436,8.865,3.651,13.485,3.65c0.72,0,1.44-0.039,2.159-0.098l-1.216,12.406
		C347.54,282.206,337.532,301.5,321.43,315.387z M443.578,117.24c-7.578,4.209-16.157,6.108-24.805,5.492l-8.698-0.621
		c-9.021-0.644-17.48,2.604-23.609,8.45l-8.653-22.354c-1.494-3.862-5.836-5.784-9.701-4.287c-3.863,1.495-5.782,5.839-4.287,9.702
		l27.731,71.64c4.433,11.45,0.034,24.39-10.457,30.767l-26.178,15.912c-3.813,2.318-8.401,2.376-12.273,0.153
		c-3.871-2.222-6.134-6.213-6.055-10.675l1.581-89.413c0.2-11.29,1.736-22.495,4.181-33.519c0.01-0.045,0.02-0.091,0.03-0.137
		c3.984-18.081,19.501-31.287,37.734-32.116l18.694-0.85c1.299-0.063,2.547,0.646,3.166,1.795l7.727,14.349
		c1.266,2.35,3.685,3.851,6.353,3.94l38.114,1.271c1.131,0.038,2.057,0.952,2.108,2.083l0.234,5.151
		C456.953,103.552,451.96,112.585,443.578,117.24z"/>
	<path d="M397.389,69.051c-4.069-0.813-8.013,1.823-8.825,5.884l-1.568,7.843c-0.813,4.062,1.822,8.013,5.884,8.825
		c0.497,0.099,0.991,0.147,1.479,0.147c3.502,0,6.634-2.466,7.347-6.031l1.568-7.843C404.085,73.814,401.45,69.863,397.389,69.051z"
		/>
</g>
<g>
</g>
<g>
</g>
<g>
</g>
<g>
</g>
<g>
</g>
<g>
</g>
<g>
</g>
<g>
</g>
<g>
</g>
<g>
</g>
<g>
</g>
<g>
</g>
<g>
</g>
<g>
</g>
<g>
</g>
</svg>
