<?xml version="1.0" encoding="iso-8859-1"?>
<!-- Generator: Adobe Illustrator 18.0.0, SVG Export Plug-In . SVG Version: 6.00 Build 0)  -->
<!DOCTYPE svg PUBLIC "-//W3C//DTD SVG 1.1//EN" "http://www.w3.org/Graphics/SVG/1.1/DTD/svg11.dtd">
<svg version="1.1" id="Capa_1" xmlns="http://www.w3.org/2000/svg" xmlns:xlink="http://www.w3.org/1999/xlink" x="0px" y="0px"
	 viewBox="0 0 466.045 466.045" style="enable-background:new 0 0 466.045 466.045;" xml:space="preserve">
<path d="M464.615,121.549l-3.717-13.32c-0.905-3.242-3.858-5.484-7.223-5.484h-5.913v-3.393c0-7.432-3.907-14.292-10.245-18.174
	c-12.71-7.785-27.587-11.853-42.469-11.704l-3.006-31.868c-0.289-3.069-2.289-5.814-5.231-6.735
	c-3.642-1.14-7.474,0.604-9.053,3.965L363.26,65.724c-3.145,6.7-4.839,13.867-5.117,21.075l-19.531,14.984
	c-10.971,8.417-19.991,19.426-26.087,31.835c-11.585,23.583-34.114,39.191-60.266,41.75l-104.668,10.239
	c-16.109,1.576-31.689,6.472-45.765,14.176l-13.02-6.46c-7.559-3.751-18.246-1.577-23.374,5.125
	c-6.049,7.907-4.729,19.321,3.036,25.626l1.403,1.14c-11.287,12.728-19.813,27.819-24.835,44.099l-18.268,59.211
	c-1.252,4.06-4.591,7.222-8.713,8.252l-9.852,2.463c-3.235,0.809-5.549,3.658-5.675,6.991l-2.513,66.163
	c-0.225,5.94,1.856,11.578,5.869,15.933c4.328,4.696,10.543,7.196,16.929,7.196h12.792c1.659,0,3.314-0.458,4.647-1.448
	c2.699-2.005,3.684-5.411,2.679-8.424l-7.711-23.133l3.502-27.142c7.411-5.623,29.421-22.765,51.571-44.335
	c12.492-12.165,22.833-23.607,31.019-34.298c4.682-6.115,11.759-10.093,19.458-10.319c3.765-0.111,7.971,0.614,12.405,2.831
	c1.842,0.921,3.875,1.984,6.1,3.147c19.2,10.038,51.932,27.154,98.511,27.152c7.474,0,15.314-0.449,23.505-1.431l-3.862,44.422
	c-1.748,20.104,0.684,39.976,7.229,59.065c2.854,8.321,10.682,13.912,19.478,13.912h15.007c6.084,0,11.672-3.733,13.644-9.488
	c2.012-5.872,0.096-12.087-4.859-15.803l-10.127-7.595c0.335-15.81,2.805-31.483,7.353-46.644l16.221-54.068
	c5.147-3.271,10.121-7.5,14.82-12.604c13.983-15.187,22.322-35.33,23.479-56.72l0.087-1.621c1.581-29.248,22.634-54.208,51.196-60.7
	l4.623-1.051c10.319-2.346,19.456-8.586,24.93-17.642C466.016,142.472,467.475,131.795,464.615,121.549z M77.395,207.5
	c1.027-1.283,2.842-1.683,4.313-0.954l5.433,2.696c-2.248,1.697-4.425,3.494-6.552,5.352l-2.664-2.164
	C76.43,211.216,76.192,209.004,77.395,207.5z M447.749,143.697c-3.283,5.507-8.534,9.322-14.786,10.743l-5.331,1.212
	c-35.064,7.969-60.909,38.612-62.851,74.521l-0.087,1.621c-0.969,17.915-7.906,34.736-19.535,47.366
	c-4.443,4.826-9.095,8.628-13.826,11.302c-1.686,0.953-2.937,2.52-3.493,4.374l-17.054,56.846
	c-5.324,17.749-8.024,36.144-8.024,54.675c0,2.361,1.111,4.583,3,6l10.889,8.167h-12.515c-2.389,0-4.514-1.518-5.288-3.777
	c-5.862-17.097-8.04-34.895-6.475-52.9l5.757-66.205c0.262-3.008-1.307-5.88-3.979-7.287c-0.15-0.079-14.915-8.658-11.526-35.767
	c0.514-4.11-2.402-7.858-6.512-8.372c-4.121-0.515-7.859,2.401-8.373,6.512c-3.497,27.977,8.328,42.164,15.078,47.841l-0.197,2.265
	c-56.359,7.66-95.207-12.647-116.395-23.724c-2.313-1.209-4.428-2.314-6.341-3.271c-8.252-4.126-15.958-4.969-22.611-4.239
	c5.102-10.507,7.497-20.045,7.148-28.567c-0.166-4.034-3.488-7.193-7.488-7.193c-0.104,0-0.209,0.002-0.313,0.006
	c-4.139,0.17-7.355,3.662-7.187,7.801c1.513,36.867-73.256,100.271-102.192,121.591c-1.647,1.214-2.729,3.049-2.99,5.079
	l-4.127,31.984c-0.145,1.121-0.034,2.26,0.323,3.332l4.964,14.89h-3.126c-1.998,0-3.862-0.793-5.248-2.232
	c-1.387-1.439-2.108-3.333-2.033-5.329l2.3-60.536l4.389-1.097c9.182-2.295,16.618-9.339,19.409-18.383l18.268-59.211
	c5.112-16.572,14.366-31.745,26.762-43.877c16.959-16.598,39.305-27.011,62.921-29.321l104.668-10.239
	c31.359-3.068,58.375-21.784,72.268-50.065c5.083-10.349,12.605-19.528,21.755-26.547l12.521-9.606
	c0.727,2.504,1.621,4.974,2.715,7.383l6.485,14.268c1.257,2.765,3.981,4.398,6.833,4.398c1.037,0,2.093-0.217,3.099-0.674
	c3.771-1.714,5.438-6.16,3.725-9.931l-6.485-14.268c-4.803-10.565-4.729-22.65,0.202-33.157l2.823-6.015l2.578,27.327
	c0.389,4.124,4.044,7.15,8.171,6.762c4.124-0.389,7.151-4.047,6.763-8.171l-0.71-7.523c11.707,0.111,23.345,3.416,33.329,9.56
	c1.832,1.127,2.97,3.164,2.97,5.314v3.256l-3.714-0.067c-0.046-0.001-0.092-0.001-0.139-0.001c-4.078,0-7.422,3.269-7.496,7.364
	c-0.075,4.142,3.222,7.56,7.363,7.635l19.205,0.208l2.187,7.835C451.891,131.756,451.032,138.19,447.749,143.697z"/>
<g>
</g>
<g>
</g>
<g>
</g>
<g>
</g>
<g>
</g>
<g>
</g>
<g>
</g>
<g>
</g>
<g>
</g>
<g>
</g>
<g>
</g>
<g>
</g>
<g>
</g>
<g>
</g>
<g>
</g>
</svg>
