<?xml version="1.0" encoding="iso-8859-1"?>
<!-- Generator: Adobe Illustrator 18.0.0, SVG Export Plug-In . SVG Version: 6.00 Build 0)  -->
<!DOCTYPE svg PUBLIC "-//W3C//DTD SVG 1.1//EN" "http://www.w3.org/Graphics/SVG/1.1/DTD/svg11.dtd">
<svg version="1.1" id="Capa_1" xmlns="http://www.w3.org/2000/svg" xmlns:xlink="http://www.w3.org/1999/xlink" x="0px" y="0px"
	 viewBox="0 0 487.842 487.842" style="enable-background:new 0 0 487.842 487.842;" xml:space="preserve">
<path d="M487.816,150.493c-0.204-2.437-1.583-4.622-3.695-5.854l-33.241-19.391l-4.199-15.955c-0.52-1.976-1.824-3.655-3.611-4.647
	l-23.394-12.997l-0.267-3.737c-1.068-14.956-9.221-28.748-21.811-36.894c-2.032-1.315-4.574-1.568-6.827-0.68
	c-2.252,0.888-3.937,2.809-4.523,5.158l-12.354,49.416l-48.988,38.821c-15.23,0.68-98.985,4.419-163.465,7.235
	c-25.315,1.106-49.791,9.196-70.78,23.396c-10.881,7.362-20.573,16.214-28.852,26.239C38.829,204.882,21.579,225,21.187,248.639
	l-1.407,84.787L7.591,345.33c-1.283,1.253-2.075,2.925-2.231,4.712L0.097,410.19c-0.625,7.133,1.792,14.251,6.628,19.53
	c4.837,5.279,11.718,8.307,18.878,8.307h11.676c4.142,0,7.5-3.358,7.5-7.5v-6.985c0-7.253-4.202-13.544-10.298-16.566l2.854-25.281
	c1.847-16.364,11.81-30.615,26.651-38.124l0.972-0.491c28.43-14.382,51.755-37.307,66.833-65.028l150.353,40.511l-1.891,31.52
	c-1.352,22.531-0.117,45.237,3.67,67.487c2.018,11.854,12.209,20.458,24.234,20.458h23.499c4.142,0,7.5-3.358,7.5-7.5
	c0-11.536-7.71-21.304-18.249-24.422c-0.334-13.363,1.167-26.677,4.477-39.662l17.069-66.962l35.458-38.869
	c22.656-24.835,36.933-56.902,40.237-90.353l25.799,5.733c9.027,2.007,18.657-0.331,25.761-6.25l15.435-12.863
	C487.022,155.313,488.02,152.93,487.816,150.493z M397.755,71.321c3.851,5.063,6.232,11.204,6.693,17.66l0.382,5.35l-2.964,4.742
	c-1.774,2.838-4.55,4.801-7.816,5.528c-1.555,0.346-3.126,0.382-4.649,0.138L397.755,71.321z M36.185,248.888
	c0.141-8.525,3.426-16.393,8.776-22.423c-0.806,1.61-1.59,3.233-2.334,4.878l-0.409,0.905c-3.774,8.341-4.916,17.51-3.303,26.518
	l0.173,0.962c2.832,15.811,1.413,31.955-3.859,46.819L36.185,248.888z M366.829,250.502l-36.722,40.254
	c-0.83,0.91-1.422,2.009-1.727,3.202l-17.532,68.779c-4.193,16.45-5.754,33.38-4.638,50.32c0.26,3.942,3.533,7.007,7.484,7.007
	c2.83,0,5.402,1.13,7.287,2.962h-12.824c-4.688,0-8.661-3.354-9.447-7.975c-3.596-21.124-4.768-42.681-3.485-64.071l2.057-34.279
	c1.345-22.408-1.321-44.65-7.923-66.108l-10.408-33.825c-1.218-3.959-5.417-6.179-9.374-4.963c-3.959,1.218-6.181,5.415-4.963,9.374
	l10.408,33.825c4.827,15.687,7.357,31.831,7.574,48.145l-144.173-38.846c2.055-4.859,3.869-9.835,5.423-14.91l0.392-1.28
	c1.213-3.96-1.013-8.155-4.974-9.368c-3.961-1.215-8.155,1.013-9.368,4.973l-0.392,1.28c-11.202,36.563-37.196,67.433-71.319,84.695
	l-0.972,0.492c-19.365,9.797-32.369,28.423-34.785,49.825l-3.58,31.712c-0.24,2.122,0.437,4.246,1.86,5.838s3.457,2.503,5.593,2.503
	c1.742,0,3.189,1.288,3.438,2.962h-4.138c-3.009,0-5.786-1.222-7.818-3.44s-3.008-5.091-2.745-8.088l5.02-57.379l12.408-12.117
	c0.246-0.24,0.476-0.498,0.687-0.77c18.468-23.814,26.012-54.485,20.698-84.151l-0.173-0.962
	c-1.076-6.007-0.314-12.124,2.204-17.688l0.411-0.907c9.296-20.549,24.087-38.093,42.774-50.735
	c18.691-12.645,40.486-19.849,63.029-20.834c70.848-3.094,164.96-7.302,165.903-7.344c1.575-0.07,3.087-0.635,4.323-1.614
	l49.146-38.946c3.141,1.224,6.461,1.858,9.828,1.858c1.997,0,4.011-0.22,6.01-0.665c7.222-1.607,13.358-5.947,17.279-12.22
	l0.484-0.774l12.025,6.68l-4.944,4.944c-1.773,1.773-2.543,4.315-2.051,6.774s2.18,4.509,4.499,5.464l12.123,4.991
	c-10.569,3.186-20.257,9.173-27.822,17.48l-1.118-0.313c-8.09-2.265-13.741-9.715-13.741-18.117c0-4.142-3.358-7.5-7.5-7.5
	s-7.5,3.358-7.5,7.5c0,14.992,10.013,28.293,24.387,32.467l-0.16,1.678C400.37,198.727,387.429,227.921,366.829,250.502z
	 M460.106,158.218c-3.559,2.965-8.383,4.136-12.905,3.131l-20.654-4.59c9.427-7.022,21.353-10.343,33.197-8.975l7.577,4.42
	L460.106,158.218z"/>
<g>
</g>
<g>
</g>
<g>
</g>
<g>
</g>
<g>
</g>
<g>
</g>
<g>
</g>
<g>
</g>
<g>
</g>
<g>
</g>
<g>
</g>
<g>
</g>
<g>
</g>
<g>
</g>
<g>
</g>
</svg>
