<?xml version="1.0" encoding="iso-8859-1"?>
<!-- Generator: Adobe Illustrator 18.0.0, SVG Export Plug-In . SVG Version: 6.00 Build 0)  -->
<!DOCTYPE svg PUBLIC "-//W3C//DTD SVG 1.1//EN" "http://www.w3.org/Graphics/SVG/1.1/DTD/svg11.dtd">
<svg version="1.1" id="Capa_1" xmlns="http://www.w3.org/2000/svg" xmlns:xlink="http://www.w3.org/1999/xlink" x="0px" y="0px"
	 viewBox="0 0 489.5 489.5" style="enable-background:new 0 0 489.5 489.5;" xml:space="preserve">
<path d="M489.092,95.424c-0.74-2.151-2.417-3.85-4.558-4.619L448.166,77.75l-6.111-10.864c-2.028-3.603-5.511-6.153-9.558-6.996
	l-34.898-7.271c-9.146-1.905-18.379,1.902-23.524,9.7l-50.962,77.239c-3.597,5.452-9.366,9.164-15.827,10.183
	c-24.598,3.88-72.476,10.233-116.691,9.187c-21.268-0.502-41.948,2.683-61.497,9.47c-6.079,2.111-11.773,4.468-17.078,7.058
	c-9.855-0.573-67.852-2.281-76.578,35.894c-8.14,35.615,17.475,71.732,21.829,77.538c-0.011,0.381-0.022,0.771-0.032,1.143
	c-0.616,22-0.71,25.381-16.031,34.362C11.697,341.694,4.18,351.421,3.42,352.474c-0.882,1.221-1.376,2.68-1.417,4.186l-2,73
	c-0.056,2.024,0.709,3.984,2.122,5.436s3.351,2.27,5.375,2.27H39c2.411,0,4.675-1.159,6.084-3.115s1.793-4.47,1.03-6.757
	l-0.775-2.324c-2.147-6.441-6.809-11.663-12.761-14.586c0.664-15.354,5.243-44.048,21.675-51.96
	c7.675-3.695,17.572-8.921,27.917-15.587c1.612,7.482,1.91,14.457,0.853,20.794c-0.681,4.086,2.079,7.95,6.165,8.631
	c0.417,0.069,0.833,0.103,1.242,0.103c3.6,0,6.778-2.6,7.389-6.268c1.66-9.958,0.821-20.86-2.485-32.433
	c2.167-1.638,4.322-3.336,6.448-5.095c18.831-15.59,31.075-32.315,36.39-49.711c1.408-4.609,5.204-15.606,5.874-16.885
	c3.133-5.982,8.345-10.634,14.774-13.064c6.921-2.615,14.743-2.336,21.46,0.763l73.956,34.133
	c18.53,8.552,38.918,13.173,59.333,13.511c9.35,43.911,4.703,77.19,2.468,88.704c-1.127,5.803-0.301,11.892,2.326,17.145
	l13.928,27.855c1.271,2.541,3.867,4.146,6.708,4.146h30c2.686,0,5.166-1.436,6.503-3.765c1.338-2.329,1.328-5.195-0.025-7.515
	l-2.938-5.036c-2.85-4.886-7.39-8.583-12.654-10.451l-4.318-13.672l6.092-102.703c0.394-6.637,2.44-12.989,5.917-18.368
	c7.632-11.808,16.589-32.349,15.92-63.154c-0.791-36.403,23.373-77.516,30.991-89.542l40.421,2.343
	c11.75,0.684,22.978-5.083,29.27-15.044l4.161-6.588C489.556,99.946,489.832,97.576,489.092,95.424z M50.064,214.694
	c3.479-15.22,21.59-21.04,37.362-23.183c-14.367,12.587-23.144,28.16-25.844,46.246c-1.379,9.242-2.288,17.371-2.908,24.577
	C52.289,249.496,46.199,231.603,50.064,214.694z M455.778,108.528l-44.758-2.595c-4.017-0.233-7.791-2.146-10.354-5.249
	l-7.504-9.084c-2.639-3.193-7.365-3.644-10.559-1.005c-3.193,2.638-3.644,7.366-1.005,10.559l7.504,9.083
	c2.68,3.245,6.015,5.843,9.73,7.672c-10.319,17.088-31.132,56.265-30.33,93.118c0.617,28.425-8.207,46.463-13.521,54.686
	c-4.878,7.548-7.746,16.408-8.293,25.622l-6.174,104.085c-0.054,0.914,0.059,1.83,0.335,2.703l6,19
	c0.4,1.267,1.117,2.375,2.053,3.242h-5.266l-11.855-23.709c-1.156-2.312-1.517-5.003-1.017-7.578
	c4.214-21.712,10.615-79.914-20.903-151.244c-1.674-3.789-6.103-5.5-9.892-3.829c-3.789,1.674-5.503,6.103-3.829,9.892
	c5.901,13.355,10.377,26.254,13.742,38.496c-17.012-0.792-33.906-4.876-49.36-12.007l-73.956-34.133
	c-10.345-4.775-22.39-5.203-33.049-1.175c0,0-0.001,0-0.001,0c2.629-6.518,4.225-9.926,4.263-10.004
	c1.771-3.743,0.173-8.212-3.569-9.985c-3.743-1.774-8.215-0.176-9.988,3.567c-0.377,0.796-9.361,19.91-20.395,56.019
	c-3.641,11.917-18.343,42.635-76.081,70.435c-30.983,14.917-30.29,68.625-30.245,70.904c0.053,2.687,1.526,5.069,3.755,6.353h-6.048
	l1.713-62.521c3.102-3.085,11.849-10.771,31.872-22.508c22.496-13.188,22.792-23.747,23.439-46.883
	c0.326-11.652,0.772-27.611,4.186-50.48c3.907-26.175,23.286-45.488,57.6-57.402c17.848-6.196,36.761-9.105,56.222-8.644
	c45.406,1.076,94.287-5.407,119.384-9.366c10.616-1.675,20.096-7.776,26.01-16.739l50.962-77.239
	c1.622-2.459,4.451-3.721,7.333-3.356l-1.43,1.544c-2.815,3.039-2.633,7.784,0.405,10.599c1.443,1.337,3.271,1.998,5.095,1.998
	c2.016,0,4.026-0.808,5.504-2.403l7.601-8.206l18.031,3.757l2.07,3.679c-2.942,1.326-4.798,4.463-4.35,7.826
	c0.502,3.77,3.723,6.51,7.425,6.51c0.33,0,0.664-0.022,1-0.067l6.903-0.92l28.415,10.2
	C467.111,106.29,461.563,108.863,455.778,108.528z"/>
<g>
</g>
<g>
</g>
<g>
</g>
<g>
</g>
<g>
</g>
<g>
</g>
<g>
</g>
<g>
</g>
<g>
</g>
<g>
</g>
<g>
</g>
<g>
</g>
<g>
</g>
<g>
</g>
<g>
</g>
</svg>
