<?xml version="1.0" encoding="iso-8859-1"?>
<!-- Generator: Adobe Illustrator 18.0.0, SVG Export Plug-In . SVG Version: 6.00 Build 0)  -->
<!DOCTYPE svg PUBLIC "-//W3C//DTD SVG 1.1//EN" "http://www.w3.org/Graphics/SVG/1.1/DTD/svg11.dtd">
<svg version="1.1" id="Capa_1" xmlns="http://www.w3.org/2000/svg" xmlns:xlink="http://www.w3.org/1999/xlink" x="0px" y="0px"
	 viewBox="0 0 473.892 473.892" style="enable-background:new 0 0 473.892 473.892;" xml:space="preserve">
<g>
	<path d="M415.299,97.013l-3.975-2.474c-3.518-2.189-8.142-1.113-10.331,2.404c-2.188,3.516-1.112,8.142,2.403,10.331l3.975,2.474
		c1.234,0.768,2.604,1.134,3.957,1.134c2.505,0,4.953-1.254,6.374-3.538C419.89,103.827,418.814,99.202,415.299,97.013z"/>
	<path d="M473.667,120.792c-0.519-2.066-1.893-3.815-3.777-4.808l-34.219-18.038L430.3,72.877c-0.393-1.828-1.453-3.444-2.975-4.531
		l-13.55-9.679l5.474-17.232c0.854-2.689,0.126-5.63-1.883-7.611c-2.01-1.981-4.961-2.666-7.638-1.774
		c-0.399,0.133-9.913,3.338-19.782,9.506c-2.808,1.755-5.366,3.589-7.688,5.488l-6.095,0.229
		c-25.23,0.948-48.709,12.83-64.416,32.598l-54.353,68.404l-65.015,11.05c-45.468,7.733-70.9-6.419-81.642-15.035
		c4.694-2.669,9.979-4.074,15.362-4.074c10.115,0,19.624,4.928,25.438,13.184c1.22,1.731,3.113,2.866,5.216,3.125
		c2.104,0.26,4.216-0.383,5.817-1.767l16.771-14.481c9.479-8.179,14.915-20.06,14.915-32.598c0-10.96-4.128-21.405-11.622-29.409
		c-15.673-16.741-37.826-26.342-60.779-26.342c-16.938,0-33.27,5.094-47.229,14.732c-32.789,22.637-44.94,65.53-28.893,101.99
		l2.881,6.548L33.87,194.557C7.743,228.858-1.027,272.467,9.809,314.199l5.954,22.94l-9.84,11.406
		c-4.238,4.917-6.319,11.198-5.861,17.694l3.695,51.748c0.98,13.594,12.421,24.242,26.044,24.242h25.85
		c3.224,0,6.289-1.549,8.201-4.144c1.911-2.595,2.482-5.981,1.526-9.063c-1.947-6.266-5.768-11.635-11.048-15.526
		c-3.251-2.396-6.873-4.096-10.707-5.05L43.306,387.6c-0.127-8.342,3.964-16.051,10.943-20.622l32.537-21.31
		c8.726-5.723,16.181-13.47,21.558-22.402l7.804-12.963c5.708-9.473,15.729-15.128,26.806-15.128c6.084,0,12.011,1.783,17.137,5.156
		c15.592,10.264,34.404,14.891,52.982,13.024l60.141-6.044l1.023,64.115c0.085,5.32,1.388,10.647,3.768,15.407l21.259,42.518
		c3.971,7.941,11.952,12.874,20.83,12.874h27.82c4.573,0,8.826-2.465,11.1-6.433c2.273-3.968,2.249-8.884-0.064-12.83
		c-4.559-7.777-12.284-13.144-20.977-14.84l-4.44-16.774l8.463-91.136l19.346-20.959c13.718-14.861,23.455-33.113,28.16-52.783
		l16.327-68.261l29.087-0.652c10.773-0.241,20.804-5.718,26.832-14.65l10.862-16.095
		C473.801,125.048,474.185,122.858,473.667,120.792z M83.148,79.002c11.443-7.9,24.828-12.076,38.708-12.076
		c18.819,0,36.981,7.871,49.829,21.594c4.883,5.215,7.572,12.018,7.572,19.157c0,8.172-3.541,15.914-9.716,21.243l-11.068,9.557
		c-8.547-8.415-20.163-13.263-32.373-13.263c-18.484,0-51.401,20.115-66.873,36.824C46.447,132.274,56.44,97.442,83.148,79.002z
		 M449.313,134.517c-3.31,4.905-8.818,7.912-14.734,8.045l-31.19,0.699c-9.017,0.202-17.818-2.108-25.543-6.679
		c-5.188-3.073-9.748-7.31-13.188-12.253c-2.367-3.4-7.041-4.238-10.44-1.872s-4.238,7.041-1.872,10.44
		c4.658,6.693,10.832,12.43,17.857,16.592c6.351,3.758,13.271,6.343,20.449,7.692l-15.739,65.801
		c-4.109,17.179-12.614,33.12-24.594,46.098l-21.068,22.824c-1.117,1.21-1.805,2.754-1.957,4.394l-8.82,94.989
		c-0.081,0.877-0.008,1.761,0.218,2.613l6.106,23.069c0.87,3.29,3.847,5.581,7.25,5.581c4.294,0,8.379,1.728,11.372,4.677h-23.326
		c-3.159,0-6.001-1.756-7.414-4.583l-21.259-42.518c-1.381-2.761-2.137-5.852-2.186-8.938l-1.933-121.132
		c-0.066-4.142-3.512-7.443-7.619-7.379c-4.142,0.066-7.445,3.477-7.379,7.619l0.669,41.966l-61.401,6.17
		c-15.146,1.522-30.508-2.251-43.236-10.629c-7.582-4.989-16.359-7.626-25.383-7.626c-3.688,0-7.29,0.446-10.766,1.263
		c10.85-24.863,8.713-53.507-6.201-76.708c-2.239-3.484-6.881-4.493-10.364-2.253c-3.484,2.24-4.493,6.88-2.253,10.365
		c13.542,21.066,14.187,47.632,1.683,69.331l-11.731,20.356c-0.007,0.012-0.015,0.023-0.022,0.034l-7.806,12.966
		c-4.223,7.015-10.078,13.1-16.929,17.593L46.031,354.43c-11.304,7.403-17.93,19.889-17.723,33.399l0.416,27.331
		c0.063,4.097,3.401,7.386,7.499,7.386c3.338,0,6.522,1.046,9.209,3.026c0.686,0.505,1.322,1.059,1.907,1.657H29.802
		c-5.797,0-10.665-4.534-11.083-10.316l-3.693-51.736c-0.178-2.513,0.625-4.942,2.258-6.836l12.406-14.381
		c1.608-1.865,2.199-4.4,1.581-6.783l-6.941-26.747c-9.672-37.248-1.845-76.169,21.475-106.785l17.424-22.879
		c0.026-0.035,0.045-0.073,0.071-0.108c0.009-0.012,0.02-0.022,0.029-0.035c11.648-16.05,26.343-24.92,33.556-28.59
		c8.582,8.17,30.705,24.52,70.376,24.518c8.409,0,17.614-0.736,27.636-2.441l67.843-11.531c1.822-0.31,3.466-1.281,4.615-2.728
		L323.491,89.2c11.431-14.386,27.844-23.71,45.839-26.269c-1.446,3.151-2.359,6.388-2.681,9.692
		c-0.402,4.123,2.614,7.791,6.736,8.193c4.12,0.401,7.791-2.614,8.193-6.736c0.84-8.61,9.562-15.926,18.232-21.002l-6.914,21.765
		c-1.254,3.948,0.93,8.165,4.878,9.418c0.755,0.24,1.52,0.354,2.272,0.354c3.18,0,6.132-2.039,7.146-5.231l1.808-5.693l7.239,5.171
		l0.226,1.056c-3.11,0.45-5.73,2.836-6.313,6.101c-0.728,4.078,1.988,7.973,6.066,8.701l3.554,0.634l1.963,9.163
		c0.466,2.173,1.871,4.027,3.837,5.063l29.923,15.774L449.313,134.517z"/>
</g>
<g>
</g>
<g>
</g>
<g>
</g>
<g>
</g>
<g>
</g>
<g>
</g>
<g>
</g>
<g>
</g>
<g>
</g>
<g>
</g>
<g>
</g>
<g>
</g>
<g>
</g>
<g>
</g>
<g>
</g>
</svg>
