<?xml version="1.0" encoding="iso-8859-1"?>
<!-- Generator: Adobe Illustrator 18.0.0, SVG Export Plug-In . SVG Version: 6.00 Build 0)  -->
<!DOCTYPE svg PUBLIC "-//W3C//DTD SVG 1.1//EN" "http://www.w3.org/Graphics/SVG/1.1/DTD/svg11.dtd">
<svg version="1.1" id="Capa_1" xmlns="http://www.w3.org/2000/svg" xmlns:xlink="http://www.w3.org/1999/xlink" x="0px" y="0px"
	 viewBox="0 0 464.801 464.801" style="enable-background:new 0 0 464.801 464.801;" xml:space="preserve">
<g>
	<path d="M451.815,181.708l0.418-16.642c0.206-8.17-4.02-15.859-11.028-20.065l-24.671-14.807
		c-10.251-6.157-23.166-6.445-33.711-0.745l-56.427,30.571c-7.609,4.12-13.374,10.896-16.252,19.134
		c-0.074,0.217-0.315,0.694-1.104,1.461c-0.824,0.801-1.978,1.675-3.539,2.678c-6.818,4.397-14.501,7.293-22.834,8.607
		c-1.871,0.294-3.895,0.636-6.05,0.999c-19.53,3.294-49.043,8.272-70.219-4.015c-22.315-12.949-46.951-19.611-71.255-19.28
		c-18.426,0.254-36.055,4.608-50.674,12.375c-2.19-26.982-3.991-78.797,10.522-108.371c7.045-14.346,4.209-25.406,0.589-32.158
		C89.188,29.53,74.887,19.939,53.073,12.946C37.613,7.99,23.983,6.173,23.41,6.098c-3.647-0.476-7.092,1.753-8.153,5.269
		c-1.103,3.655-26.815,90.117-8.975,142.802c12.571,37.096,32.188,56.84,43.671,65.785c-2.634,7.992-3.361,16.469-2.009,25.117
		c7.689,49.268,6.149,103.882-3.924,139.137c-0.324,1.134-0.376,2.329-0.152,3.486c2.76,14.252,6.307,32.969,8.797,46.16
		c2.724,14.433,15.363,24.908,30.052,24.908h14.6c3.839,0,7.058-2.899,7.459-6.717l0.544-5.181
		c1.018-9.681-5.037-18.65-14.392-21.326c-2.063-0.591-3.674-2.164-4.311-4.218c-0.945-3.03-1.424-6.182-1.424-9.368
		c0-11.282,6.069-21.783,15.843-27.405l12.488-7.194c12.356-7.112,22.703-16.937,30.458-28.467
		c8.959,3.813,27.028,11.24,47.726,18.293c31.871,10.861,56.72,16.328,74.138,16.328c1.667,0,3.245-0.065,4.776-0.165
		c1.099,3.28,2.228,6.636,3.372,10.039c5.579,16.585,11.348,33.735,14.768,45.531c3.389,11.69,14.261,19.854,26.439,19.854h13.62
		c2.139,0,4.176-0.913,5.599-2.51c1.423-1.597,2.097-3.725,1.852-5.85l-1.632-14.149c-0.755-6.539-3.91-12.515-8.885-16.828
		l-4.196-3.636l0.486-34.95c0.024-1.756,0.154-3.501,0.364-5.233l50.956-25.773c22.278-11.271,36.377-33.783,36.795-58.751
		l0.293-17.667c2.431-0.223,4.811-1.159,6.854-2.809c4.554-3.679,5.999-9.745,3.594-15.093c-0.224-0.498-0.441-1-0.661-1.501
		c9.981-1.264,19.519-5.533,27.254-12.412c10.998-9.78,17.305-23.819,17.305-38.518v-5.591
		C464.801,189.689,459.207,183.162,451.815,181.708z M20.489,149.357C6.79,108.901,22.392,42.614,27.865,22.009
		c16.663,3.114,46.449,11.505,54.5,26.54c2.886,5.39,2.612,11.425-0.839,18.452c-17.503,35.666-14.119,96.039-11.27,124.395
		c-5.43,4.469-9.951,9.419-13.507,14.729C47.052,197.874,31.031,180.465,20.489,149.357z M449.801,203.087
		c0,10.418-4.474,20.372-12.273,27.309c-6.442,5.729-14.631,8.894-22.994,9.016c-7.656-21.926-11.956-44.589-14.013-57.663
		c-0.802-5.099,2.541-9.928,7.61-10.995c4.053-0.854,6.647-4.831,5.794-8.884c-0.854-4.053-4.831-6.647-8.884-5.794
		c-12.887,2.713-21.381,15.014-19.338,28.005c2.956,18.792,8.442,45.324,18.157,69.656c-16.841-13.125-29.497-25.804-37.467-34.546
		c-3.838-4.211-6.17-9.65-6.565-15.315l-1.711-24.526c-0.289-4.132-3.874-7.241-8.004-6.96c-4.132,0.289-7.248,3.872-6.96,8.004
		l1.711,24.526c0.63,9.022,4.339,17.679,10.444,24.376c8.518,9.344,22.138,22.961,40.261,36.983l-0.407,24.559
		c-0.325,19.385-11.271,36.864-28.568,45.615l-36.881,18.655c1.32-2.087,2.79-4.088,4.424-5.97l24.211-27.896
		c2.715-3.128,2.38-7.865-0.748-10.58c-3.129-2.717-7.865-2.379-10.58,0.748l-24.211,27.896
		c-9.954,11.468-15.551,26.146-15.762,41.33l-0.534,38.438c-0.03,2.211,0.917,4.323,2.587,5.772l6.832,5.92
		c2.132,1.848,3.484,4.409,3.808,7.211l0.668,5.79h-5.205c-5.543,0-10.491-3.713-12.033-9.031
		c-3.508-12.101-9.329-29.403-14.957-46.136c-4.271-12.698-8.329-24.76-11.346-34.408c8.013-16.477,5.452-44.358,5.111-47.682
		c-0.422-4.119-4.1-7.116-8.222-6.694c-4.119,0.42-7.118,4.102-6.7,8.221c1.158,11.409,0.935,32.695-4.595,41.242
		c-1.202,1.857-1.522,4.15-0.876,6.266c1.198,3.92,2.594,8.293,4.126,12.984c-30.44-0.006-86.538-20.984-114.357-32.789
		c5.286-11.515,8.246-24.144,8.422-37.135l0.16-11.799c0.056-4.142-3.256-7.544-7.398-7.601c-4.173-0.065-7.544,3.256-7.601,7.398
		l-0.16,11.798c-0.369,27.139-15.212,52.411-38.739,65.953l-12.486,7.193c-14.409,8.289-23.359,23.771-23.359,40.405
		c0,4.703,0.708,9.357,2.102,13.824c2.138,6.891,7.559,12.193,14.505,14.184c1.834,0.524,3.162,2.016,3.528,3.802h-7.61
		c-7.485,0-13.925-5.337-15.313-12.69c-2.393-12.677-5.762-30.453-8.474-44.489c10.187-37.209,11.708-93.372,3.833-143.828
		c-2.553-16.33,5.378-32.125,21.762-43.334c25.158-17.212,70.27-23.133,114.343,2.438c25.859,15.005,59.902,9.263,80.242,5.832
		c2.097-0.354,4.067-0.686,5.889-0.973c10.413-1.643,20.045-5.283,28.621-10.813c2.437-1.566,4.304-3.008,5.874-4.535
		c2.346-2.281,3.932-4.694,4.827-7.322c1.625-4.65,4.898-8.5,9.217-10.838l56.421-30.568c5.897-3.186,13.12-3.029,18.851,0.413
		l24.674,14.808c2.384,1.431,3.822,4.046,3.752,6.826l-0.604,24.028c-0.051,2.021,0.716,3.978,2.128,5.425s3.348,2.264,5.37,2.264
		h4.566c0.608,0,1.103,0.489,1.103,1.09V203.087z"/>
	<path d="M423.559,177.999c-1.98,0-3.91,0.8-5.31,2.2c-1.39,1.39-2.19,3.33-2.19,5.3c0,1.97,0.8,3.91,2.19,5.3
		c1.4,1.4,3.33,2.2,5.31,2.2c1.97,0,3.9-0.8,5.3-2.2c1.4-1.39,2.2-3.33,2.2-5.3c0-1.97-0.8-3.91-2.2-5.3
		C427.469,178.799,425.529,177.999,423.559,177.999z"/>
</g>
<g>
</g>
<g>
</g>
<g>
</g>
<g>
</g>
<g>
</g>
<g>
</g>
<g>
</g>
<g>
</g>
<g>
</g>
<g>
</g>
<g>
</g>
<g>
</g>
<g>
</g>
<g>
</g>
<g>
</g>
</svg>
