<?xml version="1.0" encoding="iso-8859-1"?>
<!-- Generator: Adobe Illustrator 18.0.0, SVG Export Plug-In . SVG Version: 6.00 Build 0)  -->
<!DOCTYPE svg PUBLIC "-//W3C//DTD SVG 1.1//EN" "http://www.w3.org/Graphics/SVG/1.1/DTD/svg11.dtd">
<svg version="1.1" id="Capa_1" xmlns="http://www.w3.org/2000/svg" xmlns:xlink="http://www.w3.org/1999/xlink" x="0px" y="0px"
	 viewBox="0 0 475.29 475.29" style="enable-background:new 0 0 475.29 475.29;" xml:space="preserve">
<path d="M468.903,74.039l-37.77-5.666l-3.134-6.964c-4.146-9.21-13.965-14.28-23.87-12.335l-27.068,5.317
	c-15.286,3.003-28.005,13.374-34.025,27.742l-16.582,39.586c-4.529,10.81-12.851,19.573-23.432,24.676
	c-30.723,14.816-92.859,40.504-163.828,46.079c-8.137,0.639-15.893,3.954-22.047,9.381c-11.226-2.381-47.102-11.626-75.018-37.08
	c-3.06-2.791-7.805-2.573-10.595,0.489c-2.791,3.061-2.572,7.805,0.489,10.595c25.061,22.85,55.107,33.68,72.358,38.362
	l-13.954,13.597c-5.911,5.759-9.844,13.425-11.073,21.585l-3.015,20.003c-4.192,27.826-18.821,52.552-41.192,69.624l-2.622,2.001
	c-0.98,0.749-1.762,1.728-2.273,2.851L1.159,407.699c-1.784,3.913-1.494,8.43,0.775,12.082c2.269,3.653,6.189,5.914,10.487,6.048
	l25.465,0.795c0.08,0.002,0.159,0.003,0.238,0.003c3.944,0,7.233-3.069,7.481-7.032l0.823-13.17
	c0.276-4.407-1.356-8.725-4.478-11.845c-0.14-0.139-0.155-0.354-0.039-0.512l9.854-13.373c9.282-12.598,21.782-22.535,36.149-28.739
	l9.001-3.887c9.748-4.209,17.985-11.593,23.196-20.79c18.645-32.906,36.458-54.5,47.649-57.764c0.576-0.168,1.067-0.369,1.586-0.668
	c0.999-0.551,24.947-13.259,67.367,6.537c22.714,10.6,43.311,15.499,58.412,17.75c-0.058,0.155-0.108,0.316-0.17,0.468
	c-1.865,4.618-2.258,9.734-1.133,14.796c4.416,19.861,9.079,76.172,10.879,99.461c0.814,10.525,9.723,18.77,20.281,18.77h12.262
	c3.512,0,6.803-1.558,9.028-4.273c2.227-2.716,3.108-6.248,2.42-9.69l-1.092-5.462c-1.382-6.904-5.703-12.661-11.638-15.943
	l9.026-63.938c1.657-11.736,5.338-22.979,10.939-33.419l28.369-52.87c6.411-11.946,8.076-25.755,4.688-38.883
	c-2.076-8.046-1.485-16.711,1.664-24.401l18.704-45.67c19.11-2.539,36.411-9.774,48.493-16.057
	c10.351-5.381,16.968-16.01,17.268-27.738l0.171-6.634C475.385,77.865,472.647,74.601,468.903,74.039z M379.952,69.11l1.357-0.267
	c1.053,7.665,3.238,19.14,7.582,28.56c1.387,3.006,2.131,6.041,2.214,9.021c0.118,4.222-0.296,8.757-1.231,13.48
	c-0.076,0.386-0.289,0.674-0.634,0.856c-0.24,0.127-0.623,0.237-1.081,0.044c-10.969-4.64-29.332-14.796-31.875-31.477l0.586-1.4
	C360.955,78.182,369.582,71.147,379.952,69.11z M376.771,172.063c-4.367,10.663-5.187,22.679-2.307,33.835
	c2.443,9.468,1.242,19.426-3.381,28.042l-28.369,52.87c-6.439,12-10.671,24.924-12.576,38.414l-9.861,69.857
	c-0.556,3.937,2.058,7.623,5.956,8.403c3.372,0.674,5.986,3.29,6.661,6.661l0.297,1.484h-8.206c-2.772,0-5.112-2.164-5.326-4.927
	c-2.267-29.323-6.733-81.51-11.191-101.559c-0.456-2.054-0.315-4.157,0.397-5.92c9.475-23.438-5.957-59.888-7.748-63.967
	c-1.665-3.793-6.092-5.517-9.882-3.852c-3.793,1.665-5.518,6.089-3.853,9.882c2.963,6.749,8.616,22.829,9.437,36.936
	c-13.949-2.119-32.865-6.678-53.76-16.43c-45.926-21.432-74.88-9.144-80.271-6.437c-19.408,6.336-40.97,38.486-55.727,64.531
	c-3.61,6.373-9.325,11.491-16.093,14.414l-9.001,3.887c-16.803,7.256-31.422,18.879-42.278,33.612l-9.854,13.373
	c-4.549,6.174-3.916,14.591,1.508,20.017c0.08,0.08,0.121,0.189,0.114,0.301l-0.37,5.917l-14.922-0.466l26.954-59.124l1.127-0.86
	c25.483-19.448,42.148-47.615,46.924-79.313l3.015-20.003c0.745-4.944,3.127-9.587,6.709-13.077l25.327-24.678
	c3.848-3.749,8.871-6.042,14.146-6.456c73.411-5.767,137.501-32.249,169.17-47.522c13.884-6.695,24.805-18.199,30.751-32.391
	l7.873-18.794c8.861,13.373,23.999,21.604,34.153,25.9c2.042,0.864,4.197,1.293,6.347,1.293c1.017,0,2.033-0.099,3.035-0.291
	L376.771,172.063z M460.122,87.899c-0.16,6.273-3.683,11.95-9.192,14.814c-11.357,5.905-27.737,12.727-45.46,14.72
	c0.516-3.925,0.732-7.752,0.63-11.426c-0.14-5.018-1.346-10.026-3.586-14.885c-3.723-8.073-5.584-18.531-6.453-25.176l10.96-2.153
	c3.038-0.595,6.034,0.957,7.301,3.773l1.721,3.824l-2.523,1.122c-3.785,1.682-5.49,6.114-3.808,9.899
	c1.242,2.795,3.983,4.456,6.857,4.456c1.018,0,2.053-0.208,3.042-0.648l7.412-3.294l33.101,4.965L460.122,87.899z"/>
<g>
</g>
<g>
</g>
<g>
</g>
<g>
</g>
<g>
</g>
<g>
</g>
<g>
</g>
<g>
</g>
<g>
</g>
<g>
</g>
<g>
</g>
<g>
</g>
<g>
</g>
<g>
</g>
<g>
</g>
</svg>
