<?xml version="1.0" encoding="iso-8859-1"?>
<!-- Generator: Adobe Illustrator 18.0.0, SVG Export Plug-In . SVG Version: 6.00 Build 0)  -->
<!DOCTYPE svg PUBLIC "-//W3C//DTD SVG 1.1//EN" "http://www.w3.org/Graphics/SVG/1.1/DTD/svg11.dtd">
<svg version="1.1" id="Capa_1" xmlns="http://www.w3.org/2000/svg" xmlns:xlink="http://www.w3.org/1999/xlink" x="0px" y="0px"
	 viewBox="0 0 479.445 479.445" style="enable-background:new 0 0 479.445 479.445;" xml:space="preserve">
<path d="M475.83,96.431c-2.943-3.677-7.329-5.924-12.032-6.166l-25.353-1.3l-7.234-13.435c-4.254-7.901-11.748-13.412-20.537-15.113
	l-18.606-3.664l-0.589-14.718c-0.141-3.518-2.709-6.464-6.175-7.083c-3.47-0.619-6.896,1.256-8.246,4.507L368.25,60.67
	c-20.9,8.881-39.889,22.499-54.974,39.469l-33.179,37.326l-111.288,32.423c-9.339,2.721-19.357,3.382-28.972,1.917l-22.215-3.389
	c-13.364-2.039-26.125-6.417-37.926-13.011c-5.589-3.124-7.958-9.94-5.51-15.856c2.269-5.483,7.806-9.047,13.773-8.893
	c13.817,0.379,34.461,3.098,54.347,13.893c2.678,1.454,5.967,1.143,8.325-0.784c2.358-1.928,3.316-5.09,2.425-8.002l-5.837-19.067
	c-6.666-21.775-23.786-38.266-45.794-44.111C77.741,66.292,52.766,73.63,36.25,91.735c-19.945,21.862-25.692,52.584-15,80.178
	l15.641,40.363c-14.894,18.354-23.752,40.546-25.3,63.997c-1.396,21.134,2.955,40.065,12.937,56.369
	c-8.031,8.846-22.288,23.821-22.458,24c-1.376,1.445-2.12,3.38-2.066,5.375l1.701,62.929c0.298,11.027,9.172,19.665,20.204,19.665
	h22.85c5.331,0,10.265-2.657,13.199-7.106c2.934-4.45,3.432-10.032,1.333-14.931c-3.195-7.455-8.87-13.364-16.116-16.839
	l12.697-26.141l17.746-8.874c21.407-10.704,38.747-28.553,48.825-50.261l4.713-10.152c6.649-2.388,25.752-7.88,42.993,0.286
	c28.431,13.468,62.179,19.273,89.207,19.272c6.473,0,12.551-0.34,18.089-0.981c5.567,52.953,16.561,88.12,32.696,104.521
	c7.314,7.435,15.727,11.205,25.005,11.205h17.512c6.336,0,12.096-3.489,15.03-9.105s2.509-12.336-1.109-17.538
	c-4.958-7.129-12.388-11.95-20.918-13.575l-2.529-0.482c-0.833-0.159-1.383-0.939-1.252-1.778l13.365-85.202
	c0.75-4.781,3.089-9.256,6.586-12.601l23.984-22.941c11.05-10.569,19.76-23.031,25.888-37.04
	c8.911-20.369,11.728-42.733,8.146-64.675l-2.125-13.016l38.163-18.746c11.448-5.624,19.57-16.487,21.725-29.059l1.6-9.331
	C480.004,104.88,478.773,100.109,475.83,96.431z M47.331,101.844c12.732-13.956,31.982-19.613,50.242-14.763
	c16.966,4.507,30.163,17.219,35.302,34.005l0.978,3.195c-17.18-6.404-33.603-8.292-45.482-8.618
	c-12.145-0.335-23.415,6.96-28.046,18.151c-5.355,12.941-0.174,27.853,12.053,34.686c2.755,1.54,5.556,2.972,8.4,4.297
	c-4.046,2.106-7.856,4.749-11.32,7.917l-20.404,18.659c-0.267,0.244-0.526,0.493-0.79,0.739l-13.027-33.619
	C26.615,144.244,31.249,119.472,47.331,101.844z M464.424,106.988l-1.6,9.33c-1.349,7.868-6.391,14.611-13.556,18.131
	l-42.556,20.904c-9.901,2.865-20.477,3.379-30.609,1.478c-4.131-0.773-8.1,1.994-8.784,6.161c-0.667,4.062,2.253,7.89,6.302,8.634
	c4.829,0.887,9.739,1.329,14.65,1.329c5.046,0,10.091-0.475,15.051-1.403l1.519,9.303c3.227,19.766,0.916,40.141-7.294,58.409
	c-5.306,11.805-12.738,22.326-22.103,31.283L351.46,293.49c-5.86,5.606-9.78,13.105-11.037,21.117l-13.364,85.2
	c-1.385,8.829,4.483,17.165,13.262,18.839l2.529,0.482c4.654,0.886,8.707,3.516,11.412,7.406c0.56,0.805,0.379,1.545,0.128,2.025
	c-0.251,0.479-0.755,1.051-1.736,1.051h-17.512c-5.178,0-9.859-2.199-14.31-6.723c-28.173-28.635-32.738-133.769-32.12-171.862
	c0.067-4.142-3.235-7.554-7.376-7.621c-0.042-0.001-0.083-0.001-0.125-0.001c-4.085,0-7.429,3.277-7.497,7.376
	c-0.005,0.317-0.426,28.803,2.342,63.178c-26.215,3.199-66.581-1.332-99.491-16.921c-14.778-7.001-30.023-6.5-41.192-4.439
	l12.117-26.098c1.606-3.459,0.551-7.696-2.68-9.722c-3.908-2.451-8.94-0.871-10.82,3.178l-25.158,54.187
	c-8.654,18.641-23.545,33.969-41.928,43.161l-20.025,10.013c-1.478,0.739-2.67,1.945-3.392,3.432l-17.298,35.613
	c-1.337,2.751-0.904,6.137,1.365,8.514c0.757,0.793,1.713,1.374,2.731,1.781l5.243,2.097c4.514,1.806,8.055,5.261,9.97,9.73
	c0.047,0.109,0.172,0.401-0.068,0.765c-0.24,0.364-0.557,0.364-0.676,0.364h-22.85c-2.844,0-5.132-2.227-5.209-5.07l-1.616-59.817
	c5.437-5.73,19.532-20.643,24.568-26.52c2.238-2.611,2.414-6.41,0.426-9.216c-10.278-14.51-14.826-31.914-13.517-51.727
	c1.675-25.386,13.259-49.116,32.618-66.819l20.404-18.659c8.066-7.377,18.739-10.812,29.402-9.695
	c2.101,0.43,28.593,4.546,28.593,4.546c11.758,1.794,24.01,0.984,35.429-2.343l113.361-33.027c1.355-0.395,2.57-1.164,3.508-2.218
	l34.613-38.94c10.006-11.256,21.918-20.873,35.015-28.369l-0.129,0.31c-3.951,9.513-2.082,20.634,4.762,28.333
	c1.482,1.667,3.54,2.517,5.608,2.517c2.3,0,4.612-1.052,6.154-3.202c2.059-2.871,1.599-6.764-0.698-9.448
	c-2.927-3.42-3.704-8.279-1.974-12.446l4.627-11.143l0.673,16.829c0.166,4.139,3.637,7.346,7.794,7.194
	c4.139-0.166,7.36-3.655,7.194-7.794l-0.829-20.724l15.115,2.976c4.374,0.847,8.093,3.581,10.204,7.502l4.203,7.805l-2.436,0.376
	c-3.886,0.6-6.863,4.008-6.601,7.931c0.271,4.05,3.625,7.022,7.476,7.022c0.38,0,0.766-0.029,1.153-0.089l11.305-1.744
	c0.747-0.115,1.503-0.154,2.258-0.115l27.669,1.419c0.553,0.028,0.897,0.319,1.088,0.558
	C464.309,106.042,464.518,106.442,464.424,106.988z"/>
<g>
</g>
<g>
</g>
<g>
</g>
<g>
</g>
<g>
</g>
<g>
</g>
<g>
</g>
<g>
</g>
<g>
</g>
<g>
</g>
<g>
</g>
<g>
</g>
<g>
</g>
<g>
</g>
<g>
</g>
</svg>
