<?xml version="1.0" encoding="iso-8859-1"?>
<!-- Generator: Adobe Illustrator 18.0.0, SVG Export Plug-In . SVG Version: 6.00 Build 0)  -->
<!DOCTYPE svg PUBLIC "-//W3C//DTD SVG 1.1//EN" "http://www.w3.org/Graphics/SVG/1.1/DTD/svg11.dtd">
<svg version="1.1" id="Capa_1" xmlns="http://www.w3.org/2000/svg" xmlns:xlink="http://www.w3.org/1999/xlink" x="0px" y="0px"
	 viewBox="0 0 468.148 468.148" style="enable-background:new 0 0 468.148 468.148;" xml:space="preserve">
<g>
	<path d="M467.806,109.733L464.91,91.2c-0.57-3.65-3.715-6.342-7.41-6.342h-12.503c-0.248-19.341-16.059-35-35.457-35h-28.486
		c-18.597-2.662-37.143,4.055-49.725,18.034l-0.402,0.447c-2.398,2.664-2.577,6.652-0.427,9.519l2.141,2.854l-5.606,5.084
		c-16.994,15.413-37.914,25.697-60.498,29.742c-19.486,3.49-39.362,4.351-59.073,2.558l-84.81-7.71
		c-29.687-2.699-57.863,10.153-75.44,32.702C19.562,162.535,2.551,194.186,1.652,228.02l-1.649,62.138
		c-0.08,3.002,1.639,5.762,4.368,7.015c1.002,0.46,2.069,0.684,3.128,0.684c1.826,0,3.63-0.667,5.039-1.943l14.288-12.952
		c-0.784,6.775-2.979,13.32-6.511,19.26L7.053,324.525c-0.598,1.006-0.953,2.138-1.035,3.306l-4.235,60.141
		c-0.639,9.069,2.682,17.957,9.111,24.387c4.191,4.191,9.763,6.499,15.69,6.499H42.5c2.766,0,5.308-1.522,6.613-3.961
		c1.305-2.439,1.162-5.398-0.373-7.699l-14.648-21.972c0.578-9.311,4.736-46.836,34.41-72.696
		c6.916-6.027,12.707-12.98,17.211-20.667c9.198-15.694,18.738-36.495,26.721-55.372l7.967-4.206
		c8.497-4.487,18.829-4.097,26.963,1.014l69.237,43.503c10.847,6.815,23.182,10.272,35.581,10.272c5.375,0,10.76-0.672,16.044-1.98
		l3.784,72.656c0.046,0.883,0.248,1.75,0.596,2.563l16.273,37.988c1.467,3.426,3.488,6.557,6.013,9.312l0.132,0.145
		c6.473,7.061,15.666,11.108,25.229,11.108c0.012,0,0.023,0,0.035,0c5.221-0.005,10.211-0.005,10.212-0.005
		c2.743,0,5.269-1.498,6.583-3.906c1.314-2.408,1.209-5.341-0.274-7.649l-18.91-29.417c-4.236-6.59-5.943-14.489-4.807-22.24
		l14.047-95.773c18.15-4.354,32.301-18.657,36.612-37.431c5.408-23.554,30.629-56.78,42.104-71.001
		c3.995,3.5,9.076,5.352,14.233,5.351c4.061,0,8.168-1.145,11.819-3.527l23.275-15.179
		C464.583,131.953,469.539,120.825,467.806,109.733z M372.273,64.294l-2.835,27.431l-6.884,3.873l-16.132-21.509
		C353.673,67.914,362.79,64.471,372.273,64.294z M16.647,228.419c0.407-15.338,4.667-30.153,12.081-43.188
		c-3.497,15.068-4.849,30.513-4.001,46.122l1.723,31.704l-10.988,9.96L16.647,228.419z M446.987,125.521l-23.275,15.179
		c-2.976,1.943-6.938,1.203-9.014-1.682l-10.112-14.043c-2.419-3.362-7.107-4.124-10.469-1.704
		c-3.361,2.42-4.124,7.107-1.704,10.469l3.985,5.535c-10.784,13.081-40.717,51.281-47.268,79.809
		c-2.527,11.003-9.845,19.788-19.552,24.152l3.343-22.79c0.601-4.098-2.234-7.908-6.333-8.509c-4.097-0.6-7.907,2.234-8.509,6.332
		l-19.829,135.2c-1.662,11.337,0.835,22.889,7.031,32.528l11.249,17.499c-3.982-0.792-7.664-2.838-10.453-5.881l-0.132-0.144
		c-1.375-1.5-2.478-3.208-3.277-5.077l-15.748-36.761l-4.93-94.666c-0.216-4.137-3.749-7.313-7.88-7.1
		c-4.137,0.215-7.315,3.743-7.101,7.88l0.418,8.025c-14.339,4.412-29.951,2.43-42.847-5.673l-69.237-43.503
		c-10.359-6.508-23.004-8.087-34.502-4.622c6.194-15.578,10.313-26.961,10.714-28.074c1.405-3.897-0.616-8.194-4.512-9.599
		c-3.9-1.405-8.194,0.616-9.599,4.512c-0.236,0.656-23.875,65.977-44.673,101.464c-3.683,6.284-8.435,11.984-14.125,16.943
		C19.451,335.379,19,385.251,19,387.358c0,1.48,0.438,2.928,1.26,4.16l8.227,12.34h-1.902c-1.92,0-3.726-0.748-5.083-2.105
		c-3.355-3.355-5.088-7.994-4.755-12.727l4.11-58.365l12.351-20.772c6.48-10.898,9.542-23.351,8.854-36.013l-2.355-43.337
		c-1.084-19.961,1.768-39.631,8.478-58.462c10.851-30.454,40.919-49.684,73.113-46.752l84.81,7.71
		c21.047,1.914,42.27,0.994,63.076-2.732c25.358-4.541,48.848-16.089,67.93-33.396l4.568-4.143l12.82,17.094
		c2.257,3.009,6.395,3.882,9.677,2.037l16-9c2.122-1.194,3.533-3.343,3.783-5.766l3.335-32.271h22.245
		c11.281,0,20.46,9.178,20.46,20.46v7.04c0,4.142,3.357,7.5,7.5,7.5h13.581l1.905,12.191
		C453.809,117.319,451.455,122.608,446.987,125.521z"/>
	<path d="M417.5,80.858h-7c-4.143,0-7.5,3.358-7.5,7.5s3.357,7.5,7.5,7.5h7c4.143,0,7.5-3.358,7.5-7.5S421.642,80.858,417.5,80.858z
		"/>
</g>
<g>
</g>
<g>
</g>
<g>
</g>
<g>
</g>
<g>
</g>
<g>
</g>
<g>
</g>
<g>
</g>
<g>
</g>
<g>
</g>
<g>
</g>
<g>
</g>
<g>
</g>
<g>
</g>
<g>
</g>
</svg>
