<?xml version="1.0" encoding="iso-8859-1"?>
<!-- Generator: Adobe Illustrator 18.0.0, SVG Export Plug-In . SVG Version: 6.00 Build 0)  -->
<!DOCTYPE svg PUBLIC "-//W3C//DTD SVG 1.1//EN" "http://www.w3.org/Graphics/SVG/1.1/DTD/svg11.dtd">
<svg version="1.1" id="Capa_1" xmlns="http://www.w3.org/2000/svg" xmlns:xlink="http://www.w3.org/1999/xlink" x="0px" y="0px"
	 viewBox="0 0 473.141 473.141" style="enable-background:new 0 0 473.141 473.141;" xml:space="preserve">
<g>
	<path d="M471.103,145.901l-13.871-14.737l0.775-10.081c0.83-10.798-3.796-21.194-12.375-27.808
		c-8.418-6.49-16.873-12.408-25.13-17.591c-18.453-11.585-42.235-9.055-57.833,6.151c-12.616,12.3-26.081,27.439-35.154,37.974
		c-7.344,8.526-17.495,14.206-28.585,15.994l-171.531,27.64c-12.316,1.984-22.595,9.622-28.134,20.313L80.84,197.485
		c-3.322,2.475-4.008,7.173-1.533,10.495c1.472,1.976,3.731,3.02,6.02,3.02c1.558,0,3.13-0.484,4.475-1.486l2.502-1.865
		c-5.081,19.754-10.097,34.214-14.423,41.423c-0.063,0.105-0.124,0.213-0.182,0.321c-0.222,0.416-22.551,41.747-50.712,58.644
		c-1.313,0.788-2.353,1.958-2.98,3.354c-6.299,13.998-16.066,34.447-21.328,45.392c-3.342,6.952-3.566,15.027-0.616,22.157
		l4.55,10.995c3.708,8.964,12.373,14.756,22.074,14.756h6.809c4.875,0,9.333-2.464,11.928-6.592
		c2.594-4.127,2.879-9.214,0.765-13.606l-6.222-12.923l20.552-19.947c5.679-5.512,12.63-9.804,20.103-12.414l6.47-2.26
		c30.055-10.495,54.196-33.417,66.234-62.889l5.427-13.289c0.689-1.687,2.015-2.943,3.734-3.539
		c0.989-0.343,2.965-0.738,5.083,0.463c18.225,10.333,51.029,25.387,87.43,25.385c7.305,0,14.758-0.608,22.265-1.98
		c-4.869,26.346-10.287,60.256-10.287,80.678c0,20.716,13.719,41.964,27.695,42.896c0.166,0.011,0.333,0.017,0.499,0.017h11.688
		c4.838,0,9.391-2.13,12.49-5.845c3.1-3.714,4.381-8.574,3.516-13.333l-0.93-5.115c-1.115-6.129-4.407-11.647-9.272-15.54
		l-1.029-0.824l20.659-87.33l26.914-29.824c7.361-8.157,10.476-19.04,8.544-29.858c-1.4-7.844,0.006-15.973,3.959-22.891
		l19.879-34.787c0.94,0.536,1.909,1.033,2.923,1.464l4.403,1.873c-1.026,0.845-2.072,1.652-3.128,2.391
		c-3.394,2.375-4.219,7.052-1.844,10.445c1.459,2.084,3.786,3.2,6.151,3.2c1.484,0,2.985-0.44,4.294-1.356
		c10.943-7.66,20.466-20.278,20.866-20.811c2.485-3.313,1.813-8.015-1.5-10.5c-3.315-2.485-8.016-1.813-10.5,1.5
		c-0.03,0.04-1.142,1.512-2.968,3.669l-9.904-4.213c-4.461-1.897-7.426-6.081-7.737-10.918l-1.214-18.82
		c-0.267-4.133-3.837-7.277-7.967-7.001c-4.134,0.267-7.269,3.833-7.002,7.967l1.214,18.82c0.254,3.944,1.319,7.688,3.062,11.046
		l-22.052,38.589c-5.694,9.963-7.719,21.672-5.701,32.97c1.11,6.222-0.681,12.481-4.915,17.172l-28.202,31.251
		c-0.845,0.937-1.439,2.071-1.73,3.298L297.942,365.2c-0.667,2.82,0.351,5.773,2.614,7.583l4.735,3.788
		c2.038,1.63,3.418,3.943,3.885,6.51l0.93,5.115c0.088,0.482-0.101,0.831-0.274,1.039c-0.173,0.208-0.483,0.456-0.974,0.456h-11.332
		c-3.457-0.549-13.55-12.35-13.55-27.913c0-34.678,17.321-114.517,17.496-115.32c0.882-4.047-1.684-8.043-5.73-8.925
		c-4.044-0.885-8.043,1.683-8.926,5.729c-0.229,1.051-2.081,9.586-4.511,21.917c-44.794,10.307-84.951-8.974-105.338-20.533
		c-5.297-3.003-11.637-3.582-17.394-1.587c-5.767,1.999-10.399,6.387-12.708,12.04l-5.428,13.29
		c-10.413,25.493-31.295,45.321-57.293,54.399l-6.47,2.26c-9.517,3.323-18.371,8.791-25.604,15.811l-24.431,23.712
		c-2.316,2.249-2.934,5.727-1.534,8.636l7.937,16.484h-5.356c-3.61,0-6.834-2.155-8.214-5.491l-4.55-10.996
		c-1.322-3.194-1.222-6.81,0.274-9.922c5.037-10.476,14.183-29.623,20.543-43.644C66.749,300.442,89.018,260,90.838,256.632
		c7.816-13.147,14.998-40.039,19.653-60.325c2.163-9.428,9.737-16.515,19.295-18.055l171.532-27.64
		c14.576-2.349,27.916-9.812,37.563-21.013c8.879-10.309,22.03-25.1,34.26-37.023c10.624-10.355,26.818-12.077,39.388-4.188
		c1.446,0.907,2.863,1.82,4.252,2.729v28.458c-1.534-1.331-2.721-3.03-3.452-4.98l-6.236-16.629
		c-1.454-3.878-5.775-5.841-9.656-4.389c-3.878,1.455-5.843,5.778-4.389,9.656l6.236,16.628c2.526,6.738,7.51,12.125,14.039,15.174
		l0.356,0.166c1.723,0.804,3.56,1.202,5.389,1.202c2.377,0,4.741-0.672,6.824-1.999c3.688-2.348,5.889-6.36,5.889-10.731v-22.072
		c1.739,1.291,3.314,2.487,4.694,3.552c4.56,3.515,7.019,9.04,6.578,14.778l-0.314,4.087l-0.576-0.174
		c-3.968-1.196-8.149,1.051-9.345,5.017s1.051,8.15,5.017,9.345l7.581,2.285l12.224,12.987c-1.593,8.261-7.057,29.664-22.041,38.518
		c-3.566,2.107-4.749,6.707-2.642,10.272c2.107,3.566,6.708,4.749,10.272,2.642c25.104-14.834,29.679-51.444,29.861-52.995
		C473.348,149.717,472.622,147.514,471.103,145.901z"/>
	<path d="M451.421,159.88c1.535-3.839-0.329-8.187-4.164-9.732c-3.836-1.546-8.2,0.314-9.756,4.144
		c-0.092,0.225-9.344,22.546-29.325,31.233c-3.799,1.651-5.539,6.07-3.888,9.868c1.228,2.825,3.986,4.512,6.882,4.512
		c0.998,0,2.013-0.201,2.986-0.624C439.891,188.092,450.962,161.027,451.421,159.88z"/>
</g>
<g>
</g>
<g>
</g>
<g>
</g>
<g>
</g>
<g>
</g>
<g>
</g>
<g>
</g>
<g>
</g>
<g>
</g>
<g>
</g>
<g>
</g>
<g>
</g>
<g>
</g>
<g>
</g>
<g>
</g>
</svg>
