<?xml version="1.0" encoding="iso-8859-1"?>
<!-- Generator: Adobe Illustrator 18.0.0, SVG Export Plug-In . SVG Version: 6.00 Build 0)  -->
<!DOCTYPE svg PUBLIC "-//W3C//DTD SVG 1.1//EN" "http://www.w3.org/Graphics/SVG/1.1/DTD/svg11.dtd">
<svg version="1.1" id="Capa_1" xmlns="http://www.w3.org/2000/svg" xmlns:xlink="http://www.w3.org/1999/xlink" x="0px" y="0px"
	 viewBox="0 0 479.734 479.734" style="enable-background:new 0 0 479.734 479.734;" xml:space="preserve">
<path d="M477.991,80.523c-1.909-3.502-5.224-6.065-9.093-7.033l-23.789-5.948l-0.891-7.71c-1.222-10.59-7.482-20.058-16.749-25.326
	l-3.025-1.72c-24.067-13.687-54.767-7.318-71.404,14.815l-51.134,68.022c-19.378,25.778-48.977,41.181-81.206,42.26l-89.948,3.013
	c-42.779,1.433-80.573,26.43-98.632,65.237c-13.422,28.843-19.012,60.837-16.163,92.525c2.396,26.647-1.764,53.792-12.026,78.5
	c-0.256,0.614-0.428,1.26-0.513,1.919l-3.217,24.986c-0.879,6.832,1.155,13.776,5.583,19.052c4.35,5.184,10.686,8.373,17.431,8.786
	c6.723,0.913,15.003,1.978,16.993,1.978h2.684c7.932,0,14.841-4.804,17.603-12.239c2.104-5.665,1.387-11.745-1.73-16.608
	l2.504-7.011c3.227-9.037,9.779-16.275,18.452-20.383c28.044-13.284,49.49-36.603,60.387-65.659l1.734-4.625
	c17.012,7.736,60.95,24.533,123.595,25.623c0.526,11.295,1.451,22.102,2.421,31.312c1.828,17.356,5.723,44.738,7.984,48.848
	c6.746,12.253,21.246,15.77,33.124,17.464c6.677,0.953,36.576,3.535,53.095,3.534c3.095,0,5.722-0.091,7.637-0.3
	c4.013-0.438,7.637-2.588,9.943-5.899c2.31-3.314,3.071-7.463,2.092-11.384c-2.544-10.174-9.27-18.915-18.454-23.98l-5.198-2.867
	c-2.343-16.178-4.962-49.819-6.63-73.288c25.016-8.543,46.329-25.478,60.265-48.028l0.902-1.46
	c22.079-35.728,28.289-79.425,17.038-119.888l-5.948-21.395l0.324-0.025c22.923-1.805,42.513-17.041,49.908-38.813l5.037-14.832
	C480.259,88.198,479.9,84.024,477.991,80.523z M46.432,436.417c-0.274,0.74-1.17,2.462-3.541,2.462h-2.607
	c-1.448-0.07-9.056-1.026-15.35-1.882c-0.219-0.03-0.439-0.05-0.661-0.06c-2.746-0.128-5.231-1.358-6.999-3.464
	c-1.768-2.106-2.547-4.768-2.196-7.495l0.148-1.147l30.957,8.395C46.958,434.516,46.651,435.829,46.432,436.417z M366.855,439.025
	c-9.105,0.582-34.64-1.124-48.538-2.464l32.492-13.736l5.224,2.881C361.227,428.57,365.12,433.38,366.855,439.025z M459.736,101.983
	c-5.465,16.09-19.942,27.349-36.883,28.683l-10.581,0.833c0.064-0.738,0.102-1.483,0.089-2.239l-0.146-9.034
	c-0.293-18.17,2.759-36.023,9.07-53.063c1.438-3.884-0.544-8.199-4.428-9.638c-3.887-1.438-8.199,0.544-9.639,4.428
	c-6.96,18.791-10.325,38.478-10.002,58.514l0.146,9.034c0.052,3.179-2.074,4.758-2.99,5.289c-0.918,0.532-3.345,1.592-6.077-0.032
	l-31.022-18.434c-2.656-1.579-4.473-4.113-5.113-7.136c-0.64-3.023-0.008-6.076,1.78-8.595L364.37,85.9
	c2.397-3.378,1.603-8.06-1.775-10.457s-8.061-1.602-10.457,1.775l-10.429,14.694c-4.18,5.89-5.719,13.32-4.222,20.385
	c1.496,7.066,5.916,13.234,12.125,16.923l31.022,18.434c3.352,1.991,7.037,2.988,10.725,2.988c3.615,0,7.232-0.958,10.538-2.874
	c0.254-0.147,0.496-0.307,0.742-0.463l5.833-0.459l6.732,24.213c10.133,36.445,4.539,75.804-15.347,107.983l-0.902,1.46
	c-11.398,18.445-28.481,32.561-48.579,40.345c-0.395-5.905-0.626-9.588-0.637-9.757c-0.258-4.134-3.827-7.268-7.953-7.018
	c-4.134,0.258-7.276,3.819-7.018,7.953c0.19,3.038,4.376,69.619,8.191,97.831l-49.206,20.802c-1.99-1.225-3.474-2.636-4.487-4.271
	c-2.154-8.001-13.53-77.191-7.581-120.816c0.56-4.104-2.314-7.885-6.418-8.444c-4.097-0.56-7.886,2.314-8.445,6.418
	c-1.455,10.669-1.929,22.547-1.816,34.419c-38.307-0.763-69.063-7.785-88.513-13.73c-13.571-4.148-23.57-8.326-29.363-10.986
	l10.146-27.057c1.454-3.878-0.511-8.201-4.389-9.656c-3.883-1.454-8.202,0.511-9.656,4.389l-17.17,45.786
	c-9.521,25.388-28.26,45.762-52.764,57.37c-12.293,5.823-21.582,16.084-26.157,28.894l-1.618,4.529l-28.364-7.692l1.009-7.839
	c10.908-26.689,15.31-55.94,12.728-84.66c-2.612-29.06,2.514-58.402,14.823-84.854c15.661-33.654,48.436-55.332,85.534-56.575
	l89.948-3.013c36.789-1.232,70.574-18.814,92.694-48.238l51.134-68.022c12.115-16.118,34.472-20.757,52-10.789l3.025,1.72
	c5.124,2.914,8.587,8.15,9.263,14.006l1.07,9.267l-5.438,5.438c-2.929,2.929-2.929,7.678,0,10.606
	c1.465,1.464,3.385,2.197,5.304,2.197s3.839-0.732,5.304-2.197l4.997-4.997l23.978,5.995L459.736,101.983z"/>
<g>
</g>
<g>
</g>
<g>
</g>
<g>
</g>
<g>
</g>
<g>
</g>
<g>
</g>
<g>
</g>
<g>
</g>
<g>
</g>
<g>
</g>
<g>
</g>
<g>
</g>
<g>
</g>
<g>
</g>
</svg>
