<?xml version="1.0" encoding="iso-8859-1"?>
<!-- Generator: Adobe Illustrator 18.0.0, SVG Export Plug-In . SVG Version: 6.00 Build 0)  -->
<!DOCTYPE svg PUBLIC "-//W3C//DTD SVG 1.1//EN" "http://www.w3.org/Graphics/SVG/1.1/DTD/svg11.dtd">
<svg version="1.1" id="Capa_1" xmlns="http://www.w3.org/2000/svg" xmlns:xlink="http://www.w3.org/1999/xlink" x="0px" y="0px"
	 viewBox="0 0 478.002 478.002" style="enable-background:new 0 0 478.002 478.002;" xml:space="preserve">
<path d="M477.945,118.483c-0.245-1.989-1.275-3.796-2.862-5.021l-33.909-26.158l-3.56-13.529c-1.215-4.61-4.626-8.302-9.124-9.876
	l-11.971-4.189c0.02-15.378-2.532-30.529-7.611-45.13l-0.112-0.32c-0.95-2.71-3.365-4.64-6.219-4.969
	c-2.834-0.326-5.644,1-7.186,3.424c-0.381,0.598-9.403,14.841-16.37,31.403c-4.583,10.897-7.183,20.315-7.834,28.241
	c-3.719,4.402-13.184,15.948-22.763,30.388c-14.648,22.083-22.931,40.865-24.687,55.948c-6.513,1.847-13.827,4.334-21.47,6.934
	c-17.914,6.094-38.219,13.001-52.483,13.001c-10.521,0-44.513,1.91-101.029,5.677c-18.209,1.215-35.127,7.961-49.108,19.524
	c-4.418,0.354-13.395,1.521-22.505,5.365c-17.719,7.475-27.354,21.082-27.86,39.35c-0.148,5.326-0.071,10.741,0.011,16.474
	c0.237,16.718,0.483,34.006-5.089,48.495c-6.128,15.935-18.435,26.01-38.729,31.707c-3.987,1.119-6.313,5.26-5.193,9.248
	c0.929,3.311,3.939,5.475,7.217,5.475c0.671,0,1.354-0.091,2.031-0.281c24.892-6.987,40.813-20.321,48.676-40.764
	c6.61-17.191,6.332-36.796,6.086-54.092c-0.079-5.571-0.154-10.833-0.015-15.844c0.392-14.108,8.989-21.644,17.955-25.67
	c-7.545,11.564-12.248,24.846-13.582,38.896l-2.83,29.632c-3.113,32.704-20.016,62.709-46.372,82.325
	c-1.637,1.218-2.707,3.05-2.963,5.075l-7.93,62.63c-0.861,6.803,1.247,13.658,5.785,18.806c4.54,5.151,11.081,8.105,17.945,8.105
	h20.39c2.435,0,4.719-1.182,6.124-3.17s1.759-4.535,0.946-6.831l-2.656-7.509c-2.394-6.801-7.726-12.066-14.285-14.489
	c0.83-13.189,6.572-47.003,42.151-74.257c25.632-19.634,35.521-39.581,43.467-55.607c7.513-15.154,12.946-26.112,28.661-32.699
	c0.025-0.01,0.051-0.02,0.076-0.03c0.063-0.024,0.127-0.049,0.19-0.076c7.024-2.902,15.012-3.063,22.497-0.449
	c27.389,9.542,91.248,30.507,125.577,31.275c1.767,31.737,2.524,70.909-1.48,100.943c-0.166,1.245-0.017,2.511,0.435,3.683
	c2.313,6.015,5.435,20.196,8.79,39.929c1.899,11.177,11.51,19.289,22.85,19.289h29.771c2.291,0,4.457-1.047,5.879-2.843
	c1.423-1.796,1.946-4.144,1.422-6.375l-1.775-7.546c-2.094-8.896-9.248-15.75-18.227-17.46l-6.506-1.239l-1.582-8.701
	c-6.288-34.584-5.289-68.831,2.971-101.788c6.304-25.154,15.604-44.983,27.644-58.938c7.61-8.821,12.543-19.575,14.266-31.099
	c1.608-10.77,2.605-21.163,3.569-31.214c2.331-24.315,4.377-45.6,13.971-65.441c2.331,0.729,4.699,1.363,7.114,1.874l25.43,5.38
	c2.095,0.443,4.194,0.659,6.271,0.659c9.02,0,17.601-4.08,23.36-11.376l6.794-8.604C477.63,122.476,478.19,120.471,477.945,118.483z
	 M378.517,200.125c-0.945,9.858-1.923,20.051-3.474,30.43c-1.302,8.715-5.032,16.847-10.787,23.517
	c-13.583,15.744-23.957,37.643-30.837,65.089c-8.781,35.042-9.851,71.418-3.178,108.118l2.502,13.764
	c0.555,3.051,2.93,5.446,5.976,6.026l11.562,2.202c2.578,0.491,4.73,2.184,5.841,4.489h-20.104c-4.001,0-7.392-2.861-8.063-6.803
	c-2.325-13.678-5.693-31.438-8.907-40.936c7.795-61.841-2.839-155.178-3.3-159.159c-0.477-4.115-4.197-7.065-8.313-6.587
	c-4.114,0.477-7.064,4.198-6.588,8.313c0.046,0.402,1.977,17.357,3.638,41.33c-32.979-1.085-98.991-23.225-119.698-30.439
	c-10.916-3.813-22.649-3.562-33.051,0.702c-0.035,0.014-0.071,0.028-0.106,0.042c-0.07,0.027-0.141,0.055-0.21,0.084
	c-20.976,8.739-28.485,23.888-36.438,39.926c-7.633,15.397-16.285,32.849-39.148,50.362c-50.84,38.944-48.23,90.478-48.095,92.652
	c0.229,3.667,3.082,6.629,6.738,6.995l0.869,0.086c2.503,0.228,4.755,1.502,6.247,3.431h-9.309c-2.597,0-4.974-1.074-6.692-3.024
	c-1.717-1.947-2.482-4.435-2.157-7.004l7.536-59.517c28.283-22.155,46.367-55.128,49.779-90.972l2.831-29.634
	c1.724-18.151,10.222-34.769,23.934-46.795c11.86-10.423,26.466-16.488,42.238-17.541c55.395-3.692,89.984-5.644,100.031-5.644
	c16.746,0,38.299-7.332,57.314-13.8c9.497-3.23,18.467-6.282,25.524-7.965c3.378-0.805,5.761-3.823,5.761-7.295
	c0-12.76,7.761-31.221,22.443-53.386c5.039-7.607,10.11-14.444,14.23-19.743c0.226,0.34,0.437,0.692,0.682,1.018v21.81
	c0,2.408,1.156,4.67,3.108,6.08l6.575,4.749c2.632,1.901,5.368,3.599,8.181,5.138C383.1,152.345,380.866,175.621,378.517,200.125z
	 M457.821,123.358c-3.528,4.47-9.184,6.512-14.755,5.336l-25.429-5.379c-8.503-1.799-16.386-5.291-23.432-10.379l-3.466-2.503
	V89.629c0-2.068-0.854-4.044-2.359-5.461c-6.588-6.2,0.808-28.346,10.877-47.982c1.832,9.348,2.555,18.879,2.154,28.493
	c-0.138,3.299,1.898,6.301,5.016,7.392l16.771,5.87l0.686,2.608l-0.455-0.14c-3.959-1.215-8.155,1.003-9.374,4.963
	c-1.219,3.959,1.003,8.156,4.962,9.374l12.047,3.707l28.849,22.254L457.821,123.358z"/>
<g>
</g>
<g>
</g>
<g>
</g>
<g>
</g>
<g>
</g>
<g>
</g>
<g>
</g>
<g>
</g>
<g>
</g>
<g>
</g>
<g>
</g>
<g>
</g>
<g>
</g>
<g>
</g>
<g>
</g>
</svg>
