<?xml version="1.0" encoding="iso-8859-1"?>
<!-- Generator: Adobe Illustrator 18.0.0, SVG Export Plug-In . SVG Version: 6.00 Build 0)  -->
<!DOCTYPE svg PUBLIC "-//W3C//DTD SVG 1.1//EN" "http://www.w3.org/Graphics/SVG/1.1/DTD/svg11.dtd">
<svg version="1.1" id="Capa_1" xmlns="http://www.w3.org/2000/svg" xmlns:xlink="http://www.w3.org/1999/xlink" x="0px" y="0px"
	 viewBox="0 0 483.831 483.831" style="enable-background:new 0 0 483.831 483.831;" xml:space="preserve">
<path d="M482.105,98.708c-2.012-3.921-5.605-6.829-9.859-7.979l-24.95-6.743l-2.068-8.961c-0.72-3.122-3.344-5.441-6.53-5.773
	l-38.863-4.048c-8.929-0.93-17.789,2.543-23.706,9.293l-47.838,54.565c-5.801,6.616-13.808,10.808-22.546,11.803
	c-29.014,3.304-101.494,11.961-147.771,20.981c-15.263,2.975-29.673,9.344-42.156,18.43l-36.969-11.195
	c-3.966-1.2-8.152,1.041-9.352,5.004c-1.201,3.965,1.04,8.151,5.004,9.352l27.891,8.446c-1.59,1.627-3.146,3.291-4.63,5.023
	c-4.423,5.16-8.438,9.881-11.511,13.509c-4.995,5.895-7.938,13.087-8.511,20.8c-2.061,27.817-14.491,53.547-35.003,72.45
	L24.383,320.58c-0.964,0.889-1.679,2.015-2.072,3.267l-21.557,68.59c-1.219,3.875-0.953,8.042,0.75,11.73l4.731,10.251
	c1.226,2.656,3.884,4.357,6.81,4.357h16.566c7.863,0,14.461-6.144,15.02-13.985c0.479-6.691-1.82-13.389-6.309-18.375l-0.781-0.869
	l11.915-22.207c4.722-8.8,11.707-16.228,20.2-21.48l34.921-21.595c20.067-12.411,36.192-29.776,47.062-50.538l11.046-10.385
	c14.135-13.29,34.743-16.828,52.503-9.015l51.928,22.848c7.53,3.314,15.649,4.99,23.791,4.99c3.411,0,6.827-0.297,10.204-0.889v5.62
	c0,25.238,3.332,50.391,9.903,74.761l12.566,46.601c2.306,8.548,10.1,14.519,18.953,14.519h14.201c4.61,0,8.842-2.115,11.608-5.804
	c2.766-3.688,3.612-8.343,2.321-12.77l-0.822-2.817c-1.649-5.656-5.938-10.241-11.471-12.264c-4.627-1.692-7.765-5.962-7.991-10.878
	c-0.651-14.069-1.594-35.103-2.385-55.405c-0.727-18.706,0.019-37.569,2.217-56.073c3.522-3.809,11.951-13.031,20.118-22.762
	c8.516-10.146,14.044-22.333,15.987-35.244c3.14-20.853,17.133-42.26,23.907-51.63l5.667,3.052c1.113,0.6,2.336,0.896,3.555,0.896
	c1.479,0,2.952-0.437,4.22-1.299c2.313-1.574,3.559-4.306,3.229-7.084l-1.386-11.687l16.29,1.517
	c17.594,1.532,34.21-8.95,40.411-25.484l0.626-1.669C484.383,107.244,484.117,102.629,482.105,98.708z M468.791,106.103
	l-0.626,1.669c-3.846,10.256-14.141,16.761-25.021,15.812l-19.442-1.811l-3.284-27.678c-0.488-4.113-4.219-7.05-8.332-6.564
	c-4.113,0.488-7.052,4.218-6.564,8.332l4.778,40.27l-22.132-11.917l4.669-17.901c1.046-4.008-1.355-8.104-5.363-9.15
	c-4.014-1.044-8.105,1.356-9.15,5.364l-6.157,23.604c-0.873,3.347,0.655,6.857,3.701,8.497l21.024,11.321
	c-7.902,11.145-21.945,33.592-25.406,56.576c-1.532,10.178-5.905,19.803-12.646,27.833c-1.932,2.302-3.892,4.588-5.8,6.783
	c1.868-18.203,3.052-32.349,3.069-32.551c0.345-4.128-2.723-7.753-6.851-8.097c-4.128-0.349-7.753,2.724-8.097,6.851
	c-0.024,0.288-2.438,29.105-5.817,57.397c-2.313,19.363-3.099,39.104-2.337,58.678c0.793,20.348,1.736,41.42,2.389,55.514
	c0.507,10.972,7.504,20.5,17.825,24.273c1.071,0.392,1.901,1.279,2.221,2.375l0.64,2.191h-13.548c-2.089,0-3.927-1.408-4.471-3.424
	l-12.566-46.601c-6.228-23.097-9.386-46.937-9.386-70.856v-66.61c0-4.142-3.357-7.5-7.5-7.5s-7.5,3.358-7.5,7.5v45.68
	c-9.31,2.221-19.17,1.344-27.954-2.521l-51.928-22.848c-19.008-8.364-40.505-6.8-57.842,3.539
	c1.427-5.469,2.045-10.107,1.853-13.962c-0.207-4.137-3.738-7.323-7.864-7.117c-4.137,0.207-7.323,3.728-7.116,7.865
	c0.16,3.218-0.734,11.25-8.532,28.882c-9.497,21.476-25.071,39.354-45.039,51.703l-34.921,21.595
	c-10.733,6.638-19.561,16.025-25.527,27.146l-14.408,26.852c-1.496,2.787-1.082,6.212,1.034,8.563l4.308,4.787
	c1.776,1.973,2.687,4.624,2.438,7.326H17.844l-2.721-5.895c-0.137-0.297-0.158-0.631-0.06-0.945l20.957-66.682l16.882-15.558
	c23.32-21.491,37.453-50.745,39.796-82.371c0.336-4.529,2.063-8.752,4.995-12.212c3.06-3.61,7.055-8.309,11.456-13.444
	c13.288-15.502,31.646-26.192,51.692-30.1c45.752-8.917,117.763-17.517,146.6-20.801c12.452-1.417,23.862-7.39,32.128-16.817
	l47.838-54.565c2.714-3.095,6.782-4.688,10.872-4.263l33.537,3.494l0.397,1.721l-2.058,0.772c-3.878,1.454-5.843,5.777-4.389,9.656
	c1.129,3.011,3.986,4.869,7.023,4.869c0.875,0,1.765-0.154,2.633-0.479l5.95-2.231l26.959,7.286c0.072,0.02,0.29,0.079,0.428,0.345
	C468.896,105.822,468.817,106.033,468.791,106.103z"/>
<g>
</g>
<g>
</g>
<g>
</g>
<g>
</g>
<g>
</g>
<g>
</g>
<g>
</g>
<g>
</g>
<g>
</g>
<g>
</g>
<g>
</g>
<g>
</g>
<g>
</g>
<g>
</g>
<g>
</g>
</svg>
