<?xml version="1.0" encoding="iso-8859-1"?>
<!-- Generator: Adobe Illustrator 18.0.0, SVG Export Plug-In . SVG Version: 6.00 Build 0)  -->
<!DOCTYPE svg PUBLIC "-//W3C//DTD SVG 1.1//EN" "http://www.w3.org/Graphics/SVG/1.1/DTD/svg11.dtd">
<svg version="1.1" id="Capa_1" xmlns="http://www.w3.org/2000/svg" xmlns:xlink="http://www.w3.org/1999/xlink" x="0px" y="0px"
	 viewBox="0 0 477.329 477.329" style="enable-background:new 0 0 477.329 477.329;" xml:space="preserve">
<g>
	<path d="M473.988,161.424l-24.693-16.462l6.441-14.171c7.814-17.189,1.902-37.509-13.914-47.824l-20.494-13.366V39.951
		c0-3.044-1.687-5.934-4.476-7.152c-3.468-1.514-7.432-0.231-9.384,2.89l-12.063,19.301l-7.267-0.32
		c-23.798-1.049-46.753,8.334-63,25.742L277.26,131.71c-11.097,11.89-27.52,16.058-42.462,11.519
		c6.513-7.714,14.126-20.072,11.845-33.936c-2.579-15.678-16.79-28.353-42.236-37.672c-41.676-15.261-83.259-4.967-110.806,6.356
		c-34.905,14.348-59.848,35.266-69.082,49.631c-5.308,8.256-6.911,17.062-4.766,26.171c3.361,14.272,15.513,25.74,23.642,32.04
		c-6.222,7.02-16.083,19.413-25.166,36.282c-19.66,36.407-23.965,89.53-10.236,126.314c6.902,18.491,17.985,31.558,32.171,38.009
		l19.482,44.421c3.816,8.701,12.417,14.32,21.918,14.32h21.373c3.281,0,6.538-0.92,9.188-2.854c5.484-4,7.459-10.957,5.368-17.021
		l-2.338-6.78c-2.476-7.181-7.922-12.73-14.679-15.467l5.906-18.636c1.442-0.424,2.882-0.851,4.318-1.278
		c24.927-7.403,50.702-15.059,80.2-2.559c25.904,10.976,55.486,14.221,81.126,14.296l28.92,40.474
		c4.397,6.152,11.536,9.825,19.098,9.825l26.561,0c3.207,0,6.385-0.928,8.949-2.853c5.251-3.942,7.074-10.671,4.974-16.507
		c-4.414-12.259-15.155-21.105-28.033-23.087l-3.239-0.499l-0.134-12.054c1.065-0.182,2.527-0.527,4.053-0.921
		c4.605-1.19,9.138-2.663,13.525-4.501c34.02-14.249,61.852-39.913,78.819-72.845c16.652-32.322,21.518-69.1,13.992-104.46
		c12.308-2.823,23.052-10.794,29.224-22.109l7.676-14.072C478.272,167.846,477.221,163.579,473.988,161.424z M406.328,65.816v6.038
		l-31.445,61.317c-1.269-8.734,0.5-17.843,5.305-25.531L406.328,65.816z M34.354,150.341c-1.193-5.069-0.283-9.852,2.783-14.621
		c10.505-16.342,39.226-34.438,62.167-43.869c25.088-10.312,62.791-19.75,99.944-6.144c19.683,7.208,30.952,16.192,32.587,25.982
		c1.586,9.495-5.975,19.579-11.413,25.097c-10.452-3.459-34.57-4.859-73.534,29.234c-23.246,20.34-44.758,29.922-62.206,27.71
		c-6.692-0.848-11.902-3.279-15.708-5.831c-5.131-3.442-20.776-16.78-26.468-23.26C38.742,160.351,35.554,155.435,34.354,150.341z
		 M84.776,413.095c1.413,1.93,3.661,3.07,6.052,3.07c4.577,0,8.655,2.908,10.147,7.235l2.35,6.765h-21.76
		c-3.546,0-6.757-2.098-8.181-5.345L58.718,391.38c10.258,1.128,20.43-0.143,30.48-2.396l-5.519,17.414
		C82.956,408.678,83.364,411.166,84.776,413.095z M314.329,408.748c0.041,3.67,2.731,6.771,6.359,7.33l9.528,1.466
		c7.188,1.106,13.224,5.913,15.926,12.622h-26.096c-2.729,0-5.307-1.326-6.894-3.546l-23.012-32.204
		c9.034-0.472,17.188-1.254,24.006-2.081L314.329,408.748z M455.568,178.146c-5.092,9.336-14.802,15.223-25.435,15.42l-19.797,0.367
		c-10.588,0.196-19.968,6.986-23.481,16.945c-1.296,3.674,0.204,7.876,3.722,9.548c1.063,0.505,2.17,0.741,3.251,0.741
		c3.17,0,6.122-2.026,7.144-5.22c1.348-4.214,5.45-6.94,9.874-7.021l13.582-0.252c7.388,32.554,3.112,66.55-12.244,96.355
		c-16.247,31.535-43.509,55.701-76.765,68.046l0,0c-2.582,0.958-5.239,1.673-7.954,2.136c-17.989,3.065-82.566,11.951-130.712-8.451
		c-34.458-14.6-64.138-5.786-90.323,1.991c-21.306,6.327-39.706,11.792-57.953,4.899c-14.487-5.473-22.37-19.595-26.432-30.479
		c-12.15-32.553-8.117-81.538,9.385-113.95c8.431-15.658,17.679-27.208,23.294-33.543c5.45,4.976,14.571,11.113,27.639,12.878
		c2.475,0.334,4.982,0.501,7.525,0.501c20.312,0,42.768-10.651,66.877-31.747c41.811-36.584,60.671-25.552,60.857-25.436
		c-0.141-0.087-0.207-0.144-0.207-0.144l0.005-0.007c0.195,0.142,0.393,0.282,0.603,0.406c23.07,13.571,51.938,9.383,70.2-10.185
		l47.878-51.297c12.97-13.896,31.187-21.501,50.149-21.012L367.468,99.69c-10.55,16.88-10.621,38.661-0.213,55.607
		c1.169,1.903,3.019,3.352,5.217,3.747c3.332,0.598,6.546-1.065,8.029-3.956l36.201-70.593l16.925,11.038
		c9.608,6.266,13.2,18.61,8.453,29.053l-9.08,19.977c-1.522,3.347-0.392,7.304,2.667,9.344l24.29,16.193L455.568,178.146z"/>
	<path d="M417.142,147.357l-13,3c-4.036,0.932-6.553,4.958-5.622,8.995c0.801,3.469,3.887,5.815,7.301,5.815
		c0.559,0,1.126-0.063,1.693-0.193l13-3c4.036-0.932,6.553-4.958,5.622-8.995C425.204,148.941,421.177,146.426,417.142,147.357z"/>
</g>
<g>
</g>
<g>
</g>
<g>
</g>
<g>
</g>
<g>
</g>
<g>
</g>
<g>
</g>
<g>
</g>
<g>
</g>
<g>
</g>
<g>
</g>
<g>
</g>
<g>
</g>
<g>
</g>
<g>
</g>
</svg>
