<?xml version="1.0" encoding="iso-8859-1"?>
<!-- Generator: Adobe Illustrator 18.0.0, SVG Export Plug-In . SVG Version: 6.00 Build 0)  -->
<!DOCTYPE svg PUBLIC "-//W3C//DTD SVG 1.1//EN" "http://www.w3.org/Graphics/SVG/1.1/DTD/svg11.dtd">
<svg version="1.1" id="Capa_1" xmlns="http://www.w3.org/2000/svg" xmlns:xlink="http://www.w3.org/1999/xlink" x="0px" y="0px"
	 viewBox="0 0 474.525 474.525" style="enable-background:new 0 0 474.525 474.525;" xml:space="preserve">
<path d="M473.637,91.723c-0.628-3.139-3.09-5.434-6.081-5.955c-0.126-0.022-12.749-2.244-25.081-6.539
	c-7.471-2.602-12.459-5.133-15.683-7.317c-3.082-2.088-4.38-5.904-3.393-9.493c0.866-3.147,1.348-6.43,1.413-9.791
	c0.252-13.076-6.24-25.358-16.75-33.141c-36.22-26.819-85.757-25.9-120.989,2.41c-24.117,19.38-31.567,52.375-18.116,80.237
	l0.617,1.277l-28.559,31.731c-12.965,14.405-21.93,31.695-26.279,50.253l-79.963,12.6c-3.924,0.616-7.705,1.686-11.323,3.168
	l-3.15-8.533c17.687-8.571,29.633-27.196,28.359-48.403c-1.496-24.908-21.432-45.191-46.312-47.085
	c-29.508-2.245-54.238,21.13-54.238,50.173c0,27.748,22.574,50.322,50.321,50.322c2.459,0,4.875-0.186,7.241-0.528l4.617,11.953
	c-12.728,10.552-19.573,26.669-18.094,43.411c4.268,48.069,3.335,60.213,2.735,63.208c-1.412,7.069-15.294,21.349-34.146,35.267
	c-3.142-0.616-6.384-0.948-9.704-0.948c-27.748,0-50.322,22.574-50.322,50.322c0,16.366,7.857,30.927,19.993,40.123l0.346,16.594
	c0.2,9.641,8.209,17.485,17.852,17.485l61.497,0c1.379,0,2.761-0.302,3.95-1c2.841-1.668,4.187-4.841,3.619-7.881l-1.065-5.682
	c-2.086-11.128-9.099-20.484-18.647-25.807c8.136-8.943,13.101-20.818,13.101-33.831c0-7.781-1.777-15.155-4.943-21.739
	l33.495-13.835c11.217-4.633,20.267-13.218,25.484-24.175l25.755-54.085l0,0c0.027-0.058,3.557-5.729,31.408-2.394
	c13.021,1.559,25.614,4.457,30.297,5.597c13.926,14.797,31.827,25.992,52.318,31.698l15.65,4.358
	c9.42,2.624,19.063,3.923,28.675,3.923c0.292,0,0.585-0.01,0.877-0.013l0.966,30.169c-12.418,9.173-20.49,23.907-20.49,40.495
	c0,20.642,12.497,38.412,30.319,46.164l0.26,10.619c0.237,9.688,8.159,17.419,17.85,17.419l48.994,0c1.378,0,2.758-0.302,3.946-1
	c2.84-1.669,4.189-4.842,3.617-7.883l-1.064-5.68c-1.979-10.554-8.38-19.528-17.18-24.969c8.603-9.033,13.902-21.241,13.902-34.671
	c0-21.826-13.971-40.443-33.436-47.399l2.407-36.221c36.784-19.946,58.483-59.209,55.563-101.255l-0.046-0.66
	c-2.083-29.997-12.015-58.344-28.896-82.839h12.618c17.166,0,32.66-10.288,39.322-26.109l4.03-9.571
	C473.703,94.835,473.942,93.249,473.637,91.723z M63.107,147.316c0-19.477,15.845-35.322,35.321-35.322s35.322,15.845,35.322,35.322
	s-15.846,35.322-35.322,35.322S63.107,166.793,63.107,147.316z M51.078,365.001c19.477,0,35.322,15.845,35.322,35.322
	s-15.846,35.322-35.322,35.322S15.755,419.8,15.755,400.323S31.601,365.001,51.078,365.001z M38.946,459.525
	c-1.542,0-2.823-1.255-2.855-2.797l-0.176-8.422c4.787,1.516,9.88,2.339,15.163,2.339c8.449,0,16.412-2.102,23.41-5.797
	c7.862,1.558,14.276,7.213,16.865,14.677H38.946z M214.525,269.219c-9.793-1.179-17.986-1.47-24.702-0.858l8.172-17.162
	c1.781-3.74,0.192-8.215-3.547-9.996c-3.74-1.781-8.216-0.193-9.996,3.547l-42.56,89.375c-3.617,7.596-9.892,13.548-17.668,16.76
	l-36.451,15.056c-3.134-3.342-6.709-6.266-10.645-8.658c3.625-2.894,7.718-6.316,11.739-10.008
	c12.396-11.381,19.19-20.754,20.767-28.652c0.599-2.984,2.417-12.064-2.502-67.473c-1.17-13.246,5.064-25.945,16.269-33.14
	c4.172-2.677,8.779-4.425,13.699-5.197l75.103-11.835c-0.319,3.474-0.481,6.975-0.481,10.493c0,21.689,6.221,42.314,17.128,59.925
	C224.407,270.595,219.521,269.821,214.525,269.219z M369.323,459.525c-1.563,0-2.816-1.224-2.854-2.786l-0.155-6.336
	c1.614,0.157,3.248,0.242,4.902,0.242c8.164,0,15.872-1.966,22.697-5.431c7.146,1.956,12.895,7.344,15.31,14.311H369.323z
	 M406.538,400.323c0,19.477-15.846,35.322-35.322,35.322s-35.322-15.845-35.322-35.322s15.846-35.322,35.322-35.322
	S406.538,380.846,406.538,400.323z M371.215,350.001c-5.247,0-10.307,0.81-15.066,2.306l-0.763-23.828
	c6.658-1.001,13.232-2.63,19.631-4.888l-1.759,26.461C372.58,350.026,371.901,350.001,371.215,350.001z M431.108,216.494
	c2.597,37.396-17.465,72.238-51.109,88.765c-20.252,9.948-43.374,12.094-65.11,6.04l-15.65-4.358
	c-42.695-11.89-72.515-51.148-72.515-95.468c0-24.523,9.035-48.067,25.439-66.295l31.928-35.474
	c2.037-2.264,2.503-5.536,1.179-8.279l-2.807-5.812c-10.396-21.537-4.638-47.042,14.005-62.022
	c30.229-24.292,72.864-24.817,103.685-1.283c6.162,4.706,9.685,11.851,9.666,19.605c-0.02,7.753-3.577,14.882-9.763,19.558
	l-17.726,13.4c-4.896-3.832-10.93-5.951-17.347-5.951c-9.003,0-17.265,4.151-22.666,11.39
	c-12.992,17.412-28.479,43.469-28.479,68.728c0,44.842,22.466,79.968,51.146,79.968c28.505,0,50.862-34.705,51.133-79.156
	c8.493,17.378,13.58,36.289,14.947,55.985L431.108,216.494z M401.127,159.037c0,35.216-16.553,64.968-36.146,64.968
	s-36.146-29.752-36.146-64.968c0-21.143,13.868-44.167,25.501-59.757c2.542-3.407,6.422-5.361,10.645-5.361
	s8.103,1.954,10.645,5.361C387.26,114.869,401.127,137.891,401.127,159.037z M455.245,100.021
	c-4.33,10.284-14.338,16.929-25.497,16.929h-25.319c-3.797-7.443-8.137-14.409-12.427-20.589L409.1,83.436
	c1.397-1.056,2.702-2.198,3.928-3.401c5.125,5.03,13.315,9.477,24.678,13.418c6.578,2.281,13.103,4.003,18.123,5.179
	L455.245,100.021z"/>
<g>
</g>
<g>
</g>
<g>
</g>
<g>
</g>
<g>
</g>
<g>
</g>
<g>
</g>
<g>
</g>
<g>
</g>
<g>
</g>
<g>
</g>
<g>
</g>
<g>
</g>
<g>
</g>
<g>
</g>
</svg>
