<?xml version="1.0" encoding="iso-8859-1"?>
<!-- Generator: Adobe Illustrator 18.0.0, SVG Export Plug-In . SVG Version: 6.00 Build 0)  -->
<!DOCTYPE svg PUBLIC "-//W3C//DTD SVG 1.1//EN" "http://www.w3.org/Graphics/SVG/1.1/DTD/svg11.dtd">
<svg version="1.1" id="Capa_1" xmlns="http://www.w3.org/2000/svg" xmlns:xlink="http://www.w3.org/1999/xlink" x="0px" y="0px"
	 viewBox="0 0 472.214 472.214" style="enable-background:new 0 0 472.214 472.214;" xml:space="preserve">
<path d="M460.695,79.339l-19.856-1.324c-3.294-16.556-17.935-29.075-35.444-29.075c-27.885,0-53.972,14.941-68.081,38.991
	l-14.994,25.558c-5.331,9.087-13.168,16.304-22.664,20.871c-35.61,17.127-73.673,26.88-113.133,28.987l-77.93,4.161l-4.37-1.639
	c-9.143-3.428-19.508-1.183-26.413,5.721c-3.844,3.844-5.695,9.146-5.081,14.546c0.296,2.596,1.142,5.042,2.453,7.202l-2.122,2.851
	c-11.266,15.138-18.17,33.069-19.967,51.854l-4.669,48.817l-40.92,35.827c-6.259,5.479-8.869,13.89-6.813,21.949l14.852,58.218
	c0.847,3.322,3.839,5.646,7.267,5.646h35.524c2.347,0,4.558-1.098,5.976-2.968s1.879-4.295,1.247-6.555l-0.446-1.591
	c-2.964-10.586-10.738-18.955-20.828-22.751l-3.924-18.316c-1.113-5.194,1.64-10.482,6.547-12.574
	c15.305-6.526,37.975-17.853,59.053-34.755c15.354-12.312,27.443-25.633,36.182-39.826c17.565,4.77,72.373,18.275,129.849,18.275
	c6.576,0,13.188-0.177,19.782-0.564c0.178,4.452,0.129,8.908-0.165,13.34l-4.155,62.788c-0.064,0.97,0.061,1.944,0.368,2.867
	l13.638,40.911c0.986,2.958,3.7,4.998,6.815,5.123l34.092,1.363c0.101,0.004,0.201,0.006,0.302,0.006
	c2.953,0,5.645-1.738,6.852-4.454c2.272-5.113,2.399-10.798,0.355-16.008c-2.043-5.209-6.001-9.292-11.145-11.496l-3.773-1.617
	l-5.683-15.5l10.854-59.44c1.56-8.54,3.954-16.921,7.109-25.006c4.607-2.712,13.749-8.61,25.355-18.729
	c11.45-9.983,18.617-23.721,20.181-38.683c3.899-37.297,17.973-68.808,23.415-79.862c4.241,0.098,8.512-0.397,12.683-1.544
	c11.139-3.063,20.849-8.403,28.862-15.873c9.205-8.581,14.484-20.85,14.484-33.66v-9.75
	C472.214,85.178,467.154,79.77,460.695,79.339z M457.214,101.403c0,8.665-3.54,16.934-9.713,22.688
	c-6.224,5.802-13.831,9.968-22.61,12.382c-9.299,2.557-19.381,0.307-26.969-6.018c-3.182-2.651-7.91-2.222-10.563,0.96
	c-2.651,3.182-2.222,7.911,0.96,10.563c3.846,3.205,8.133,5.69,12.659,7.451c-6.712,14.217-19.31,44.847-23.125,81.353
	c-1.169,11.177-6.539,21.454-15.12,28.937c-2.724,2.375-5.291,4.488-7.678,6.366c1.879-11.104,1.211-22.574-2.094-33.508
	l-1.752-5.798c-1.198-3.965-5.389-6.209-9.349-5.01c-3.966,1.198-6.209,5.383-5.011,9.349l1.753,5.799
	c4.064,13.443,3.149,27.909-2.575,40.732c-4.908,10.992-8.493,22.572-10.656,34.417l-11.221,61.45
	c-0.24,1.316-0.124,2.673,0.336,3.929l7.5,20.456c0.711,1.938,2.189,3.498,4.088,4.312l6.747,2.892
	c1.326,0.568,2.368,1.587,2.963,2.889l-21.734-0.87l-11.533-34.599l4.058-61.317c1.369-20.677-1.89-41.813-9.424-61.121
	c-1.507-3.858-5.854-5.767-9.714-4.26c-3.858,1.506-5.766,5.854-4.261,9.713c3.311,8.484,5.693,17.364,7.121,26.395
	c-57.952,3.256-118.821-10.672-140.919-16.396c2.593-5.767,4.674-11.659,6.224-17.673c1.034-4.011-1.38-8.101-5.391-9.134
	c-4.01-1.032-8.1,1.379-9.134,5.391c-13.894,53.908-74.599,84.973-100.054,95.826c-11.497,4.902-17.944,17.315-15.33,29.515
	l4.854,22.654c0.617,2.88,2.862,5.132,5.74,5.757c3.883,0.844,7.316,2.838,9.925,5.627H28.637l-13.412-52.572
	c-0.651-2.553,0.176-5.218,2.159-6.955l43.162-37.79c1.44-1.261,2.343-3.024,2.525-4.929l4.953-51.783
	c1.536-16.058,7.438-31.386,17.069-44.327l5.849-7.859c1.251-1.68,1.742-3.808,1.354-5.866c-0.388-2.059-1.619-3.861-3.396-4.971
	c-0.973-0.608-1.212-1.52-1.268-2.009s-0.028-1.432,0.783-2.243c2.755-2.754,6.892-3.649,10.54-2.283l5.838,2.189
	c0.967,0.363,2,0.522,3.033,0.467l79.495-4.245c41.448-2.213,81.43-12.457,118.836-30.448c12.191-5.864,22.254-15.131,29.099-26.799
	l14.994-25.558c8.117-13.836,21.131-23.944,36.083-28.643c3.566,2.462,9.311,7.689,6.159,14.281
	c-1.934,4.042-3.909,7.369-5.729,10.048c-0.74-0.993-1.606-1.947-2.617-2.828c-3.395-2.957-9.601-6.02-19.871-3.817
	c-4.051,0.868-6.63,4.855-5.763,8.905c0.868,4.05,4.854,6.63,8.905,5.762c3.266-0.7,5.699-0.543,6.853,0.441
	c1.533,1.308,1.892,4.712,1.825,5.99c-0.217,2.933,1.3,5.722,3.88,7.134c1.127,0.616,2.365,0.92,3.599,0.92
	c1.592,0,3.176-0.506,4.501-1.5c0.988-0.741,9.887-7.727,17.948-24.583c3.833-8.013,3.177-16.291-1.773-23.672
	c0.381-0.007,0.762-0.019,1.144-0.019c10.034,0,18.44,7.035,20.589,16.427l-4.452,1.908c-3.807,1.632-5.57,6.041-3.938,9.848
	c1.219,2.844,3.987,4.547,6.897,4.547c0.985,0,1.987-0.196,2.951-0.608l7.889-3.381l21.884,1.459V101.403z"/>
<g>
</g>
<g>
</g>
<g>
</g>
<g>
</g>
<g>
</g>
<g>
</g>
<g>
</g>
<g>
</g>
<g>
</g>
<g>
</g>
<g>
</g>
<g>
</g>
<g>
</g>
<g>
</g>
<g>
</g>
</svg>
