<?xml version="1.0" encoding="iso-8859-1"?>
<!-- Generator: Adobe Illustrator 18.0.0, SVG Export Plug-In . SVG Version: 6.00 Build 0)  -->
<!DOCTYPE svg PUBLIC "-//W3C//DTD SVG 1.1//EN" "http://www.w3.org/Graphics/SVG/1.1/DTD/svg11.dtd">
<svg version="1.1" id="Capa_1" xmlns="http://www.w3.org/2000/svg" xmlns:xlink="http://www.w3.org/1999/xlink" x="0px" y="0px"
	 viewBox="0 0 485.756 485.756" style="enable-background:new 0 0 485.756 485.756;" xml:space="preserve">
<g>
	<path d="M485.739,190.716l-1.409-41.829c-0.083-2.457-1.364-4.717-3.43-6.05l-15.904-10.261l3.519-11.515
		c2.17-7.099-0.028-14.857-5.6-19.765l-33.287-29.312c-5.065-4.461-11.571-7.042-18.318-7.267L383.772,63.8
		c-4.199-0.144-8.273,0.603-12.144,2.207l-87.884,36.408l-43.138,3.172c-5.433-1.022-31.193-5.583-64.612-6.848
		c-49.944-1.892-90.988,4.336-122.005,18.508c-7.886,3.604-14.764,9.03-20.136,15.706l-15.634,4.571
		C7.492,140.661,0,150.658,0,161.834v38.596c0,13.212,8.774,24.554,20.928,28.287l2.364,54.95l-7.872,30.101
		c-2.379,9.093-2.554,18.747-0.508,27.918l14.51,65.043c2.001,8.975,9.821,15.244,19.018,15.244h35.889
		c4.224,0,8.137-1.909,10.735-5.238c2.6-3.329,3.503-7.588,2.479-11.685l-0.896-3.586c-2.271-9.086-10.254-15.499-19.555-15.813
		l0.527-43.737l5.68-3.682c18.96-12.289,33.31-29.915,41.499-50.972c0.811-2.085,1.547-4.189,2.223-6.308l0.302,0.215
		c20.202,14.374,42.757,24.213,67.037,29.244l37.514,7.773l2.512,35.723c0.742,10.551,5.078,20.663,12.21,28.473
		c2.528,2.769,4.536,5.931,5.969,9.399l5.809,14.064c3.713,8.988,12.396,14.795,22.12,14.795h37.509
		c4.622,0,8.943-2.274,11.56-6.084c2.617-3.81,3.188-8.66,1.529-12.974c-2.915-7.58-9.359-13.282-17.238-15.251L307,384.617v-60.779
		c0-3.441,2.577-6.341,5.994-6.747l5.663-0.672c15.6-1.851,29.462-10.464,38.031-23.629l13.062-20.068l23.163-1.448
		c15.881-0.993,29.325-11.409,34.252-26.537l6.435-19.752l29.49-5.782C476.681,216.538,486.206,204.557,485.739,190.716z
		 M15,161.834c0-4.557,3.055-8.633,7.43-9.912l1.567-0.458c-5.708,17.487-8.907,38.409-7.934,54.419
		C15.377,204.194,15,202.352,15,200.43V161.834z M460.203,204.483l-40.714,7.983c-2.889,0.565-5.793-0.768-7.249-3.317
		c-0.891-1.557-1.132-3.37-0.681-5.106l15.814-60.917l2.081-1.387l1.307,1.802c1.467,2.024,3.756,3.099,6.078,3.099
		c1.526,0,3.066-0.464,4.396-1.428c3.354-2.431,4.102-7.121,1.67-10.474l-1.017-1.403c2.69-2.455,3.268-6.566,1.185-9.689
		c-2.298-3.447-6.954-4.377-10.4-2.08l-16,10.667c-1.533,1.022-2.636,2.572-3.1,4.355l-16.533,63.686
		c-1.441,5.548-0.668,11.344,2.176,16.319c3.738,6.544,10.487,10.571,17.77,10.964l-4.083,12.534
		c-3.011,9.242-11.225,15.606-20.926,16.212l-42.945,2.684c-4.134,0.258-7.276,3.819-7.018,7.953
		c0.248,3.975,3.55,7.033,7.479,7.033c0.157,0,0.315-0.005,0.475-0.015l1.125-0.07l-6.977,10.719
		c-4.255,6.537-10.334,11.502-17.386,14.375c0.909-26.321-13.723-59.426-14.383-60.903c-1.69-3.781-6.123-5.477-9.904-3.788
		c-3.781,1.688-5.479,6.122-3.792,9.904c0.154,0.346,15.419,34.914,12.849,57.72c-0.017,0.147-0.129,0.262-0.273,0.279
		C300.266,303.496,292,312.801,292,323.838v58.829l-8.866-0.355c-4.134-0.159-7.627,3.055-7.794,7.194
		c-0.165,4.139,3.056,7.628,7.194,7.794l27.679,3.582c2.665,0.667,4.918,2.402,6.251,4.758h-35.972c-3.63,0-6.871-2.168-8.257-5.522
		l-5.809-14.063c-2.101-5.086-5.046-9.725-8.756-13.787c-4.861-5.324-7.817-12.218-8.323-19.411l-4.421-62.878
		c-0.479-6.814-2.534-13.547-5.944-19.471c-3.553-6.17-3.088-13.837,1.185-19.534c2.485-3.314,1.813-8.015-1.5-10.5
		c-3.315-2.487-8.015-1.813-10.5,1.5c-7.878,10.504-8.734,24.643-2.184,36.019c2.283,3.966,3.659,8.475,3.98,13.038l0.816,11.61
		l-33.378-6.916c-22.232-4.606-42.885-13.616-61.385-26.778l-5.257-3.74c0.947-5.998,1.383-12.084,1.295-18.226l-1.057-73.948
		c-0.059-4.105-3.404-7.393-7.497-7.393c-0.036,0-0.072,0-0.109,0.001c-4.142,0.059-7.451,3.464-7.392,7.606l1.057,73.947
		c0.17,11.894-1.931,23.545-6.241,34.631c-7.04,18.103-19.377,33.256-35.677,43.821l-9.052,5.867
		c-2.106,1.365-3.39,3.693-3.42,6.203L62.09,385.64h-7.256c-4.143,0-7.5,3.358-7.5,7.5s3.357,7.5,7.5,7.5h21.544
		c2.708,0,5.059,1.835,5.715,4.462l0.468,1.872H48.439c-2.116,0-3.916-1.442-4.377-3.509l-14.51-65.044
		c-1.529-6.851-1.398-14.063,0.379-20.856l8.158-31.193c0.189-0.724,0.27-1.473,0.237-2.22l-2.667-62
		c-0.077-1.78-0.783-3.473-1.995-4.779c-3.573-4-5.385-31.773,5.01-62.531c3.582-10.6,11.437-19.329,21.55-23.95
		c57.845-26.431,143.115-16.053,170.021-11.839c-5.057,15.45-15.053,48.587-15.577,70.576c-0.099,4.141,3.179,7.578,7.319,7.677
		c0.061,0.001,0.121,0.002,0.183,0.002c4.059,0,7.396-3.241,7.494-7.321c0.514-21.598,11.778-57.134,15.994-69.729l7.649-0.563
		c-4.845,23.471-14.755,81.95-0.591,111.979c1.279,2.712,3.976,4.302,6.788,4.302c1.072,0,2.161-0.231,3.194-0.719
		c3.747-1.767,5.352-6.236,3.584-9.983c-13.017-27.597-1.335-88.453,2.617-106.726l9.878-0.727
		c2.282,19.404,10.516,72.004,35.306,106.373c1.467,2.032,3.761,3.113,6.089,3.113c1.521,0,3.055-0.461,4.382-1.418
		c3.359-2.423,4.118-7.111,1.695-10.47c-23.141-32.081-30.792-84.089-32.722-100.82l83.842-34.734
		c1.881-0.779,3.864-1.138,5.902-1.073l27.537,0.918c3.28,0.109,6.442,1.364,8.904,3.532l33.287,29.313
		c1.162,1.023,1.621,2.642,1.168,4.124l-5.175,16.937c-0.979,3.208,0.289,6.675,3.106,8.494l17.37,11.206l1.276,37.907
		C470.965,197.665,466.53,203.243,460.203,204.483z"/>
	<path d="M398.254,95.424c-2.421-3.362-7.11-4.123-10.469-1.704c-3.362,2.42-4.125,7.107-1.705,10.469l12.385,17.202
		c1.261,1.751,1.582,3.925,0.88,5.965c-0.701,2.04-2.291,3.557-4.361,4.163l-24.254,7.089c-3.976,1.162-6.257,5.327-5.095,9.303
		c0.957,3.274,3.949,5.398,7.196,5.398c0.696,0,1.405-0.098,2.107-0.303l24.254-7.089c6.706-1.96,12.065-7.075,14.338-13.683
		c2.271-6.607,1.19-13.937-2.892-19.607L398.254,95.424z"/>
</g>
<g>
</g>
<g>
</g>
<g>
</g>
<g>
</g>
<g>
</g>
<g>
</g>
<g>
</g>
<g>
</g>
<g>
</g>
<g>
</g>
<g>
</g>
<g>
</g>
<g>
</g>
<g>
</g>
<g>
</g>
</svg>
