<?xml version="1.0" encoding="iso-8859-1"?>
<!-- Generator: Adobe Illustrator 18.0.0, SVG Export Plug-In . SVG Version: 6.00 Build 0)  -->
<!DOCTYPE svg PUBLIC "-//W3C//DTD SVG 1.1//EN" "http://www.w3.org/Graphics/SVG/1.1/DTD/svg11.dtd">
<svg version="1.1" id="Capa_1" xmlns="http://www.w3.org/2000/svg" xmlns:xlink="http://www.w3.org/1999/xlink" x="0px" y="0px"
	 viewBox="0 0 473.595 473.595" style="enable-background:new 0 0 473.595 473.595;" xml:space="preserve">
<path d="M473.517,131.278c-0.409-3.505-2.393-6.535-5.441-8.314l-43.156-25.173l-7.147-15.724c-2.049-4.509-5.564-8.313-9.9-10.711
	l-19.709-10.9c-0.567-4.704-1.168-10.03-1.739-15.743c-0.212-2.119-1.314-4.048-3.033-5.306c-1.718-1.257-3.891-1.724-5.975-1.287
	c-6.5,1.368-14.793,6.077-20.194,20.052l-9.736,2.475c-20.614,5.241-37.087,20.366-44.064,40.46l-14.47,41.671
	c-17.742,3.143-88.188,14.144-136.302,0.396c-37.658-10.761-79.229,9.458-103.716,34.271c-8.93,9.048-15.429,18.419-19.18,27.336
	c-1.188,2.123-8.417,15.265-15.494,33.377C3.967,264.501-0.794,287.695,0.108,307.097c1.757,37.764,8.05,59.978,10.223,66.66
	l-5.974,30.296c-0.284,1.44-0.139,2.932,0.417,4.291l9.258,22.631c1.153,2.819,3.896,4.661,6.941,4.661h27.775
	c2.75,0,5.28-1.505,6.592-3.923c1.312-2.417,1.195-5.358-0.304-7.665l-11.688-17.98c2.342-9.772,12.935-44.134,49.229-63.304
	c7.989-4.22,14.634-10.543,19.217-18.286l1.729-2.914c8.405-14.157,18.23-30.716,23.766-49.003
	c23.11,5.954,97.691,27.098,138.939,61.467c0.424,4.986,1.377,9.928,2.857,14.79l20.259,66.564
	c3.687,12.114,14.672,20.254,27.335,20.254h17.886c4.9,0,9.486-2.409,12.268-6.444c2.78-4.035,3.398-9.178,1.654-13.756
	c-3.223-8.459-9.598-15.294-17.722-19.113l-0.136-15.674l5.348-57.214c0.647-0.348,1.107-0.594,1.279-0.677
	c22.253-10.79,41.802-25.857,58.104-44.782c23.998-27.86,31.725-65.712,20.669-101.253l-5.7-18.324l12.899,0.759
	c10.449,0.609,20.784-3.172,28.362-10.39l8.549-8.142C472.696,138.19,473.927,134.784,473.517,131.278z M15.092,306.4
	c-1.033-22.193,6.921-47.517,14.591-66.36c5.183,26.037,5.461,62.837,5.42,73.721l-14.116,13.234
	c-1.146,1.074-1.925,2.48-2.229,4.021l-1.029,5.217C16.598,327.826,15.627,317.891,15.092,306.4z M451.246,137.904
	c-4.577,4.36-10.829,6.65-17.136,6.277l-20.946-1.232c-10.539-0.62-20.68-4.25-29.218-10.46l-7.6-5.528
	c-2.017-1.467-4.634-1.985-6.991-1.171c-3.634,1.254-5.646,4.909-4.965,8.503c0.169,0.893,3.009,15.667,8.442,30.248
	c-13.242-10.786-24.005-32.521-23.413-51.831c0.113-3.706-2.469-7.092-6.117-7.759c-4.577-0.837-8.72,2.61-8.871,7.124
	c-1.187,35.586,25.735,73.067,53.346,74.268c0.109,0.004,0.219,0.007,0.327,0.007c3.347,0,6.39-2.235,7.276-5.67
	c0.543-2.104,0.072-4.346-1.143-6.148c-4.393-6.51-7.929-16.076-10.474-24.536c6.4,3.365,13.28,5.703,20.411,6.962l7.533,24.217
	c9.366,30.112,2.58,63.451-17.712,87.008c-13.24,15.371-28.811,27.957-46.359,37.507l1.759-18.818
	c0.385-4.124-2.646-7.78-6.77-8.165c-4.135-0.394-7.781,2.646-8.166,6.77l-8.8,94.155c-0.011,0.254-0.021,0.508-0.032,0.762
	l0.183,21.091c0.027,3.111,1.971,5.883,4.888,6.966l2.153,0.8c5.301,1.969,9.507,6.108,11.565,11.383H326.68
	c-6.016,0-11.233-3.866-12.985-9.621l-20.259-66.564c-2.343-7.7-3.017-15.652-2.003-23.635l6.499-51.184
	c0.521-4.109-2.387-7.863-6.496-8.385c-4.093-0.518-7.862,2.387-8.385,6.496l-6.079,47.879
	c-21.02-15.283-49.704-29.434-85.537-42.171c-22.129-7.866-41.034-13.04-50.79-15.528c0.53-3.484,0.869-7.02,0.981-10.604
	c0.13-4.14-3.122-7.602-7.262-7.731c-4.153-0.142-7.602,3.122-7.73,7.262c-0.767,24.539-14.763,48.113-26.009,67.056l-1.738,2.931
	c-3.172,5.358-7.775,9.737-13.314,12.663c-49.259,26.018-57.292,74.855-57.61,76.921c-0.28,1.821,0.12,3.682,1.125,5.228
	l5.841,8.986h-8.92l-6.499-15.888l13.499-68.461l14.697-13.779c1.479-1.387,2.333-3.313,2.369-5.34
	c0.043-2.442,0.94-60.167-8.545-91.783c-2.667-8.89,4.43-23.571,18.08-37.402c21.379-21.661,57.165-39.455,88.919-30.384
	c49.154,14.044,116.938,4.454,139.791,0.537c2.497,9.338,9.301,20.885,24.42,26.089c0.809,0.278,1.632,0.41,2.441,0.41
	c3.321,0,6.408-2.221,7.281-5.697c0.961-3.825-1.387-7.67-5.104-8.99c-0.141-0.05-0.281-0.101-0.419-0.152
	c-10.627-3.96-15.984-15.855-12.264-26.569l12.916-37.199c5.319-15.318,17.876-26.848,33.59-30.843l1.886-0.48
	c-1.135,7.651-1.153,13.631-1.153,13.96c0,4.139,3.354,7.492,7.492,7.496c0.003,0,0.005,0,0.008,0c4.136,0,7.491-3.352,7.5-7.488
	c0.016-7.482,1.636-20.832,6.045-29.014c1.573,13.429,2.971,22.468,3.047,22.957c0.637,4.094,4.473,6.896,8.563,6.258
	c4.093-0.636,6.895-4.47,6.259-8.563c-0.004-0.026-0.077-0.5-0.204-1.353l9.987,5.523c1.545,0.854,2.773,2.183,3.504,3.79
	l4.469,9.831l-6.6,1.76c-3.93,1.048-6.543,4.972-5.658,8.942c0.786,3.527,3.903,5.878,7.318,5.878c0.64,0,1.29-0.083,1.938-0.255
	l12.414-3.311l38.063,22.203L451.246,137.904z"/>
<g>
</g>
<g>
</g>
<g>
</g>
<g>
</g>
<g>
</g>
<g>
</g>
<g>
</g>
<g>
</g>
<g>
</g>
<g>
</g>
<g>
</g>
<g>
</g>
<g>
</g>
<g>
</g>
<g>
</g>
</svg>
