<?xml version="1.0" encoding="iso-8859-1"?>
<!-- Generator: Adobe Illustrator 18.0.0, SVG Export Plug-In . SVG Version: 6.00 Build 0)  -->
<!DOCTYPE svg PUBLIC "-//W3C//DTD SVG 1.1//EN" "http://www.w3.org/Graphics/SVG/1.1/DTD/svg11.dtd">
<svg version="1.1" id="Capa_1" xmlns="http://www.w3.org/2000/svg" xmlns:xlink="http://www.w3.org/1999/xlink" x="0px" y="0px"
	 viewBox="0 0 462.651 462.651" style="enable-background:new 0 0 462.651 462.651;" xml:space="preserve">
<path d="M447.195,160.478l8.108-9.082c5.25-5.88,7.833-13.449,7.273-21.312c-0.559-7.863-4.188-14.989-10.217-20.066
	c-28.826-24.274-70.12-25.577-100.417-3.169l-45.901,33.947c-7.04,5.207-15.254,8.833-23.757,10.488
	c-24.902,4.848-85.849,12.948-215.184,13.104c-4.65-7.755-9.856-26.102-6.985-42.179c1.656-9.273,5.704-15.644,12.03-18.933
	c5.797-3.015,22.522-8.067,52.569,10.062c6.265,3.78,14.431,2.974,19.859-1.961c6.688-6.081,7.359-16.254,1.528-23.161l-1.369-1.622
	c-22.045-26.106-59.109-34.339-90.135-20.02c-15.758,7.273-28.673,19.847-36.366,35.405c-7.693,15.558-9.844,33.454-6.057,50.392
	l7.54,33.725c-4.4,5.841-7.69,12.638-9.505,20.127c-9.404,38.802-17.101,91.754-0.368,123.67c3.672,7.004,5.924,14.933,6.696,23.567
	l2.38,26.658c1.167,13.074,11.946,22.933,25.072,22.933h34.639c8.733,0,15.838-7.104,15.838-15.837
	c0-12.094-8.286-22.29-19.479-25.207c-0.378-3.315-0.508-6.439-0.309-8.15c9.215-6.061,17.512-13.88,24.232-22.557l14.529-1.897
	c17.412-2.273,35.105-0.245,51.17,5.866c14.355,5.459,28.999,8.262,42.918,8.262c1.183,0,2.359-0.028,3.531-0.068l7.619,38.896
	c2.349,11.991,12.921,20.693,25.14,20.693h46.378c3.528,0,6.58-2.459,7.329-5.907l2.616-12.035
	c2.006-9.229-1.798-18.72-9.234-24.128l-2.438-30.069c49.946-16.84,87.765-57.962,100.618-108.681l3.94,1.738
	c17.529,7.734,37.761,3.226,50.35-11.214l12.676-14.541c6.057-6.948,6.439-17.342,0.909-24.716L447.195,160.478z M447.614,131.149
	c0.269,3.784-0.974,7.427-3.501,10.257l-9.962,11.158h-4.742c0.933-17.359-2.405-32.158-5.805-42.336
	c6.796,2.594,13.258,6.35,19.093,11.264C445.599,123.935,447.345,127.365,447.614,131.149z M360.861,118.91
	c13.392-9.904,29.417-14.111,45.029-12.744c4.397,9.75,15.704,40.537,2.052,75.255c-0.947,2.408-2.907,4.375-5.398,5.074
	c-1.237,0.347-2.523,0.389-3.769,0.127c-0.519-0.109-3.639-1.425-4.158-1.672c-13.862-6.591-25.394-17.878-32.594-31.947
	l-12.977-25.355L360.861,118.91z M60.883,80.195c24.917-11.499,54.683-4.888,72.388,16.078l1.369,1.622
	c0.601,0.711,0.531,1.758-0.158,2.385c-0.559,0.508-1.388,0.596-2.019,0.217c-35.233-21.26-57.25-15.722-67.238-10.528
	c-10.522,5.472-17.395,15.708-19.877,29.604c-1.758,9.845-1.25,21.543,1.432,32.939c1.142,4.852,2.603,9.343,4.28,13.267
	c-6.772,1.548-13.094,4.355-18.686,8.199L26.812,149.1C20.567,121.168,34.896,92.189,60.883,80.195z M283.216,316.853l-5.07,1.69
	c-3.276,1.092-5.383,4.279-5.104,7.721l2.568,31.68h-15.209c-4.107,0-7.688,3.164-7.811,7.269c-0.128,4.247,3.278,7.731,7.497,7.731
	h17.928c4.451,0,8.15,3.818,7.596,8.234c-0.031,0.249-0.074,0.497-0.128,0.745l-1.333,6.128h-40.333
	c-5.064,0-9.446-3.607-10.419-8.577l-17.564-89.668c-0.796-4.065-4.739-6.713-8.802-5.918c-4.064,0.796-6.714,4.737-5.918,8.802
	l7.018,35.827c-15.175,0.113-28.839-3.713-38.19-7.27c-18.375-6.988-38.583-9.311-58.444-6.719l-2.284,0.298
	c2.622-5.39,4.596-10.884,5.784-16.314l6.124-27.994c0.815-3.724-1.133-7.629-4.724-8.907c-4.345-1.546-8.92,1.091-9.875,5.453
	l-6.178,28.243c-3.748,17.133-17.898,35.962-35.21,46.854c-1.785,1.123-6.666,4.204-5.373,19.007h-1.512
	c-4.107,0-7.688,3.164-7.811,7.269c-0.128,4.247,3.278,7.731,7.497,7.731h10.488c6.082,0,11.031,4.94,11.045,11.018
	c0.001,0.472-0.365,0.864-0.838,0.864h-34.64c-5.267,0-9.662-4.021-10.131-9.267l-2.38-26.658
	c-0.948-10.612-3.757-20.436-8.351-29.198c-11.363-21.674-10.773-61.866,1.661-113.172c4.333-17.878,20.173-30.365,38.521-30.365
	c133.205,0,196.166-8.385,221.841-13.384c10.68-2.079,20.988-6.627,29.811-13.152l21.861-16.168l11.848,23.149
	c7.284,14.233,18.271,26.118,31.531,34.308c0,0-4.633,20.156-5.102,22.144C364.016,263.284,329.288,301.496,283.216,316.853z
	 M444.746,188.359l-12.676,14.54c-8.247,9.461-21.503,12.415-32.989,7.348l-6.596-2.91l1.534-6.458
	c2.092,0.61,4.236,0.923,6.382,0.923c2.978,0,5.958-0.588,8.801-1.766c5.775-2.393,10.228-6.908,12.538-12.713
	c2.691-6.764,4.57-13.377,5.814-19.758h6.207l11.202,14.936C446.272,184.248,446.181,186.712,444.746,188.359z"/>
<g>
</g>
<g>
</g>
<g>
</g>
<g>
</g>
<g>
</g>
<g>
</g>
<g>
</g>
<g>
</g>
<g>
</g>
<g>
</g>
<g>
</g>
<g>
</g>
<g>
</g>
<g>
</g>
<g>
</g>
</svg>
