<?xml version="1.0" encoding="iso-8859-1"?>
<!-- Generator: Adobe Illustrator 18.0.0, SVG Export Plug-In . SVG Version: 6.00 Build 0)  -->
<!DOCTYPE svg PUBLIC "-//W3C//DTD SVG 1.1//EN" "http://www.w3.org/Graphics/SVG/1.1/DTD/svg11.dtd">
<svg version="1.1" id="Capa_1" xmlns="http://www.w3.org/2000/svg" xmlns:xlink="http://www.w3.org/1999/xlink" x="0px" y="0px"
	 viewBox="0 0 482.525 482.525" style="enable-background:new 0 0 482.525 482.525;" xml:space="preserve">
<path d="M481.052,64.208c-1.299-1.754-3.297-2.855-5.474-3.016l-36.063-2.671l-5.66-12.452c-0.652-1.434-1.739-2.626-3.107-3.408
	c-0.7-0.4-17.506-9.768-46.917-5.82c-12.124,1.628-22.65,8.591-28.879,19.104c-5.06,8.538-11.815,19.877-20.082,33.702
	c-8.69,14.536-22.084,26.139-37.713,32.67l-53.615,22.407c-11.755,4.912-24.714,6.851-37.47,5.606
	c-47.658-4.645-109.225-6.14-131.885,13.122c-2.009,1.708-3.965,3.647-5.864,5.795c-17.428-11.944-39.775-15.244-60.052-8.484
	l-3.144,1.048c-3.269,1.09-5.374,4.267-5.104,7.702c0.27,3.436,2.845,6.245,6.243,6.812l9.141,1.523
	c11.785,1.964,22.682,7.933,30.682,16.807l4.49,4.98c-4.454,11.109-8.063,23.85-10.597,37.746
	c-5.791,31.751-4.901,63.156,2.388,86.879c-4.745,7.123-16.866,20.845-24.293,28.769c-1.565,1.67-2.283,3.964-1.947,6.229
	l9.632,65.016c1.891,12.759,13.043,22.381,25.941,22.381h11.863c5.636,0,10.917-2.766,14.127-7.398s3.945-10.548,1.945-15.881
	c-3.256-8.684-9.534-15.913-17.676-20.354l-1.077-0.587l7.765-27.609c2.267-8.057,6.918-15.079,13.454-20.307l29.059-23.247
	c7.804-6.244,13.637-14.758,16.693-24.249l5.561-2.757c12.329-6.112,26.545-7.981,40.033-5.263l109.965,22.16
	c3.261,48.992,29.867,91.495,43.714,110.534c6.812,9.367,17.794,14.958,29.377,14.958h15.391c5.323,0,10.314-2.609,13.354-6.979
	c3.038-4.37,3.745-9.958,1.892-14.948c-3.667-9.871-11.38-17.77-21.162-21.67l-5.023-2.003l-0.669-75.061
	c0,0,7.861-5.592,10.448-7.341c9.263-6.262,19.761-13.359,28.023-24.475c9.583-12.894,14.242-28.677,14.242-48.25
	c0-14.537-5.589-56.289-7.241-68.312c2.243-3.179,3.879-6.831,4.708-10.799c2.778-13.309,3.744-29.063,3.936-42.789l22.97-0.621
	c19.538-0.528,36.191-14.212,40.496-33.278l4.472-19.804C482.822,68.194,482.351,65.962,481.052,64.208z M57.229,184.61
	c-3.236-3.59-6.842-6.809-10.736-9.613c4.585,1.516,8.971,3.672,13.029,6.411c-0.685,1.137-1.356,2.309-2.018,3.507L57.229,184.61z
	 M463.238,86.824c-2.793,12.368-13.597,21.245-26.271,21.588l-22.634,0.611c-0.234-10.42-0.771-17.693-0.827-18.422
	c-0.314-4.129-3.902-7.219-8.047-6.909c-4.13,0.314-7.224,3.917-6.91,8.046c0.033,0.431,3.199,43.429-2.767,72.012
	c-1.122,5.375-5.238,9.571-10.486,10.691c-6.029,1.287-12.477,1.923-19.267,1.867c-1.125-0.008-1.793-0.637-2.091-1.012
	c-0.292-0.368-0.747-1.146-0.507-2.218C370.078,143.449,378,105.492,378,92.926c0-4.142-3.357-7.5-7.5-7.5s-7.5,3.358-7.5,7.5
	c0,8.479-5.31,37.215-14.204,76.871c-1.173,5.232,0.067,10.639,3.401,14.834c3.343,4.206,8.347,6.64,13.727,6.678
	c0.276,0.002,0.551,0.003,0.826,0.003c7.547,0,14.837-0.74,21.678-2.2c1.235-0.264,2.434-0.619,3.603-1.036
	c2.209,16.695,5.969,46.738,5.969,57.85c0,36.187-18.132,48.444-35.666,60.298c-0.755,0.511-1.476,1.004-2.21,1.503L360,293.86
	c-0.037-4.12-3.388-7.433-7.499-7.433c-0.022,0-0.045,0-0.067,0c-4.143,0.037-7.47,3.424-7.434,7.566l1,112.229
	c0.027,3.045,1.894,5.772,4.723,6.9l9.701,3.868c5.85,2.333,10.463,7.056,12.656,12.96c0.152,0.411,0.103,0.802-0.147,1.162
	c-0.25,0.359-0.599,0.542-1.037,0.542h-15.391c-6.8,0-13.247-3.283-17.246-8.781c-16.875-23.205-54.219-83.772-36.554-144.862
	c1.15-3.979-1.143-8.138-5.122-9.289c-3.972-1.149-8.137,1.143-9.288,5.122c-3.112,10.761-4.699,21.469-5.105,31.971
	l-106.778-21.518c-14.64-2.952-29.972-1.544-43.821,3.933l9.236-37.785c0.983-4.023-1.48-8.083-5.504-9.066
	c-4.024-0.982-8.083,1.481-9.066,5.505l-12.981,53.107c-1.877,7.679-6.311,14.628-12.484,19.567l-29.059,23.247
	c-8.997,7.198-15.402,16.866-18.522,27.959l-9.383,33.362c-0.947,3.366,0.559,6.94,3.628,8.614l6.323,3.449
	c4.981,2.717,8.822,7.14,10.836,12.509c0.35,0.933-0.007,1.663-0.25,2.014c-0.244,0.352-0.802,0.942-1.799,0.942H51.702
	c-5.521,0-10.294-4.118-11.104-9.579l-9.104-61.455c6.286-6.835,21.697-23.979,25.761-32.105c0.9-1.801,1.039-3.889,0.385-5.792
	c-7.354-21.394-8.438-52.291-2.901-82.649c5.46-29.939,16.362-54.309,29.164-65.19c14.134-12.015,59.262-15.611,120.715-9.622
	c15.213,1.485,30.675-0.832,44.708-6.696l53.615-22.407c18.567-7.759,34.479-21.543,44.805-38.813
	c8.275-13.842,15.042-25.198,20.111-33.753c3.875-6.54,10.425-10.871,17.971-11.884c18.723-2.512,30.997,1.291,35.525,3.104
	l3.299,7.258l-4.378,2.086c-3.739,1.782-5.326,6.257-3.544,9.997c1.285,2.698,3.974,4.276,6.775,4.276
	c1.082,0,2.18-0.235,3.222-0.731l9.231-4.398l29.835,2.21L463.238,86.824z"/>
<g>
</g>
<g>
</g>
<g>
</g>
<g>
</g>
<g>
</g>
<g>
</g>
<g>
</g>
<g>
</g>
<g>
</g>
<g>
</g>
<g>
</g>
<g>
</g>
<g>
</g>
<g>
</g>
<g>
</g>
</svg>
