<?xml version="1.0" encoding="iso-8859-1"?>
<!-- Generator: Adobe Illustrator 18.0.0, SVG Export Plug-In . SVG Version: 6.00 Build 0)  -->
<!DOCTYPE svg PUBLIC "-//W3C//DTD SVG 1.1//EN" "http://www.w3.org/Graphics/SVG/1.1/DTD/svg11.dtd">
<svg version="1.1" id="Capa_1" xmlns="http://www.w3.org/2000/svg" xmlns:xlink="http://www.w3.org/1999/xlink" x="0px" y="0px"
	 viewBox="0 0 473.426 473.426" style="enable-background:new 0 0 473.426 473.426;" xml:space="preserve">
<path d="M472.779,108.554l-4.05-17.546c-0.785-3.403-3.815-5.813-7.308-5.813H441.29c-0.768-6.713-4.421-12.803-10.101-16.647
	c-8.766-5.924-18.969-9.293-29.509-9.745c-0.959-0.053-1.875-0.06-2.485-0.06c-11.348,0-22.338,3.337-31.785,9.654l-82.843,55.446
	c-10.912,7.299-23.611,10.982-36.736,10.654l-110.588-2.819c-18.954-0.482-37.511,4.511-53.678,14.453
	c-2.874,1.769-5.633,3.687-8.282,5.729c-10.176,1.54-53.028,9.536-65.433,36.414c-7.074,15.328-2.421,40.24,2.504,66.616
	c3.845,20.587,8.184,43.828,3.736,52.762L3.716,317.965c-1.68,1.4-2.665,3.463-2.697,5.649l-1.018,68.19
	c-0.021,1.396,0.348,2.77,1.066,3.968l5.993,9.999c3.312,5.497,9.354,8.912,15.767,8.912h10.89c4.336,0,8.387-1.932,11.116-5.299
	c2.726-3.365,3.775-7.724,2.878-11.956c-1.007-4.764-3.382-9.076-6.868-12.471c-1.878-1.83-4.013-3.328-6.331-4.457l0.721-22.359
	l44.689-32.894c17.707-13.036,32.922-28.907,45.224-47.173l8.315-12.356c3.482-5.176,10.155-7.111,15.869-4.598l25.647,11.266
	c30.592,13.442,67.191,22.272,106.166,25.671c1.023,5.296,2.282,9.959,3.838,13.296c0.066,6.527,0.461,16.641,1.176,30.118
	c1.142,21.55,7.517,42.753,18.437,61.317c4.315,7.336,12.284,11.893,20.795,11.893h10.376c5.803,0,11.221-2.861,14.492-7.655
	c3.271-4.793,3.962-10.881,1.847-16.285c-3.26-8.332-10.389-14.602-19.068-16.771l-0.08-0.02l6.457-93.16l11.443-8.82
	c47.008-34.529,61.715-89.73,65.318-107.238c9.216,3.956,20.303,1.697,27.129-6.173l23.896-27.581
	C472.517,124.844,474.602,116.461,472.779,108.554z M375.752,80.864c5.191-3.471,11.016-5.721,17.11-6.643
	c-0.708,6.542-0.392,13.122,0.955,19.566l6.154,29.449c0.278,1.332-0.305,2.718-1.452,3.45l-9.834,6.283
	c-1.444,0.925-3.328,0.598-4.379-0.761l-7.093-9.167c-7.661-9.903-12.178-22.024-12.943-34.492L375.752,80.864z M23.469,194.561
	c5.033-10.904,19.082-18.173,32.36-22.624c-11.938,16.488-18.732,36.581-18.732,57.362l0.418,48.24
	c0.05,5.419-1.596,10.611-4.628,14.939c-0.434-11.624-3.002-25.425-5.788-40.341C23.021,230.299,18.398,205.547,23.469,194.561z
	 M341.911,259.93c-0.048,0.035-0.096,0.071-0.143,0.107l-14.182,10.932c-1.698,1.309-2.755,3.282-2.903,5.421l-7.125,102.793
	c-0.251,3.627,2.135,6.913,5.663,7.794l6.178,1.545c3.978,0.994,7.244,3.867,8.738,7.685c0.426,1.09,0.015,1.948-0.268,2.363
	c-0.283,0.415-0.933,1.111-2.103,1.111h-10.376c-3.22,0-6.234-1.724-7.866-4.499c-9.705-16.5-15.372-35.347-16.387-54.506
	c-0.772-14.582-1.165-25.079-1.165-31.201c0-1.426-0.407-2.823-1.172-4.026c-3.7-5.814-6.5-34.214-6.971-57.192
	c-0.085-4.142-3.553-7.45-7.652-7.345c-4.141,0.084-7.43,3.51-7.345,7.651c0.095,4.672,0.512,19.555,2.101,34.228
	c-36.034-3.468-69.725-11.75-97.921-24.139l-25.646-11.266c-12.362-5.436-26.809-1.249-34.349,9.956l-8.313,12.354
	c-11.336,16.832-25.357,31.458-41.673,43.47l-47.621,35.052c-1.852,1.363-2.976,3.5-3.05,5.798l-1.018,31.551
	c-0.12,3.717,2.503,6.961,6.163,7.622c1.844,0.333,3.529,1.201,4.873,2.51c1.139,1.109,1.971,2.472,2.438,3.982h-9.988
	c-1.186,0-2.304-0.633-2.91-1.638l-4.886-8.152l0.934-62.61l21.913-18.262c9.414-7.847,14.749-19.372,14.636-31.617l-0.417-47.291
	v-0.814c0-28.49,15.07-55.463,39.328-70.391c13.684-8.414,29.38-12.641,45.435-12.234l110.593,2.819
	c16.232,0.398,31.954-4.151,45.457-13.183l57.375-38.4c2.152,12.427,7.311,24.284,15.066,34.309l7.093,9.167
	c3.603,4.658,8.971,7.131,14.441,7.131c1.815,0,3.639-0.282,5.415-0.836l10.258,7.692l-0.248,1.853
	C402.222,157.874,392.24,223.011,341.911,259.93z M455.865,121.156l-23.894,27.578c-2.931,3.378-8.028,3.927-11.605,1.245
	l-14.004-10.502l0.235-0.15c6.365-4.066,9.603-11.766,8.058-19.159L408.5,90.718c-1.044-4.998-1.279-10.105-0.699-15.179
	l0.099-0.861c5.294,1.118,10.354,3.231,14.886,6.294c2.289,1.549,3.655,4.12,3.655,6.877v1.05l-8.477,6.233
	c-3.337,2.454-4.053,7.148-1.6,10.485c1.47,2,3.744,3.058,6.048,3.058c1.542,0,3.099-0.475,4.437-1.458l9.552-7.024h19.053
	l2.708,11.731C458.913,115.179,458.054,118.629,455.865,121.156z"/>
<g>
</g>
<g>
</g>
<g>
</g>
<g>
</g>
<g>
</g>
<g>
</g>
<g>
</g>
<g>
</g>
<g>
</g>
<g>
</g>
<g>
</g>
<g>
</g>
<g>
</g>
<g>
</g>
<g>
</g>
</svg>
