<?xml version="1.0" encoding="iso-8859-1"?>
<!-- Generator: Adobe Illustrator 18.0.0, SVG Export Plug-In . SVG Version: 6.00 Build 0)  -->
<!DOCTYPE svg PUBLIC "-//W3C//DTD SVG 1.1//EN" "http://www.w3.org/Graphics/SVG/1.1/DTD/svg11.dtd">
<svg version="1.1" id="Capa_1" xmlns="http://www.w3.org/2000/svg" xmlns:xlink="http://www.w3.org/1999/xlink" x="0px" y="0px"
	 viewBox="0 0 479.372 479.372" style="enable-background:new 0 0 479.372 479.372;" xml:space="preserve">
<g>
	<path d="M476.841,152.257l-24.708-21.856l1.161-9.862c0.615-5.231-1.433-10.368-5.479-13.74c-0.279-0.232-0.574-0.444-0.884-0.634
		l-45.497-27.872c-8.996-5.511-20.203-5.562-29.248-0.135l-40.308,24.185c-5.803,3.482-11.899,6.47-18.119,8.881
		c-22.227,8.617-79.902,27.338-147.153,20.839c0.21-2.331,0.28-4.688,0.177-7.062c-0.789-18.148-10.657-34.398-26.397-43.469
		l-17.657-10.175c-16.828-9.699-37.697-9.631-54.46,0.176c-22.145,12.952-32.224,39.982-23.965,64.272l3.734,10.982
		c-6.507,3.899-16.859,11.524-25.43,24.314C0.702,203.79,7.377,244.209,16.833,272.359c1.228,3.655,11.314,36.288-12.327,56.292
		c-1.567,1.326-2.522,3.236-2.643,5.285c-0.737,12.527-1.473,34.207-1.847,46.014c-0.245,7.722,2.075,15.451,6.531,21.762
		l0.414,0.586c5.721,8.104,15.059,12.943,24.979,12.943c4.544,0,8.814-2.005,11.716-5.502c2.902-3.497,4.086-8.063,3.249-12.529
		c-1.216-6.482-4.174-12.513-8.555-17.443l-0.695-0.781l3.023-14.738c2.696-13.145,9.962-24.986,20.458-33.344l13.357-10.636
		c17.631-14.04,32.278-32.116,42.356-52.273l9.322-18.645c21.294,12.641,86.437,48.264,151.475,52.952l17.803,91.98
		c0.247,1.277,0.822,2.468,1.669,3.456l12.759,14.886c1.425,1.663,3.505,2.619,5.694,2.619h29.771c2.545,0,4.917-1.291,6.298-3.428
		s1.585-4.829,0.541-7.15l-9.57-21.266c-0.497-1.104-1.253-2.072-2.206-2.82l-11.741-9.225l6.123-81.632
		c34.159-20.213,60.18-51.95,73.296-89.422c1.689-4.828,2.846-9.822,3.451-14.894l4.409,2.148
		c19.041,9.276,41.723,3.449,53.936-13.853l8.118-11.501C480.205,159.076,479.706,154.792,476.841,152.257z M75.842,84.48
		c12.128-7.094,27.225-7.143,39.398-0.127l17.656,10.175c11.27,6.495,18.335,18.13,18.9,31.125
		c0.546,12.563-5.158,24.534-15.259,32.023l-26.746,19.829c-1.688,1.251-3.374,0.76-4.02,0.493
		c-0.646-0.269-2.182-1.118-2.485-3.198l-1.694-11.613c-1.214-8.327,2.492-16.597,9.44-21.068
		c11.1-7.142,16.803-14.305,17.436-21.899c0.344-4.128-2.724-7.753-6.851-8.097c-4.125-0.341-7.753,2.724-8.097,6.851
		c-0.121,1.455-2.491,5.311-10.604,10.531c-1.942,1.25-3.719,2.686-5.353,4.251c-12.77-0.167-27.191,3.995-35.752,6.942
		l-3.306-9.722C52.531,113.405,59.822,93.851,75.842,84.48z M457.626,165.051c-7.951,11.264-22.717,15.057-35.112,9.019
		l-14.343-6.988c-2.244-1.094-4.887-0.998-7.047,0.254c-2.16,1.253-3.555,3.498-3.721,5.99l-0.496,7.439
		c-0.332,4.971-1.334,9.876-2.98,14.58c-10.762,30.75-31.068,57.258-57.735,75.677l1.745-23.271c0.31-4.131-2.788-7.73-6.918-8.04
		c-4.142-0.311-7.73,2.787-8.04,6.918L313.41,374.22c-0.187,2.493,0.88,4.914,2.845,6.458l13.436,10.557l4.053,9.007h-14.722
		l-9.223-10.76l-25.142-129.896c-0.787-4.066-4.721-6.726-8.789-5.938c-4.066,0.787-6.725,4.722-5.938,8.789l4.755,24.567
		c-60.843-5.69-122.965-39.99-141.774-51.134l3.296-6.592c1.853-3.705,0.351-8.21-3.354-10.062
		c-3.702-1.851-8.209-0.351-10.062,3.354l-19.359,38.717c-9.109,18.22-22.347,34.558-38.283,47.247L51.793,319.17
		c-13.241,10.544-22.407,25.482-25.809,42.064l-3.778,18.419c-0.475,2.317,0.17,4.722,1.742,6.49l3.191,3.589
		c2.573,2.895,4.31,6.436,5.023,10.242c0.009,0.046,0.02,0.104-0.048,0.186c-0.068,0.082-0.126,0.082-0.174,0.082
		c-5.053,0-9.81-2.465-12.724-6.593l-0.414-0.586c-2.587-3.666-3.935-8.154-3.793-12.638c0.342-10.808,0.989-29.929,1.657-42.53
		c28.03-26.439,15.902-65.798,14.385-70.313C2.52,182.646,60.059,157.363,60.07,157.359c0.012-0.005,14.123-5.866,27.877-7.908
		c-1.528,5.052-1.989,10.47-1.197,15.901l1.694,11.613c0.979,6.714,5.304,12.278,11.569,14.883
		c6.266,2.605,13.261,1.748,18.712-2.293l26.746-19.829c8.026-5.95,14.055-13.93,17.63-22.931
		c71.335,7.395,132.609-12.486,156.08-21.584c7.014-2.719,13.883-6.085,20.415-10.005l40.308-24.185
		c4.235-2.541,9.482-2.517,13.694,0.063l44.751,27.415c0.042,0.088,0.059,0.188,0.047,0.288l-1.619,13.757
		c-0.287,2.44,0.639,4.866,2.479,6.494l22.611,20.002L457.626,165.051z"/>
	<path d="M405.807,117.577c-3.465-2.27-8.114-1.301-10.384,2.163l-13.054,19.924l-3.862-7.724
		c-1.852-3.705-6.356-5.207-10.062-3.354c-3.705,1.852-5.207,6.357-3.354,10.062l9.695,19.391c1.2,2.401,3.592,3.977,6.272,4.133
		c0.146,0.008,0.292,0.013,0.437,0.013c2.519,0,4.882-1.267,6.272-3.39l20.202-30.835
		C410.24,124.496,409.271,119.847,405.807,117.577z"/>
	<path d="M421.501,128.924l-3.763,2.508c-3.446,2.298-4.378,6.954-2.081,10.401c1.445,2.168,3.824,3.341,6.248,3.341
		c1.43,0,2.875-0.408,4.153-1.26l3.763-2.508c3.446-2.298,4.378-6.954,2.081-10.401
		C429.605,127.558,424.948,126.628,421.501,128.924z"/>
</g>
<g>
</g>
<g>
</g>
<g>
</g>
<g>
</g>
<g>
</g>
<g>
</g>
<g>
</g>
<g>
</g>
<g>
</g>
<g>
</g>
<g>
</g>
<g>
</g>
<g>
</g>
<g>
</g>
<g>
</g>
</svg>
