<?xml version="1.0" encoding="iso-8859-1"?>
<!-- Generator: Adobe Illustrator 18.0.0, SVG Export Plug-In . SVG Version: 6.00 Build 0)  -->
<!DOCTYPE svg PUBLIC "-//W3C//DTD SVG 1.1//EN" "http://www.w3.org/Graphics/SVG/1.1/DTD/svg11.dtd">
<svg version="1.1" id="Capa_1" xmlns="http://www.w3.org/2000/svg" xmlns:xlink="http://www.w3.org/1999/xlink" x="0px" y="0px"
	 viewBox="0 0 475.157 475.157" style="enable-background:new 0 0 475.157 475.157;" xml:space="preserve">
<path d="M453.557,164.654c16.718-16.106,24.562-39.699,20.58-62.758l-1.582-9.175c-0.637-3.694-3.895-6.348-7.649-6.221
	l-38.076,1.313l-1.132-9.81c-0.938-8.121-5.33-15.446-12.05-20.095c-6.717-4.648-15.115-6.176-23.037-4.193l-20.346,5.089
	c-0.78,0.195-1.525,0.515-2.204,0.947l-11.088,7.051l-22.396-16.119c-2.776-1.998-6.552-1.864-9.18,0.323l-0.187,0.155
	c-0.027,0.023-0.055,0.046-0.082,0.069l-43.256,37.07c-1.565,1.342-2.51,3.271-2.61,5.331c-0.1,2.06,0.652,4.071,2.081,5.559
	l15.839,16.499l7.703,50.065c-17.344,7.885-85.486,32.699-206.033,3.463c-6.016-3.64-18.141-10.142-36.085-19.351
	c-16.199-8.312-35.859-4.518-47.811,9.225c-10.83,12.454-12.749,30.531-4.776,44.981l13.212,23.947
	c0.478,7.922,2.394,43.333,1.048,81.166c-2.599,73.084-14.8,94.198-21.842,100.28c-2.254,1.947-3.143,5.042-2.265,7.887
	c0.878,2.846,3.356,4.902,6.315,5.24c22.169,2.534,86.042,3.293,154.672,3.293c99.021,0,207.919-1.581,215.525-1.694
	c3.229-0.048,6.063-2.156,7.039-5.233s-0.127-6.433-2.738-8.332c-9.617-6.994-28.085-25.054-23.785-36.233
	c1.322-3.437,7.738-13.223,38.682-29.813c7.409-3.973,12.364-11.021,13.594-19.338c0.913-6.179-0.348-12.281-3.491-17.451
	l51.679-76.892c6.924-10.302,8.83-23.024,5.23-34.903L453.557,164.654z M459.356,104.447c3.36,19.462-3.981,39.407-19.161,52.052
	c-2.314,1.928-3.251,5.054-2.377,7.938l10.882,35.912c0.274,0.905,0.495,1.818,0.669,2.734c-2.62-5.795-6.063-11.261-9.475-16.67
	c-5.327-8.446-10.836-17.18-14.095-27.886c-7.86-25.826,7.872-48.971,13.485-56.134l19.601-0.676L459.356,104.447z M321.096,74.442
	l-3.262,41.097L297.66,94.526L321.096,74.442z M318.578,137.977c1.439,1.5,3.404,2.307,5.412,2.307c0.845,0,1.696-0.143,2.521-0.437
	c2.781-0.993,4.722-3.526,4.955-6.47l4.988-62.862L364.6,90.774c3.361,2.42,8.05,1.658,10.469-1.704
	c2.421-3.362,1.658-8.049-1.703-10.469l-3.28-2.361l4.999-3.179l19.167-4.794c3.793-0.949,7.647-0.247,10.861,1.976
	c3.217,2.225,5.235,5.593,5.685,9.48l1.144,9.919l-3.829,0.821c-4.05,0.869-6.629,4.856-5.76,8.906
	c0.755,3.52,3.865,5.928,7.325,5.928c0.521,0,1.051-0.055,1.581-0.168l9.337-2.003c-7.896,13.236-16.65,35.111-9.145,59.767
	c3.845,12.635,10.174,22.669,15.757,31.521c11.189,17.74,17.943,28.448,3.562,49.852l-34.769,51.732
	c-17.917-20.044-68.18-79.813-75.457-127.121l-5.287-34.363L318.578,137.977z M394.798,323.051
	c-0.528,3.574-2.658,6.604-5.843,8.311c-26.374,14.14-41.288,26.455-45.594,37.648c-5.677,14.759,4.23,29.946,14.032,40.442
	c-63.969,0.815-269.075,3.056-335.642-0.712c10.168-18.535,15.979-51.207,17.679-99.022c1.547-43.518-1.148-83.954-1.176-84.357
	c-0.074-1.093-0.387-2.156-0.916-3.115l-14.025-25.421c-4.944-8.961-3.753-20.17,2.962-27.893
	c7.411-8.522,19.601-10.876,29.643-5.722c11.367,5.833,20.455,10.613,26.967,14.178c-11.772,11.369-31.312,36.308-34.766,78.902
	c-0.334,4.129,2.741,7.747,6.87,8.082c0.206,0.017,0.411,0.025,0.614,0.025c3.867,0,7.149-2.972,7.467-6.894
	c3.63-44.772,26.814-66.964,34.528-73.174c74.799,17.815,129.755,15.085,162.853,9.57c22.487-3.748,38.196-9.198,47.247-13.003
	c14.956,60.136,80.855,129.318,83.802,132.387c0.025,0.026,0.053,0.048,0.079,0.074c0.01,0.01,0.016,0.023,0.027,0.033
	C394.162,315.952,395.326,319.473,394.798,323.051z"/>
<g>
</g>
<g>
</g>
<g>
</g>
<g>
</g>
<g>
</g>
<g>
</g>
<g>
</g>
<g>
</g>
<g>
</g>
<g>
</g>
<g>
</g>
<g>
</g>
<g>
</g>
<g>
</g>
<g>
</g>
</svg>
